SplineFontDB: 3.2
FontName: FanTritCoin
FullName: FanTritCoin
FamilyName: FanTritCoin
Weight: Regular
Copyright: Copyright (c) fANhAN iNSiDE 2021, 
UComments: "2021-7-5: Created with FontForge (http://fontforge.org)"
Version: 001.000
ItalicAngle: 0
UnderlinePosition: -819.2
UnderlineWidth: 409.6
Ascent: 3277
Descent: 819
InvalidEm: 0
LayerCount: 2
Layer: 0 0 "Back" 1
Layer: 1 0 "Fore" 0
XUID: [1021 991 -1287261736 28810]
StyleMap: 0x0000
FSType: 0
OS2Version: 0
OS2_WeightWidthSlopeOnly: 0
OS2_UseTypoMetrics: 1
CreationTime: 1625445862
ModificationTime: 1625541819
OS2TypoAscent: 0
OS2TypoAOffset: 1
OS2TypoDescent: 0
OS2TypoDOffset: 1
OS2TypoLinegap: 369
OS2WinAscent: 0
OS2WinAOffset: 1
OS2WinDescent: 0
OS2WinDOffset: 1
HheadAscent: 0
HheadAOffset: 1
HheadDescent: 0
HheadDOffset: 1
MarkAttachClasses: 1
DEI: 91125
Encoding: UnicodeFull
UnicodeInterp: none
NameList: AGL For New Fonts
DisplaySize: -48
AntiAlias: 1
FitToEm: 0
WinInfo: 58216 38 14
BeginPrivate: 0
EndPrivate
BeginChars: 1114112 126

StartChar: uniE401
Encoding: 58369 58369 0
Width: 4336
Flags: HW
LayerCount: 2
Fore
SplineSet
168 -21 m 1
 1570.08789062 -21 l 1
 1596.08691406 289.901367188 1856.01367188 529 2168 529 c 0
 2479.98632812 529 2739.91308594 289.901367188 2765.91210938 -21 c 1
 4168 -21 l 1
 4168 -121 l 1
 2765.91210938 -121 l 1
 2739.91308594 -431.901367188 2479.98632812 -671 2168 -671 c 0
 1856.01367188 -671 1596.08691406 -431.901367188 1570.08789062 -121 c 1
 168 -121 l 1
 168 -21 l 1
2168 329 m 0
 1947.0859375 329 1768 149.9140625 1768 -71 c 0
 1768 -291.9140625 1947.0859375 -471 2168 -471 c 0
 2388.9140625 -471 2568 -291.9140625 2568 -71 c 0
 2568 149.9140625 2388.9140625 329 2168 329 c 0
2167.79101562 129 m 1
 2167.79101562 129 l 1
 2168 129 l 2
 2278.45703125 129 2368 39.45703125 2368 -71 c 0
 2368 -181.45703125 2278.45703125 -271 2168 -271 c 0
 2057.54296875 -271 1968 -181.45703125 1968 -71 c 0
 1968 39.3759765625 2057.41601562 128.884765625 2167.79101562 129 c 1
168 2579 m 1
 1570.08789062 2579 l 1
 1596.08691406 2889.90136719 1856.01367188 3129 2168 3129 c 0
 2479.98632812 3129 2739.91308594 2889.90136719 2765.91210938 2579 c 1
 4168 2579 l 1
 4168 2479 l 1
 2765.91210938 2479 l 1
 2739.91308594 2168.09863281 2479.98632812 1929 2168 1929 c 0
 1856.01367188 1929 1596.08691406 2168.09863281 1570.08789062 2479 c 1
 168 2479 l 1
 168 2579 l 1
2168 2929 m 0
 1947.0859375 2929 1768 2749.9140625 1768 2529 c 0
 1768 2308.0859375 1947.0859375 2129 2168 2129 c 0
 2388.9140625 2129 2568 2308.0859375 2568 2529 c 0
 2568 2749.9140625 2388.9140625 2929 2168 2929 c 0
2167.79101562 2729 m 2
 2168 2729 l 2
 2278.45703125 2729 2368 2639.45703125 2368 2529 c 0
 2368 2418.54296875 2278.45703125 2329 2168 2329 c 0
 2057.54296875 2329 1968 2418.54296875 1968 2529 c 0
 1968 2639.375 2057.41601562 2728.88476562 2167.79101562 2729 c 2
168 1279 m 1
 1570.08789062 1279 l 1
 1596.08691406 1589.90136719 1856.01367188 1829 2168 1829 c 0
 2479.98632812 1829 2739.91308594 1589.90136719 2765.91210938 1279 c 1
 4168 1279 l 1
 4168 1179 l 1
 2765.91210938 1179 l 1
 2739.91308594 868.098632812 2479.98632812 629 2168 629 c 0
 1856.01367188 629 1596.08691406 868.098632812 1570.08789062 1179 c 1
 168 1179 l 1
 168 1279 l 1
2168 1629 m 0
 1947.0859375 1629 1768 1449.9140625 1768 1229 c 0
 1768 1008.0859375 1947.0859375 829 2168 829 c 0
 2388.9140625 829 2568 1008.0859375 2568 1229 c 0
 2568 1449.9140625 2388.9140625 1629 2168 1629 c 0
2167.79199219 1429 m 2
 2168.00097656 1429 l 2
 2278.45800781 1429 2368.00097656 1339.45703125 2368.00097656 1229 c 0
 2368.00097656 1118.54296875 2278.45800781 1029 2168.00097656 1029 c 0
 2057.54394531 1029 1968.00097656 1118.54296875 1968.00097656 1229 c 0
 1968.00097656 1339.37597656 2057.41699219 1428.88476562 2167.79199219 1429 c 2
120 -819 m 1
 120 3277 l 1
 168 3277 l 1
 168 -819 l 1
 120 -819 l 1
4168 -819 m 1
 4168 3277 l 1
 4216 3277 l 1
 4216 -819 l 1
 4168 -819 l 1
EndSplineSet
Validated: 524293
EndChar

StartChar: uniE402
Encoding: 58370 58370 1
Width: 4336
Flags: HW
LayerCount: 2
Fore
SplineSet
168 1279 m 1
 1570.08789062 1279 l 1
 1596.08691406 1589.90136719 1856.01367188 1829 2168 1829 c 0
 2479.98632812 1829 2739.91308594 1589.90136719 2765.91210938 1279 c 1
 4168 1279 l 1
 4168 1179 l 1
 2765.91210938 1179 l 1
 2739.91308594 868.098632812 2479.98632812 629 2168 629 c 0
 1856.01367188 629 1596.08691406 868.098632812 1570.08789062 1179 c 1
 168 1179 l 1
 168 1279 l 1
2168 1629 m 0
 1947.0859375 1629 1768 1449.9140625 1768 1229 c 0
 1768 1008.0859375 1947.0859375 829 2168 829 c 0
 2388.9140625 829 2568 1008.0859375 2568 1229 c 0
 2568 1449.9140625 2388.9140625 1629 2168 1629 c 0
2167.79101562 1429 m 1
 2167.79101562 1429 l 1
 2168 1429 l 2
 2278.45703125 1429 2368 1339.45703125 2368 1229 c 0
 2368 1118.54296875 2278.45703125 1029 2168 1029 c 0
 2057.54296875 1029 1968 1118.54296875 1968 1229 c 0
 1968 1339.37597656 2057.41601562 1428.88476562 2167.79101562 1429 c 1
168 -21 m 1
 1148 -21 l 1
 1148 529 l 1
 1789.66601562 -21 l 1
 2546.33398438 -21 l 1
 3188 529 l 1
 3188 -21 l 1
 4167.99902344 -21 l 1
 4167.99902344 -121 l 1
 3188 -121 l 1
 3188 -671 l 1
 2546.33398438 -121 l 1
 1789.66601562 -121 l 1
 1148 -671 l 1
 1148 -121 l 1
 168 -121 l 1
 168 -21 l 1
168 2579 m 1
 1570.08789062 2579 l 1
 1596.08691406 2889.90136719 1856.01367188 3129 2168 3129 c 0
 2479.98632812 3129 2739.91308594 2889.90136719 2765.91210938 2579 c 1
 4168 2579 l 1
 4168 2479 l 1
 2765.91210938 2479 l 1
 2739.91308594 2168.09863281 2479.98632812 1929 2168 1929 c 0
 1856.01367188 1929 1596.08691406 2168.09863281 1570.08789062 2479 c 1
 168 2479 l 1
 168 2579 l 1
2168 2929 m 0
 1947.0859375 2929 1768 2749.9140625 1768 2529 c 0
 1768 2308.0859375 1947.0859375 2129 2168 2129 c 0
 2388.9140625 2129 2568 2308.0859375 2568 2529 c 0
 2568 2749.9140625 2388.9140625 2929 2168 2929 c 0
2167.79199219 2729 m 2
 2167.79296875 2729 l 1
 2168.00097656 2729 l 2
 2278.45800781 2729 2368.00097656 2639.45703125 2368.00097656 2529 c 0
 2368.00097656 2418.54296875 2278.45800781 2329 2168.00097656 2329 c 0
 2057.54394531 2329 1968.00097656 2418.54296875 1968.00097656 2529 c 0
 1968.00097656 2639.375 2057.41699219 2728.88476562 2167.79199219 2729 c 2
120 -819 m 1
 120 3277 l 1
 168 3277 l 1
 168 -819 l 1
 120 -819 l 1
4168 -819 m 1
 4168 3277 l 1
 4216 3277 l 1
 4216 -819 l 1
 4168 -819 l 1
EndSplineSet
Validated: 524293
EndChar

StartChar: uniE403
Encoding: 58371 58371 2
Width: 4336
Flags: HW
LayerCount: 2
Fore
SplineSet
168 1279 m 1
 1570.08789062 1279 l 1
 1596.08691406 1589.90136719 1856.01367188 1829 2168 1829 c 0
 2479.98632812 1829 2739.91308594 1589.90136719 2765.91210938 1279 c 1
 4168 1279 l 1
 4168 1179 l 1
 2765.91210938 1179 l 1
 2739.91308594 868.098632812 2479.98632812 629 2168 629 c 0
 1856.01367188 629 1596.08691406 868.098632812 1570.08789062 1179 c 1
 168 1179 l 1
 168 1279 l 1
2168 1629 m 0
 1947.0859375 1629 1768 1449.9140625 1768 1229 c 0
 1768 1008.0859375 1947.0859375 829 2168 829 c 0
 2388.9140625 829 2568 1008.0859375 2568 1229 c 0
 2568 1449.9140625 2388.9140625 1629 2168 1629 c 0
2167.79101562 1429 m 1
 2167.79101562 1429 l 1
 2168 1429 l 2
 2278.45703125 1429 2368 1339.45703125 2368 1229 c 0
 2368 1118.54296875 2278.45703125 1029 2168 1029 c 0
 2057.54296875 1029 1968 1118.54296875 1968 1229 c 0
 1968 1339.37597656 2057.41601562 1428.88476562 2167.79101562 1429 c 1
168 2579 m 1
 1570.08789062 2579 l 1
 1596.08691406 2889.90136719 1856.01367188 3129 2168 3129 c 0
 2479.98632812 3129 2739.91308594 2889.90136719 2765.91210938 2579 c 1
 4168 2579 l 1
 4168 2479 l 1
 2765.91210938 2479 l 1
 2739.91308594 2168.09863281 2479.98632812 1929 2168 1929 c 0
 1856.01367188 1929 1596.08691406 2168.09863281 1570.08789062 2479 c 1
 168 2479 l 1
 168 2579 l 1
2168 2929 m 0
 1947.0859375 2929 1768 2749.9140625 1768 2529 c 0
 1768 2308.0859375 1947.0859375 2129 2168 2129 c 0
 2388.9140625 2129 2568 2308.0859375 2568 2529 c 0
 2568 2749.9140625 2388.9140625 2929 2168 2929 c 0
2167.79199219 2729 m 2
 2167.79296875 2729 l 1
 2168.00097656 2729 l 2
 2278.45800781 2729 2368.00097656 2639.45703125 2368.00097656 2529 c 0
 2368.00097656 2418.54296875 2278.45800781 2329 2168.00097656 2329 c 0
 2057.54394531 2329 1968.00097656 2418.54296875 1968.00097656 2529 c 0
 1968.00097656 2639.375 2057.41699219 2728.88476562 2167.79199219 2729 c 2
868 529 m 0
 1182.11621094 529 1440.19628906 286.518554688 1465.91210938 -21 c 1
 1570.08789062 -21 l 1
 1595.80371094 286.518554688 1853.88378906 529 2168 529 c 0
 2482.11621094 529 2740.19628906 286.518554688 2765.91210938 -21 c 1
 2870.08789062 -21 l 1
 2895.80371094 286.518554688 3153.88378906 529 3468 529 c 0
 3782.11621094 529 4040.19628906 286.518554688 4065.91210938 -21 c 1
 4168 -21 l 1
 4168 -121 l 1
 4065.91210938 -121 l 1
 4040.19628906 -428.518554688 3782.11523438 -670.999023438 3468 -671 c 0
 3153.88378906 -671 2895.80371094 -428.518554688 2870.08789062 -121 c 1
 2765.91210938 -121 l 1
 2740.19628906 -428.518554688 2482.11523438 -670.999023438 2168 -671 c 0
 1853.88378906 -671 1595.80371094 -428.518554688 1570.08789062 -121 c 1
 1465.91210938 -121 l 1
 1440.19628906 -428.518554688 1182.11523438 -670.999023438 868 -671 c 0
 553.883789062 -671 295.803710938 -428.518554688 270.087890625 -121 c 1
 168 -121 l 1
 168 -21 l 1
 270.087890625 -21 l 1
 295.803710938 286.518554688 553.883789062 529 868 529 c 0
868 329 m 0
 647.234375 329 468 149.766601562 468 -71 c 0
 468 -291.765625 647.234375 -471 868 -471 c 0
 1088.765625 -471 1268 -291.765625 1268 -71 c 0
 1268 149.765625 1088.765625 329 868 329 c 0
2168 329 m 0
 1947.23339844 329 1768 149.766601562 1768 -71 c 0
 1768 -291.765625 1947.23339844 -471 2168 -471 c 0
 2388.765625 -471 2568 -291.765625 2568 -71 c 0
 2568 149.765625 2388.765625 329 2168 329 c 0
3468 329 m 0
 3247.23339844 329 3068 149.766601562 3068 -71 c 0
 3068 -291.765625 3247.23339844 -471 3468 -471 c 0
 3688.765625 -471 3868 -291.765625 3868 -71 c 0
 3868 149.765625 3688.765625 329 3468 329 c 0
867.791015625 129 m 0
 867.826171875 129 867.857421875 129 867.893554688 129 c 0
 867.928710938 129 867.96484375 129 868 129 c 0
 978.3828125 129 1068 39.3828125 1068 -71 c 0
 1068 -181.3828125 978.3828125 -271 868 -271 c 0
 757.6171875 -271 668 -181.3828125 668 -71 c 0
 668 39.3125 757.505859375 128.884765625 867.791015625 129 c 0
2167.79101562 129 m 1
 2167.79101562 129 l 1
 2167.82617188 129 2167.85742188 129 2167.89355469 129 c 0
 2167.92871094 129 2167.96484375 129 2168 129 c 0
 2278.3828125 129 2368 39.3828125 2368 -71 c 0
 2368 -181.3828125 2278.3828125 -271 2168 -271 c 0
 2057.6171875 -271 1968 -181.3828125 1968 -71 c 0
 1968 39.3125 2057.50585938 128.884765625 2167.79101562 129 c 1
3467.79296875 129 m 0
 3467.828125 129 3467.859375 129 3467.89550781 129 c 0
 3467.93066406 129 3467.96679688 129 3468.00195312 129 c 0
 3578.38476562 129 3668.00195312 39.3828125 3668.00195312 -71 c 0
 3668.00195312 -181.3828125 3578.38476562 -271 3468.00195312 -271 c 0
 3357.61914062 -271 3268.00195312 -181.3828125 3268.00195312 -71 c 0
 3268.00195312 39.3125 3357.5078125 128.884765625 3467.79296875 129 c 0
120 3277 m 1
 168 3277 l 1
 168 -819 l 1
 120 -819 l 1
 120 3277 l 1
4168 3277 m 1
 4216 3277 l 1
 4216 -819 l 1
 4168 -819 l 1
 4168 3277 l 1
EndSplineSet
Validated: 524293
EndChar

StartChar: uniE404
Encoding: 58372 58372 3
Width: 4336
Flags: HW
LayerCount: 2
Fore
SplineSet
168 1279 m 1
 1570.08789062 1279 l 1
 1596.08691406 1589.90136719 1856.01367188 1829 2168 1829 c 0
 2479.98632812 1829 2739.91308594 1589.90136719 2765.91210938 1279 c 1
 4168 1279 l 1
 4168 1179 l 1
 2765.91210938 1179 l 1
 2739.91308594 868.098632812 2479.98632812 629 2168 629 c 0
 1856.01367188 629 1596.08691406 868.098632812 1570.08789062 1179 c 1
 168 1179 l 1
 168 1279 l 1
2168 1629 m 0
 1947.0859375 1629 1768 1449.9140625 1768 1229 c 0
 1768 1008.0859375 1947.0859375 829 2168 829 c 0
 2388.9140625 829 2568 1008.0859375 2568 1229 c 0
 2568 1449.9140625 2388.9140625 1629 2168 1629 c 0
2167.79101562 1429 m 1
 2167.79101562 1429 l 1
 2168 1429 l 2
 2278.45703125 1429 2368 1339.45703125 2368 1229 c 0
 2368 1118.54296875 2278.45703125 1029 2168 1029 c 0
 2057.54296875 1029 1968 1118.54296875 1968 1229 c 0
 1968 1339.37597656 2057.41601562 1428.88476562 2167.79101562 1429 c 1
168 2579 m 1
 1570.08789062 2579 l 1
 1596.08691406 2889.90136719 1856.01367188 3129 2168 3129 c 0
 2479.98632812 3129 2739.91308594 2889.90136719 2765.91210938 2579 c 1
 4168 2579 l 1
 4168 2479 l 1
 2765.91210938 2479 l 1
 2739.91308594 2168.09863281 2479.98632812 1929 2168 1929 c 0
 1856.01367188 1929 1596.08691406 2168.09863281 1570.08789062 2479 c 1
 168 2479 l 1
 168 2579 l 1
2168 2929 m 0
 1947.0859375 2929 1768 2749.9140625 1768 2529 c 0
 1768 2308.0859375 1947.0859375 2129 2168 2129 c 0
 2388.9140625 2129 2568 2308.0859375 2568 2529 c 0
 2568 2749.9140625 2388.9140625 2929 2168 2929 c 0
2167.79199219 2729 m 2
 2167.79296875 2729 l 1
 2168.00097656 2729 l 2
 2278.45800781 2729 2368.00097656 2639.45703125 2368.00097656 2529 c 0
 2368.00097656 2418.54296875 2278.45800781 2329 2168.00097656 2329 c 0
 2057.54394531 2329 1968.00097656 2418.54296875 1968.00097656 2529 c 0
 1968.00097656 2639.375 2057.41699219 2728.88476562 2167.79199219 2729 c 2
508 529 m 1
 1149.66601562 -21 l 1
 1448 -21 l 1
 1448 529 l 1
 2089.66601562 -21 l 1
 2246.33398438 -21 l 1
 2888 529 l 1
 2888 -21 l 1
 3186.33398438 -21 l 1
 3828 529 l 1
 3828 -21 l 1
 4168 -21 l 1
 4168 -121 l 1
 3828 -121 l 1
 3828 -671 l 1
 3186.33398438 -121 l 1
 2888 -121 l 1
 2888 -671 l 1
 2246.33398438 -121 l 1
 2089.66601562 -121 l 1
 1448 -671 l 1
 1448 -121 l 1
 1149.66601562 -121 l 1
 508 -671 l 1
 508 -121 l 1
 168 -121 l 1
 168 -21 l 1
 508 -21 l 1
 508 529 l 1
120 3277 m 1
 168 3277 l 1
 168 -819 l 1
 120 -819 l 1
 120 3277 l 1
4168 3277 m 1
 4216 3277 l 1
 4216 -819 l 1
 4168 -819 l 1
 4168 3277 l 1
EndSplineSet
Validated: 524293
EndChar

StartChar: uniE405
Encoding: 58373 58373 4
Width: 4336
Flags: HW
LayerCount: 2
Fore
SplineSet
168 -21 m 1
 1570.08789062 -21 l 1
 1596.08691406 289.901367188 1856.01367188 529 2168 529 c 0
 2479.98632812 529 2739.91308594 289.901367188 2765.91210938 -21 c 1
 4168 -21 l 1
 4168 -121 l 1
 2765.91210938 -121 l 1
 2739.91308594 -431.901367188 2479.98632812 -671 2168 -671 c 0
 1856.01367188 -671 1596.08691406 -431.901367188 1570.08789062 -121 c 1
 168 -121 l 1
 168 -21 l 1
2168 329 m 0
 1947.0859375 329 1768 149.9140625 1768 -71 c 0
 1768 -291.9140625 1947.0859375 -471 2168 -471 c 0
 2388.9140625 -471 2568 -291.9140625 2568 -71 c 0
 2568 149.9140625 2388.9140625 329 2168 329 c 0
2167.79101562 129 m 1
 2167.79101562 129 l 1
 2168 129 l 2
 2278.45703125 129 2368 39.45703125 2368 -71 c 0
 2368 -181.45703125 2278.45703125 -271 2168 -271 c 0
 2057.54296875 -271 1968 -181.45703125 1968 -71 c 0
 1968 39.3759765625 2057.41601562 128.884765625 2167.79101562 129 c 1
168 2579 m 1
 1570.08789062 2579 l 1
 1596.08691406 2889.90136719 1856.01367188 3129 2168 3129 c 0
 2479.98632812 3129 2739.91308594 2889.90136719 2765.91210938 2579 c 1
 4168 2579 l 1
 4168 2479 l 1
 2765.91210938 2479 l 1
 2739.91308594 2168.09863281 2479.98632812 1929 2168 1929 c 0
 1856.01367188 1929 1596.08691406 2168.09863281 1570.08789062 2479 c 1
 168 2479 l 1
 168 2579 l 1
2168 2929 m 0
 1947.0859375 2929 1768 2749.9140625 1768 2529 c 0
 1768 2308.0859375 1947.0859375 2129 2168 2129 c 0
 2388.9140625 2129 2568 2308.0859375 2568 2529 c 0
 2568 2749.9140625 2388.9140625 2929 2168 2929 c 0
2167.79199219 2729 m 2
 2167.79296875 2729 l 1
 2168.00097656 2729 l 2
 2278.45800781 2729 2368.00097656 2639.45703125 2368.00097656 2529 c 0
 2368.00097656 2418.54296875 2278.45800781 2329 2168.00097656 2329 c 0
 2057.54394531 2329 1968.00097656 2418.54296875 1968.00097656 2529 c 0
 1968.00097656 2639.375 2057.41699219 2728.88476562 2167.79199219 2729 c 2
168 1279 m 1
 1148 1279 l 1
 1148 1829 l 1
 1789.66601562 1279 l 1
 2546.33398438 1279 l 1
 3188 1829 l 1
 3188 1279 l 1
 4167.99902344 1279 l 1
 4167.99902344 1179 l 1
 3188 1179 l 1
 3188 629 l 1
 2546.33398438 1179 l 1
 1789.66601562 1179 l 1
 1148 629 l 1
 1148 1179 l 1
 168 1179 l 1
 168 1279 l 1
120 3277 m 1
 168 3277 l 1
 168 -819 l 1
 120 -819 l 1
 120 3277 l 1
4168 3277 m 1
 4216 3277 l 1
 4216 -819 l 1
 4168 -819 l 1
 4168 3277 l 1
EndSplineSet
Validated: 524293
EndChar

StartChar: uniE406
Encoding: 58374 58374 5
Width: 4336
Flags: HW
LayerCount: 2
Fore
SplineSet
168 2579 m 1
 1570.08789062 2579 l 1
 1596.08691406 2889.90136719 1856.01367188 3129 2168 3129 c 0
 2479.98632812 3129 2739.91308594 2889.90136719 2765.91210938 2579 c 1
 4168 2579 l 1
 4168 2479 l 1
 2765.91210938 2479 l 1
 2739.91308594 2168.09863281 2479.98632812 1929 2168 1929 c 0
 1856.01367188 1929 1596.08691406 2168.09863281 1570.08789062 2479 c 1
 168 2479 l 1
 168 2579 l 1
2168 2929 m 0
 1947.0859375 2929 1768 2749.9140625 1768 2529 c 0
 1768 2308.0859375 1947.0859375 2129 2168 2129 c 0
 2388.9140625 2129 2568 2308.0859375 2568 2529 c 0
 2568 2749.9140625 2388.9140625 2929 2168 2929 c 0
2167.79199219 2729 m 2
 2167.79296875 2729 l 1
 2168.00097656 2729 l 2
 2278.45800781 2729 2368.00097656 2639.45703125 2368.00097656 2529 c 0
 2368.00097656 2418.54296875 2278.45800781 2329 2168.00097656 2329 c 0
 2057.54394531 2329 1968.00097656 2418.54296875 1968.00097656 2529 c 0
 1968.00097656 2639.375 2057.41699219 2728.88476562 2167.79199219 2729 c 2
168 1279 m 1
 1148 1279 l 1
 1148 1829 l 1
 1789.66601562 1279 l 1
 2546.33398438 1279 l 1
 3188 1829 l 1
 3188 1279 l 1
 4167.99902344 1279 l 1
 4167.99902344 1179 l 1
 3188 1179 l 1
 3188 629 l 1
 2546.33398438 1179 l 1
 1789.66601562 1179 l 1
 1148 629 l 1
 1148 1179 l 1
 168 1179 l 1
 168 1279 l 1
168 -21 m 1
 1148 -21 l 1
 1148 529 l 1
 1789.66601562 -21 l 1
 2546.33398438 -21 l 1
 3188 529 l 1
 3188 -21 l 1
 4167.99902344 -21 l 1
 4167.99902344 -121 l 1
 3188 -121 l 1
 3188 -671 l 1
 2546.33398438 -121 l 1
 1789.66601562 -121 l 1
 1148 -671 l 1
 1148 -121 l 1
 168 -121 l 1
 168 -21 l 1
120 3277 m 1
 168 3277 l 1
 168 -819 l 1
 120 -819 l 1
 120 3277 l 1
4168 3277 m 1
 4216 3277 l 1
 4216 -819 l 1
 4168 -819 l 1
 4168 3277 l 1
EndSplineSet
Validated: 524293
EndChar

StartChar: uniE407
Encoding: 58375 58375 6
Width: 4336
Flags: HW
LayerCount: 2
Fore
SplineSet
168 2579 m 1
 1570.08789062 2579 l 1
 1596.08691406 2889.90136719 1856.01367188 3129 2168 3129 c 0
 2479.98632812 3129 2739.91308594 2889.90136719 2765.91210938 2579 c 1
 4168 2579 l 1
 4168 2479 l 1
 2765.91210938 2479 l 1
 2739.91308594 2168.09863281 2479.98632812 1929 2168 1929 c 0
 1856.01367188 1929 1596.08691406 2168.09863281 1570.08789062 2479 c 1
 168 2479 l 1
 168 2579 l 1
2168 2929 m 0
 1947.0859375 2929 1768 2749.9140625 1768 2529 c 0
 1768 2308.0859375 1947.0859375 2129 2168 2129 c 0
 2388.9140625 2129 2568 2308.0859375 2568 2529 c 0
 2568 2749.9140625 2388.9140625 2929 2168 2929 c 0
2167.79199219 2729 m 2
 2167.79296875 2729 l 1
 2168.00097656 2729 l 2
 2278.45800781 2729 2368.00097656 2639.45703125 2368.00097656 2529 c 0
 2368.00097656 2418.54296875 2278.45800781 2329 2168.00097656 2329 c 0
 2057.54394531 2329 1968.00097656 2418.54296875 1968.00097656 2529 c 0
 1968.00097656 2639.375 2057.41699219 2728.88476562 2167.79199219 2729 c 2
168 1279 m 1
 1148 1279 l 1
 1148 1829 l 1
 1789.66601562 1279 l 1
 2546.33398438 1279 l 1
 3188 1829 l 1
 3188 1279 l 1
 4167.99902344 1279 l 1
 4167.99902344 1179 l 1
 3188 1179 l 1
 3188 629 l 1
 2546.33398438 1179 l 1
 1789.66601562 1179 l 1
 1148 629 l 1
 1148 1179 l 1
 168 1179 l 1
 168 1279 l 1
868 529 m 0
 1182.11621094 529 1440.19628906 286.51953125 1465.91210938 -21 c 1
 1570.08789062 -21 l 1
 1595.80371094 286.518554688 1853.88378906 529 2168 529 c 0
 2482.11621094 529 2740.19628906 286.51953125 2765.91210938 -21 c 1
 2870.08789062 -21 l 1
 2895.80371094 286.518554688 3153.88378906 529 3468 529 c 0
 3782.11621094 529 4040.19628906 286.51953125 4065.91210938 -21 c 1
 4168 -21 l 1
 4168 -121 l 1
 4065.91210938 -121 l 1
 4040.19628906 -428.518554688 3782.11523438 -670.999023438 3468 -671 c 0
 3153.88378906 -671 2895.80371094 -428.518554688 2870.08789062 -121 c 1
 2765.91210938 -121 l 1
 2740.19628906 -428.518554688 2482.11523438 -670.999023438 2168 -671 c 0
 1853.88378906 -671 1595.80371094 -428.518554688 1570.08789062 -121 c 1
 1465.91210938 -121 l 1
 1440.19628906 -428.518554688 1182.11523438 -670.999023438 868 -671 c 0
 553.883789062 -671 295.803710938 -428.518554688 270.087890625 -121 c 1
 168 -121 l 1
 168 -21 l 1
 270.087890625 -21 l 1
 295.803710938 286.518554688 553.883789062 529 868 529 c 0
868 329 m 0
 647.234375 329 468 149.766601562 468 -71 c 0
 468 -291.765625 647.234375 -471 868 -471 c 0
 1088.765625 -471 1268 -291.765625 1268 -71 c 0
 1268 149.766601562 1088.765625 329 868 329 c 0
2168 329 m 0
 1947.23339844 329 1768 149.766601562 1768 -71 c 0
 1768 -291.765625 1947.234375 -471 2168 -471 c 0
 2388.765625 -471 2568 -291.765625 2568 -71 c 0
 2568 149.766601562 2388.765625 329 2168 329 c 0
3468 329 m 0
 3247.23339844 329 3068 149.766601562 3068 -71 c 0
 3068 -291.765625 3247.23339844 -471 3468 -471 c 0
 3688.765625 -471 3868 -291.765625 3868 -71 c 0
 3868 149.766601562 3688.765625 329 3468 329 c 0
867.791015625 129 m 0
 867.826171875 129 867.857421875 129 867.893554688 129 c 0
 867.928710938 129 867.96484375 129 868 129 c 0
 978.3828125 129 1068 39.3828125 1068 -71 c 0
 1068 -181.3828125 978.3828125 -271 868 -271 c 0
 757.6171875 -271 668 -181.3828125 668 -71 c 0
 668 39.3125 757.505859375 128.884765625 867.791015625 129 c 0
2167.79101562 129 m 1
 2167.79101562 129 l 1
 2167.82617188 129 2167.85742188 129 2167.89355469 129 c 0
 2167.92871094 129 2167.96386719 129 2168 129 c 0
 2278.3828125 129 2368 39.3828125 2368 -71 c 0
 2368 -181.3828125 2278.3828125 -271 2168 -271 c 0
 2057.6171875 -271 1968 -181.3828125 1968 -71 c 0
 1968 39.3125 2057.50585938 128.884765625 2167.79101562 129 c 1
3467.79296875 129 m 0
 3467.828125 129 3467.859375 129 3467.89550781 129 c 0
 3467.93066406 129 3467.96582031 129 3468.00195312 129 c 0
 3578.38476562 129 3668.00195312 39.3828125 3668.00195312 -71 c 0
 3668.00195312 -181.3828125 3578.38476562 -271 3468.00195312 -271 c 0
 3357.61914062 -271 3268.00195312 -181.3828125 3268.00195312 -71 c 0
 3268.00195312 39.3125 3357.5078125 128.884765625 3467.79296875 129 c 0
120 3277 m 1
 168 3277 l 1
 168 -819 l 1
 120 -819 l 1
 120 3277 l 1
4168 3277 m 1
 4216 3277 l 1
 4216 -819 l 1
 4168 -819 l 1
 4168 3277 l 1
EndSplineSet
Validated: 524293
EndChar

StartChar: uniE408
Encoding: 58376 58376 7
Width: 4336
Flags: HW
LayerCount: 2
Fore
SplineSet
168 2579 m 1
 1570.08789062 2579 l 1
 1596.08691406 2889.90136719 1856.01367188 3129 2168 3129 c 0
 2479.98632812 3129 2739.91308594 2889.90136719 2765.91210938 2579 c 1
 4168 2579 l 1
 4168 2479 l 1
 2765.91210938 2479 l 1
 2739.91308594 2168.09863281 2479.98632812 1929 2168 1929 c 0
 1856.01367188 1929 1596.08691406 2168.09863281 1570.08789062 2479 c 1
 168 2479 l 1
 168 2579 l 1
2168 2929 m 0
 1947.0859375 2929 1768 2749.9140625 1768 2529 c 0
 1768 2308.0859375 1947.0859375 2129 2168 2129 c 0
 2388.9140625 2129 2568 2308.0859375 2568 2529 c 0
 2568 2749.9140625 2388.9140625 2929 2168 2929 c 0
2167.79199219 2729 m 2
 2167.79296875 2729 l 1
 2168.00097656 2729 l 2
 2278.45800781 2729 2368.00097656 2639.45703125 2368.00097656 2529 c 0
 2368.00097656 2418.54296875 2278.45800781 2329 2168.00097656 2329 c 0
 2057.54394531 2329 1968.00097656 2418.54296875 1968.00097656 2529 c 0
 1968.00097656 2639.375 2057.41699219 2728.88476562 2167.79199219 2729 c 2
168 1279 m 1
 1148 1279 l 1
 1148 1829 l 1
 1789.66601562 1279 l 1
 2546.33398438 1279 l 1
 3188 1829 l 1
 3188 1279 l 1
 4167.99902344 1279 l 1
 4167.99902344 1179 l 1
 3188 1179 l 1
 3188 629 l 1
 2546.33398438 1179 l 1
 1789.66601562 1179 l 1
 1148 629 l 1
 1148 1179 l 1
 168 1179 l 1
 168 1279 l 1
508 529 m 1
 1149.66601562 -21 l 1
 1448 -21 l 1
 1448 529 l 1
 2089.66601562 -21 l 1
 2246.33398438 -21 l 1
 2888 529 l 1
 2888 -21 l 1
 3186.33398438 -21 l 1
 3828 529 l 1
 3828 -21 l 1
 4168 -21 l 1
 4168 -121 l 1
 3828 -121 l 1
 3828 -671 l 1
 3186.33398438 -121 l 1
 2888 -121 l 1
 2888 -671 l 1
 2246.33398438 -121 l 1
 2089.66601562 -121 l 1
 1448 -671 l 1
 1448 -121 l 1
 1149.66601562 -121 l 1
 508 -671 l 1
 508 -121 l 1
 168 -121 l 1
 168 -21 l 1
 508 -21 l 1
 508 529 l 1
120 3277 m 1
 168 3277 l 1
 168 -819 l 1
 120 -819 l 1
 120 3277 l 1
4168 3277 m 1
 4216 3277 l 1
 4216 -819 l 1
 4168 -819 l 1
 4168 3277 l 1
EndSplineSet
Validated: 524293
EndChar

StartChar: uniE409
Encoding: 58377 58377 8
Width: 4336
Flags: HW
LayerCount: 2
Fore
SplineSet
168 2579 m 1
 1570.08789062 2579 l 1
 1596.08691406 2889.90136719 1856.01367188 3129 2168 3129 c 0
 2479.98632812 3129 2739.91308594 2889.90136719 2765.91210938 2579 c 1
 4168 2579 l 1
 4168 2479 l 1
 2765.91210938 2479 l 1
 2739.91308594 2168.09863281 2479.98632812 1929 2168 1929 c 0
 1856.01367188 1929 1596.08691406 2168.09863281 1570.08789062 2479 c 1
 168 2479 l 1
 168 2579 l 1
2168 2929 m 0
 1947.0859375 2929 1768 2749.9140625 1768 2529 c 0
 1768 2308.0859375 1947.0859375 2129 2168 2129 c 0
 2388.9140625 2129 2568 2308.0859375 2568 2529 c 0
 2568 2749.9140625 2388.9140625 2929 2168 2929 c 0
2167.79199219 2729 m 2
 2167.79296875 2729 l 1
 2168.00097656 2729 l 2
 2278.45800781 2729 2368.00097656 2639.45703125 2368.00097656 2529 c 0
 2368.00097656 2418.54296875 2278.45800781 2329 2168.00097656 2329 c 0
 2057.54394531 2329 1968.00097656 2418.54296875 1968.00097656 2529 c 0
 1968.00097656 2639.375 2057.41699219 2728.88476562 2167.79199219 2729 c 2
868 1829 m 0
 1182.11621094 1829 1440.19628906 1586.51855469 1465.91210938 1279 c 1
 1570.08789062 1279 l 1
 1595.80371094 1586.51855469 1853.88378906 1829 2168 1829 c 0
 2482.11621094 1829 2740.19628906 1586.51855469 2765.91210938 1279 c 1
 2870.08789062 1279 l 1
 2895.80371094 1586.51855469 3153.88378906 1829 3468 1829 c 0
 3782.11621094 1829 4040.19628906 1586.51855469 4065.91210938 1279 c 1
 4168 1279 l 1
 4168 1179 l 1
 4065.91210938 1179 l 1
 4040.19628906 871.481445312 3782.11523438 629.000976562 3468 629 c 0
 3153.88378906 629 2895.80371094 871.481445312 2870.08789062 1179 c 1
 2765.91210938 1179 l 1
 2740.19628906 871.481445312 2482.11523438 629.000976562 2168 629 c 0
 1853.88378906 629 1595.80371094 871.481445312 1570.08789062 1179 c 1
 1465.91210938 1179 l 1
 1440.19628906 871.481445312 1182.11523438 629.000976562 868 629 c 0
 553.883789062 629 295.803710938 871.481445312 270.087890625 1179 c 1
 168 1179 l 1
 168 1279 l 1
 270.087890625 1279 l 1
 295.803710938 1586.51855469 553.883789062 1829 868 1829 c 0
868 1629 m 0
 647.234375 1629 468 1449.765625 468 1229 c 0
 468 1008.234375 647.233398438 829 868 829 c 0
 1088.765625 829 1268 1008.234375 1268 1229 c 0
 1268 1449.76660156 1088.765625 1629 868 1629 c 0
2168 1629 m 0
 1947.23339844 1629 1768 1449.76660156 1768 1229 c 0
 1768 1008.234375 1947.23339844 829 2168 829 c 0
 2388.765625 829 2568 1008.234375 2568 1229 c 0
 2568 1449.76660156 2388.765625 1629 2168 1629 c 0
3468 1629 m 0
 3247.23339844 1629 3068 1449.76660156 3068 1229 c 0
 3068 1008.234375 3247.23339844 829 3468 829 c 0
 3688.765625 829 3868 1008.234375 3868 1229 c 0
 3868 1449.76660156 3688.765625 1629 3468 1629 c 0
867.791015625 1429 m 0
 867.826171875 1429 867.857421875 1429 867.893554688 1429 c 0
 867.928710938 1429 867.963867188 1429 868 1429 c 0
 978.3828125 1429 1068 1339.3828125 1068 1229 c 0
 1068 1118.6171875 978.3828125 1029 868 1029 c 0
 757.6171875 1029 668 1118.6171875 668 1229 c 0
 668 1339.3125 757.505859375 1428.88476562 867.791015625 1429 c 0
2167.79101562 1429 m 1
 2167.79101562 1429 l 1
 2167.82617188 1429 2167.85742188 1429 2167.89355469 1429 c 0
 2167.92871094 1429 2167.96386719 1429 2168 1429 c 0
 2278.3828125 1429 2368 1339.3828125 2368 1229 c 0
 2368 1118.6171875 2278.3828125 1029 2168 1029 c 0
 2057.6171875 1029 1968 1118.6171875 1968 1229 c 0
 1968 1339.3125 2057.50585938 1428.88476562 2167.79101562 1429 c 1
3467.79296875 1429 m 0
 3467.828125 1429 3467.859375 1429 3467.89550781 1429 c 0
 3467.93066406 1429 3467.96582031 1429 3468.00195312 1429 c 0
 3578.38476562 1429 3668.00195312 1339.3828125 3668.00195312 1229 c 0
 3668.00195312 1118.6171875 3578.38476562 1029 3468.00195312 1029 c 0
 3357.61914062 1029 3268.00195312 1118.6171875 3268.00195312 1229 c 0
 3268.00195312 1339.3125 3357.5078125 1428.88476562 3467.79296875 1429 c 0
168 -21 m 1
 1570.08789062 -21 l 1
 1596.08691406 289.901367188 1856.01367188 529 2168 529 c 0
 2479.98632812 529 2739.91308594 289.901367188 2765.91210938 -21 c 1
 4168 -21 l 1
 4168 -121 l 1
 2765.91210938 -121 l 1
 2739.91308594 -431.901367188 2479.98632812 -671 2168 -671 c 0
 1856.01367188 -671 1596.08691406 -431.901367188 1570.08789062 -121 c 1
 168 -121 l 1
 168 -21 l 1
2168 329 m 0
 1947.0859375 329 1768 149.9140625 1768 -71 c 0
 1768 -291.9140625 1947.0859375 -471 2168 -471 c 0
 2388.9140625 -471 2568 -291.9140625 2568 -71 c 0
 2568 149.9140625 2388.9140625 329 2168 329 c 0
2167.79199219 129 m 2
 2167.79296875 129 l 1
 2168.00097656 129 l 2
 2278.45800781 129 2368.00097656 39.45703125 2368.00097656 -71 c 0
 2368.00097656 -181.45703125 2278.45800781 -271 2168.00097656 -271 c 0
 2057.54394531 -271 1968.00097656 -181.45703125 1968.00097656 -71 c 0
 1968.00097656 39.3759765625 2057.41699219 128.884765625 2167.79199219 129 c 2
120 3277 m 1
 168 3277 l 1
 168 -819 l 1
 120 -819 l 1
 120 3277 l 1
4168 3277 m 1
 4216 3277 l 1
 4216 -819 l 1
 4168 -819 l 1
 4168 3277 l 1
EndSplineSet
Validated: 524293
EndChar

StartChar: uniE40A
Encoding: 58378 58378 9
Width: 4336
Flags: HW
LayerCount: 2
Fore
SplineSet
168 2579 m 1
 1570.08789062 2579 l 1
 1596.08691406 2889.90136719 1856.01367188 3129 2168 3129 c 0
 2479.98632812 3129 2739.91308594 2889.90136719 2765.91210938 2579 c 1
 4168 2579 l 1
 4168 2479 l 1
 2765.91210938 2479 l 1
 2739.91308594 2168.09863281 2479.98632812 1929 2168 1929 c 0
 1856.01367188 1929 1596.08691406 2168.09863281 1570.08789062 2479 c 1
 168 2479 l 1
 168 2579 l 1
2168 2929 m 0
 1947.0859375 2929 1768 2749.9140625 1768 2529 c 0
 1768 2308.0859375 1947.0859375 2129 2168 2129 c 0
 2388.9140625 2129 2568 2308.0859375 2568 2529 c 0
 2568 2749.9140625 2388.9140625 2929 2168 2929 c 0
2167.79199219 2729 m 2
 2167.79296875 2729 l 1
 2168.00097656 2729 l 2
 2278.45800781 2729 2368.00097656 2639.45703125 2368.00097656 2529 c 0
 2368.00097656 2418.54296875 2278.45800781 2329 2168.00097656 2329 c 0
 2057.54394531 2329 1968.00097656 2418.54296875 1968.00097656 2529 c 0
 1968.00097656 2639.375 2057.41699219 2728.88476562 2167.79199219 2729 c 2
868 1829 m 0
 1182.11621094 1829 1440.19628906 1586.51855469 1465.91210938 1279 c 1
 1570.08789062 1279 l 1
 1595.80371094 1586.51855469 1853.88378906 1829 2168 1829 c 0
 2482.11621094 1829 2740.19628906 1586.51855469 2765.91210938 1279 c 1
 2870.08789062 1279 l 1
 2895.80371094 1586.51855469 3153.88378906 1829 3468 1829 c 0
 3782.11621094 1829 4040.19628906 1586.51855469 4065.91210938 1279 c 1
 4168 1279 l 1
 4168 1179 l 1
 4065.91210938 1179 l 1
 4040.19628906 871.481445312 3782.11523438 629.000976562 3468 629 c 0
 3153.88378906 629 2895.80371094 871.481445312 2870.08789062 1179 c 1
 2765.91210938 1179 l 1
 2740.19628906 871.481445312 2482.11523438 629.000976562 2168 629 c 0
 1853.88378906 629 1595.80371094 871.481445312 1570.08789062 1179 c 1
 1465.91210938 1179 l 1
 1440.19628906 871.481445312 1182.11523438 629.000976562 868 629 c 0
 553.883789062 629 295.803710938 871.481445312 270.087890625 1179 c 1
 168 1179 l 1
 168 1279 l 1
 270.087890625 1279 l 1
 295.803710938 1586.51855469 553.883789062 1829 868 1829 c 0
868 1629 m 0
 647.234375 1629 468 1449.765625 468 1229 c 0
 468 1008.234375 647.233398438 829 868 829 c 0
 1088.765625 829 1268 1008.234375 1268 1229 c 0
 1268 1449.76660156 1088.765625 1629 868 1629 c 0
2168 1629 m 0
 1947.23339844 1629 1768 1449.76660156 1768 1229 c 0
 1768 1008.234375 1947.23339844 829 2168 829 c 0
 2388.765625 829 2568 1008.234375 2568 1229 c 0
 2568 1449.76660156 2388.765625 1629 2168 1629 c 0
3468 1629 m 0
 3247.23339844 1629 3068 1449.76660156 3068 1229 c 0
 3068 1008.234375 3247.23339844 829 3468 829 c 0
 3688.765625 829 3868 1008.234375 3868 1229 c 0
 3868 1449.76660156 3688.765625 1629 3468 1629 c 0
867.791015625 1429 m 0
 867.826171875 1429 867.857421875 1429 867.893554688 1429 c 0
 867.928710938 1429 867.963867188 1429 868 1429 c 0
 978.3828125 1429 1068 1339.3828125 1068 1229 c 0
 1068 1118.6171875 978.3828125 1029 868 1029 c 0
 757.6171875 1029 668 1118.6171875 668 1229 c 0
 668 1339.3125 757.505859375 1428.88476562 867.791015625 1429 c 0
2167.79101562 1429 m 1
 2167.79101562 1429 l 1
 2167.82617188 1429 2167.85742188 1429 2167.89355469 1429 c 0
 2167.92871094 1429 2167.96386719 1429 2168 1429 c 0
 2278.3828125 1429 2368 1339.3828125 2368 1229 c 0
 2368 1118.6171875 2278.3828125 1029 2168 1029 c 0
 2057.6171875 1029 1968 1118.6171875 1968 1229 c 0
 1968 1339.3125 2057.50585938 1428.88476562 2167.79101562 1429 c 1
3467.79296875 1429 m 0
 3467.828125 1429 3467.859375 1429 3467.89550781 1429 c 0
 3467.93066406 1429 3467.96582031 1429 3468.00195312 1429 c 0
 3578.38476562 1429 3668.00195312 1339.3828125 3668.00195312 1229 c 0
 3668.00195312 1118.6171875 3578.38476562 1029 3468.00195312 1029 c 0
 3357.61914062 1029 3268.00195312 1118.6171875 3268.00195312 1229 c 0
 3268.00195312 1339.3125 3357.5078125 1428.88476562 3467.79296875 1429 c 0
168 -21 m 1
 1148 -21 l 1
 1148 529 l 1
 1789.66601562 -21 l 1
 2546.33398438 -21 l 1
 3188 529 l 1
 3188 -21 l 1
 4167.99902344 -21 l 1
 4167.99902344 -121 l 1
 3188 -121 l 1
 3188 -671 l 1
 2546.33398438 -121 l 1
 1789.66601562 -121 l 1
 1148 -671 l 1
 1148 -121 l 1
 168 -121 l 1
 168 -21 l 1
120 -819 m 1
 120 3277 l 1
 168 3277 l 1
 168 -819 l 1
 120 -819 l 1
4168 -819 m 1
 4168 3277 l 1
 4216 3277 l 1
 4216 -819 l 1
 4168 -819 l 1
EndSplineSet
Validated: 524293
EndChar

StartChar: uniE40B
Encoding: 58379 58379 10
Width: 4336
Flags: HW
LayerCount: 2
Fore
SplineSet
168 2579 m 1
 1570.08789062 2579 l 1
 1596.08691406 2889.90136719 1856.01367188 3129 2168 3129 c 0
 2479.98632812 3129 2739.91308594 2889.90136719 2765.91210938 2579 c 1
 4168 2579 l 1
 4168 2479 l 1
 2765.91210938 2479 l 1
 2739.91308594 2168.09863281 2479.98632812 1929 2168 1929 c 0
 1856.01367188 1929 1596.08691406 2168.09863281 1570.08789062 2479 c 1
 168 2479 l 1
 168 2579 l 1
2168 2929 m 0
 1947.0859375 2929 1768 2749.9140625 1768 2529 c 0
 1768 2308.0859375 1947.0859375 2129 2168 2129 c 0
 2388.9140625 2129 2568 2308.0859375 2568 2529 c 0
 2568 2749.9140625 2388.9140625 2929 2168 2929 c 0
2167.79199219 2729 m 2
 2167.79296875 2729 l 1
 2168.00097656 2729 l 2
 2278.45800781 2729 2368.00097656 2639.45703125 2368.00097656 2529 c 0
 2368.00097656 2418.54296875 2278.45800781 2329 2168.00097656 2329 c 0
 2057.54394531 2329 1968.00097656 2418.54296875 1968.00097656 2529 c 0
 1968.00097656 2639.375 2057.41699219 2728.88476562 2167.79199219 2729 c 2
868 1829 m 0
 1182.11621094 1829 1440.19628906 1586.51855469 1465.91210938 1279 c 1
 1570.08789062 1279 l 1
 1595.80371094 1586.51855469 1853.88378906 1829 2168 1829 c 0
 2482.11621094 1829 2740.19628906 1586.51855469 2765.91210938 1279 c 1
 2870.08789062 1279 l 1
 2895.80371094 1586.51855469 3153.88378906 1829 3468 1829 c 0
 3782.11621094 1829 4040.19628906 1586.51855469 4065.91210938 1279 c 1
 4168 1279 l 1
 4168 1179 l 1
 4065.91210938 1179 l 1
 4040.19628906 871.481445312 3782.11523438 629.000976562 3468 629 c 0
 3153.88378906 629 2895.80371094 871.481445312 2870.08789062 1179 c 1
 2765.91210938 1179 l 1
 2740.19628906 871.481445312 2482.11523438 629.000976562 2168 629 c 0
 1853.88378906 629 1595.80371094 871.481445312 1570.08789062 1179 c 1
 1465.91210938 1179 l 1
 1440.19628906 871.481445312 1182.11523438 629.000976562 868 629 c 0
 553.883789062 629 295.803710938 871.481445312 270.087890625 1179 c 1
 168 1179 l 1
 168 1279 l 1
 270.087890625 1279 l 1
 295.803710938 1586.51855469 553.883789062 1829 868 1829 c 0
868 1629 m 0
 647.234375 1629 468 1449.765625 468 1229 c 0
 468 1008.234375 647.233398438 829 868 829 c 0
 1088.765625 829 1268 1008.234375 1268 1229 c 0
 1268 1449.76660156 1088.765625 1629 868 1629 c 0
2168 1629 m 0
 1947.23339844 1629 1768 1449.76660156 1768 1229 c 0
 1768 1008.234375 1947.23339844 829 2168 829 c 0
 2388.765625 829 2568 1008.234375 2568 1229 c 0
 2568 1449.76660156 2388.765625 1629 2168 1629 c 0
3468 1629 m 0
 3247.23339844 1629 3068 1449.76660156 3068 1229 c 0
 3068 1008.234375 3247.23339844 829 3468 829 c 0
 3688.765625 829 3868 1008.234375 3868 1229 c 0
 3868 1449.76660156 3688.765625 1629 3468 1629 c 0
867.791015625 1429 m 0
 867.826171875 1429 867.857421875 1429 867.893554688 1429 c 0
 867.928710938 1429 867.963867188 1429 868 1429 c 0
 978.3828125 1429 1068 1339.3828125 1068 1229 c 0
 1068 1118.6171875 978.3828125 1029 868 1029 c 0
 757.6171875 1029 668 1118.6171875 668 1229 c 0
 668 1339.3125 757.505859375 1428.88476562 867.791015625 1429 c 0
2167.79101562 1429 m 1
 2167.79101562 1429 l 1
 2167.82617188 1429 2167.85742188 1429 2167.89355469 1429 c 0
 2167.92871094 1429 2167.96386719 1429 2168 1429 c 0
 2278.3828125 1429 2368 1339.3828125 2368 1229 c 0
 2368 1118.6171875 2278.3828125 1029 2168 1029 c 0
 2057.6171875 1029 1968 1118.6171875 1968 1229 c 0
 1968 1339.3125 2057.50585938 1428.88476562 2167.79101562 1429 c 1
3467.79296875 1429 m 0
 3467.828125 1429 3467.859375 1429 3467.89550781 1429 c 0
 3467.93066406 1429 3467.96582031 1429 3468.00195312 1429 c 0
 3578.38476562 1429 3668.00195312 1339.3828125 3668.00195312 1229 c 0
 3668.00195312 1118.6171875 3578.38476562 1029 3468.00195312 1029 c 0
 3357.61914062 1029 3268.00195312 1118.6171875 3268.00195312 1229 c 0
 3268.00195312 1339.3125 3357.5078125 1428.88476562 3467.79296875 1429 c 0
868 529 m 0
 1182.11621094 529 1440.19628906 286.518554688 1465.91210938 -21 c 1
 1570.08789062 -21 l 1
 1595.80371094 286.518554688 1853.88378906 529 2168 529 c 0
 2482.11621094 529 2740.19628906 286.518554688 2765.91210938 -21 c 1
 2870.08789062 -21 l 1
 2895.80371094 286.518554688 3153.88378906 529 3468 529 c 0
 3782.11621094 529 4040.19628906 286.518554688 4065.91210938 -21 c 1
 4168 -21 l 1
 4168 -121 l 1
 4065.91210938 -121 l 1
 4040.19628906 -428.518554688 3782.11523438 -670.999023438 3468 -671 c 0
 3153.88378906 -671 2895.80371094 -428.518554688 2870.08789062 -121 c 1
 2765.91210938 -121 l 1
 2740.19628906 -428.518554688 2482.11523438 -670.999023438 2168 -671 c 0
 1853.88378906 -670.999023438 1595.80371094 -428.518554688 1570.08789062 -121 c 1
 1465.91210938 -121 l 1
 1440.19628906 -428.518554688 1182.11523438 -670.999023438 868 -671 c 0
 553.883789062 -671 295.803710938 -428.518554688 270.087890625 -121 c 1
 168 -121 l 1
 168 -21 l 1
 270.087890625 -21 l 1
 295.803710938 286.518554688 553.883789062 529 868 529 c 0
868 329 m 0
 647.234375 329 468 149.766601562 468 -71 c 0
 468 -291.765625 647.233398438 -471 868 -471 c 0
 1088.765625 -471 1268 -291.765625 1268 -71 c 0
 1268 149.766601562 1088.765625 329 868 329 c 0
2168 329 m 0
 1947.23339844 329 1768 149.766601562 1768 -71 c 0
 1768 -291.765625 1947.23339844 -471 2168 -471 c 0
 2388.765625 -471 2568 -291.765625 2568 -71 c 0
 2568 149.766601562 2388.765625 329 2168 329 c 0
3468 329 m 0
 3247.23339844 329 3068 149.766601562 3068 -71 c 0
 3068 -291.765625 3247.23339844 -471 3468 -471 c 0
 3688.765625 -471 3868 -291.765625 3868 -71 c 0
 3868 149.766601562 3688.765625 329 3468 329 c 0
867.791015625 129 m 0
 867.826171875 129 867.857421875 129 867.893554688 129 c 0
 867.928710938 129 867.963867188 129 868 129 c 0
 978.3828125 129 1068 39.3828125 1068 -71 c 0
 1068 -181.3828125 978.3828125 -271 868 -271 c 0
 757.6171875 -271 668 -181.3828125 668 -71 c 0
 668 39.3125 757.505859375 128.884765625 867.791015625 129 c 0
2167.79101562 129 m 2
 2167.79199219 129 l 2
 2167.82714844 129 2167.85839844 129 2167.89355469 129 c 0
 2167.92871094 129 2167.96484375 129 2168 129 c 0
 2278.3828125 129 2368 39.3828125 2368 -71 c 0
 2368 -181.3828125 2278.3828125 -271 2168 -271 c 0
 2057.6171875 -271 1968 -181.3828125 1968 -71 c 0
 1968 39.3125 2057.50585938 128.884765625 2167.79101562 129 c 2
3467.79296875 129 m 2
 3467.79394531 129 l 2
 3467.82910156 129 3467.86035156 129 3467.89550781 129 c 0
 3467.93066406 129 3467.96679688 129 3468.00195312 129 c 0
 3578.38476562 129 3668.00195312 39.3828125 3668.00195312 -71 c 0
 3668.00195312 -181.3828125 3578.38476562 -271 3468.00195312 -271 c 0
 3357.61914062 -271 3268.00195312 -181.3828125 3268.00195312 -71 c 0
 3268.00195312 39.3125 3357.5078125 128.884765625 3467.79296875 129 c 2
120 3277 m 1
 168 3277 l 1
 168 -819 l 1
 120 -819 l 1
 120 3277 l 1
4168 3277 m 1
 4216 3277 l 1
 4216 -819 l 1
 4168 -819 l 1
 4168 3277 l 1
EndSplineSet
Validated: 524293
EndChar

StartChar: uniE40C
Encoding: 58380 58380 11
Width: 4336
Flags: HW
LayerCount: 2
Fore
SplineSet
168 2579 m 1
 1570.08789062 2579 l 1
 1596.08691406 2889.90136719 1856.01367188 3129 2168 3129 c 0
 2479.98632812 3129 2739.91308594 2889.90136719 2765.91210938 2579 c 1
 4168 2579 l 1
 4168 2479 l 1
 2765.91210938 2479 l 1
 2739.91308594 2168.09863281 2479.98632812 1929 2168 1929 c 0
 1856.01367188 1929 1596.08691406 2168.09863281 1570.08789062 2479 c 1
 168 2479 l 1
 168 2579 l 1
2168 2929 m 0
 1947.0859375 2929 1768 2749.9140625 1768 2529 c 0
 1768 2308.0859375 1947.0859375 2129 2168 2129 c 0
 2388.9140625 2129 2568 2308.0859375 2568 2529 c 0
 2568 2749.9140625 2388.9140625 2929 2168 2929 c 0
2167.79199219 2729 m 2
 2167.79296875 2729 l 1
 2168.00097656 2729 l 2
 2278.45800781 2729 2368.00097656 2639.45703125 2368.00097656 2529 c 0
 2368.00097656 2418.54296875 2278.45800781 2329 2168.00097656 2329 c 0
 2057.54394531 2329 1968.00097656 2418.54296875 1968.00097656 2529 c 0
 1968.00097656 2639.375 2057.41699219 2728.88476562 2167.79199219 2729 c 2
868 1829 m 0
 1182.11621094 1829 1440.19628906 1586.51855469 1465.91210938 1279 c 1
 1570.08789062 1279 l 1
 1595.80371094 1586.51855469 1853.88378906 1829 2168 1829 c 0
 2482.11621094 1829 2740.19628906 1586.51855469 2765.91210938 1279 c 1
 2870.08789062 1279 l 1
 2895.80371094 1586.51855469 3153.88378906 1829 3468 1829 c 0
 3782.11621094 1829 4040.19628906 1586.51855469 4065.91210938 1279 c 1
 4168 1279 l 1
 4168 1179 l 1
 4065.91210938 1179 l 1
 4040.19628906 871.481445312 3782.11523438 629.000976562 3468 629 c 0
 3153.88378906 629 2895.80371094 871.481445312 2870.08789062 1179 c 1
 2765.91210938 1179 l 1
 2740.19628906 871.481445312 2482.11523438 629.000976562 2168 629 c 0
 1853.88378906 629 1595.80371094 871.481445312 1570.08789062 1179 c 1
 1465.91210938 1179 l 1
 1440.19628906 871.481445312 1182.11523438 629.000976562 868 629 c 0
 553.883789062 629 295.803710938 871.481445312 270.087890625 1179 c 1
 168 1179 l 1
 168 1279 l 1
 270.087890625 1279 l 1
 295.803710938 1586.51855469 553.883789062 1829 868 1829 c 0
868 1629 m 0
 647.234375 1629 468 1449.765625 468 1229 c 0
 468 1008.234375 647.233398438 829 868 829 c 0
 1088.765625 829 1268 1008.234375 1268 1229 c 0
 1268 1449.76660156 1088.765625 1629 868 1629 c 0
2168 1629 m 0
 1947.23339844 1629 1768 1449.76660156 1768 1229 c 0
 1768 1008.234375 1947.23339844 829 2168 829 c 0
 2388.765625 829 2568 1008.234375 2568 1229 c 0
 2568 1449.76660156 2388.765625 1629 2168 1629 c 0
3468 1629 m 0
 3247.23339844 1629 3068 1449.76660156 3068 1229 c 0
 3068 1008.234375 3247.23339844 829 3468 829 c 0
 3688.765625 829 3868 1008.234375 3868 1229 c 0
 3868 1449.76660156 3688.765625 1629 3468 1629 c 0
867.791015625 1429 m 0
 867.826171875 1429 867.857421875 1429 867.893554688 1429 c 0
 867.928710938 1429 867.963867188 1429 868 1429 c 0
 978.3828125 1429 1068 1339.3828125 1068 1229 c 0
 1068 1118.6171875 978.3828125 1029 868 1029 c 0
 757.6171875 1029 668 1118.6171875 668 1229 c 0
 668 1339.3125 757.505859375 1428.88476562 867.791015625 1429 c 0
2167.79101562 1429 m 1
 2167.79101562 1429 l 1
 2167.82617188 1429 2167.85742188 1429 2167.89355469 1429 c 0
 2167.92871094 1429 2167.96386719 1429 2168 1429 c 0
 2278.3828125 1429 2368 1339.3828125 2368 1229 c 0
 2368 1118.6171875 2278.3828125 1029 2168 1029 c 0
 2057.6171875 1029 1968 1118.6171875 1968 1229 c 0
 1968 1339.3125 2057.50585938 1428.88476562 2167.79101562 1429 c 1
3467.79296875 1429 m 0
 3467.828125 1429 3467.859375 1429 3467.89550781 1429 c 0
 3467.93066406 1429 3467.96582031 1429 3468.00195312 1429 c 0
 3578.38476562 1429 3668.00195312 1339.3828125 3668.00195312 1229 c 0
 3668.00195312 1118.6171875 3578.38476562 1029 3468.00195312 1029 c 0
 3357.61914062 1029 3268.00195312 1118.6171875 3268.00195312 1229 c 0
 3268.00195312 1339.3125 3357.5078125 1428.88476562 3467.79296875 1429 c 0
508 529 m 1
 1149.66601562 -21 l 1
 1448 -21 l 1
 1448 529 l 1
 2089.66601562 -21 l 1
 2246.33398438 -21 l 1
 2888 529 l 1
 2888 -21 l 1
 3186.33398438 -21 l 1
 3828 529 l 1
 3828 -21 l 1
 4168 -21 l 1
 4168 -121 l 1
 3828 -121 l 1
 3828 -671 l 1
 3186.33398438 -121 l 1
 2888 -121 l 1
 2888 -671 l 1
 2246.33398438 -121 l 1
 2089.66601562 -121 l 1
 1448 -671 l 1
 1448 -121 l 1
 1149.66601562 -121 l 1
 508 -671 l 1
 508 -121 l 1
 168 -121 l 1
 168 -21 l 1
 508 -21 l 1
 508 529 l 1
120 3277 m 1
 168 3277 l 1
 168 -819 l 1
 120 -819 l 1
 120 3277 l 1
4168 3277 m 1
 4216 3277 l 1
 4216 -819 l 1
 4168 -819 l 1
 4168 3277 l 1
EndSplineSet
Validated: 524293
EndChar

StartChar: uniE40D
Encoding: 58381 58381 12
Width: 4336
Flags: HW
LayerCount: 2
Fore
SplineSet
168 2579 m 1
 1570.08789062 2579 l 1
 1596.08691406 2889.90136719 1856.01367188 3129 2168 3129 c 0
 2479.98632812 3129 2739.91308594 2889.90136719 2765.91210938 2579 c 1
 4168 2579 l 1
 4168 2479 l 1
 2765.91210938 2479 l 1
 2739.91308594 2168.09863281 2479.98632812 1929 2168 1929 c 0
 1856.01367188 1929 1596.08691406 2168.09863281 1570.08789062 2479 c 1
 168 2479 l 1
 168 2579 l 1
2168 2929 m 0
 1947.0859375 2929 1768 2749.9140625 1768 2529 c 0
 1768 2308.0859375 1947.0859375 2129 2168 2129 c 0
 2388.9140625 2129 2568 2308.0859375 2568 2529 c 0
 2568 2749.9140625 2388.9140625 2929 2168 2929 c 0
2167.79199219 2729 m 2
 2167.79296875 2729 l 1
 2168.00097656 2729 l 2
 2278.45800781 2729 2368.00097656 2639.45703125 2368.00097656 2529 c 0
 2368.00097656 2418.54296875 2278.45800781 2329 2168.00097656 2329 c 0
 2057.54394531 2329 1968.00097656 2418.54296875 1968.00097656 2529 c 0
 1968.00097656 2639.375 2057.41699219 2728.88476562 2167.79199219 2729 c 2
508 1829 m 1
 1149.66601562 1279 l 1
 1448 1279 l 1
 1448 1829 l 1
 2089.66601562 1279 l 1
 2246.33398438 1279 l 1
 2888 1829 l 1
 2888 1279 l 1
 3186.33398438 1279 l 1
 3828 1829 l 1
 3828 1279 l 1
 4168 1279 l 1
 4168 1179 l 1
 3828 1179 l 1
 3828 629 l 1
 3186.33398438 1179 l 1
 2888 1179 l 1
 2888 629 l 1
 2246.33398438 1179 l 1
 2089.66601562 1179 l 1
 1448 629 l 1
 1448 1179 l 1
 1149.66601562 1179 l 1
 508 629 l 1
 508 1179 l 1
 168 1179 l 1
 168 1279 l 1
 508 1279 l 1
 508 1829 l 1
168 -21 m 1
 1570.08789062 -21 l 1
 1596.08691406 289.901367188 1856.01367188 529 2168 529 c 0
 2479.98632812 529 2739.91308594 289.901367188 2765.91210938 -21 c 1
 4168 -21 l 1
 4168 -121 l 1
 2765.91210938 -121 l 1
 2739.91308594 -431.901367188 2479.98632812 -671 2168 -671 c 0
 1856.01367188 -671 1596.08691406 -431.901367188 1570.08789062 -121 c 1
 168 -121 l 1
 168 -21 l 1
2168 329 m 0
 1947.0859375 329 1768 149.9140625 1768 -71 c 0
 1768 -291.9140625 1947.0859375 -471 2168 -471 c 0
 2388.9140625 -471 2568 -291.9140625 2568 -71 c 0
 2568 149.9140625 2388.9140625 329 2168 329 c 0
2167.79199219 129 m 2
 2167.79296875 129 l 1
 2168.00097656 129 l 2
 2278.45800781 129 2368.00097656 39.45703125 2368.00097656 -71 c 0
 2368.00097656 -181.45703125 2278.45800781 -271 2168.00097656 -271 c 0
 2057.54394531 -271 1968.00097656 -181.45703125 1968.00097656 -71 c 0
 1968.00097656 39.3759765625 2057.41699219 128.884765625 2167.79199219 129 c 2
120 3277 m 1
 168 3277 l 1
 168 -819 l 1
 120 -819 l 1
 120 3277 l 1
4168 3277 m 1
 4216 3277 l 1
 4216 -819 l 1
 4168 -819 l 1
 4168 3277 l 1
EndSplineSet
Validated: 524293
EndChar

StartChar: uniE40E
Encoding: 58382 58382 13
Width: 4336
Flags: HW
LayerCount: 2
Fore
SplineSet
168 2579 m 1
 1570.08789062 2579 l 1
 1596.08691406 2889.90136719 1856.01367188 3129 2168 3129 c 0
 2479.98632812 3129 2739.91308594 2889.90136719 2765.91210938 2579 c 1
 4168 2579 l 1
 4168 2479 l 1
 2765.91210938 2479 l 1
 2739.91308594 2168.09863281 2479.98632812 1929 2168 1929 c 0
 1856.01367188 1929 1596.08691406 2168.09863281 1570.08789062 2479 c 1
 168 2479 l 1
 168 2579 l 1
2168 2929 m 0
 1947.0859375 2929 1768 2749.9140625 1768 2529 c 0
 1768 2308.0859375 1947.0859375 2129 2168 2129 c 0
 2388.9140625 2129 2568 2308.0859375 2568 2529 c 0
 2568 2749.9140625 2388.9140625 2929 2168 2929 c 0
2167.79199219 2729 m 2
 2167.79296875 2729 l 1
 2168.00097656 2729 l 2
 2278.45800781 2729 2368.00097656 2639.45703125 2368.00097656 2529 c 0
 2368.00097656 2418.54296875 2278.45800781 2329 2168.00097656 2329 c 0
 2057.54394531 2329 1968.00097656 2418.54296875 1968.00097656 2529 c 0
 1968.00097656 2639.375 2057.41699219 2728.88476562 2167.79199219 2729 c 2
508 1829 m 1
 1149.66601562 1279 l 1
 1448 1279 l 1
 1448 1829 l 1
 2089.66601562 1279 l 1
 2246.33398438 1279 l 1
 2888 1829 l 1
 2888 1279 l 1
 3186.33398438 1279 l 1
 3828 1829 l 1
 3828 1279 l 1
 4168 1279 l 1
 4168 1179 l 1
 3828 1179 l 1
 3828 629 l 1
 3186.33398438 1179 l 1
 2888 1179 l 1
 2888 629 l 1
 2246.33398438 1179 l 1
 2089.66601562 1179 l 1
 1448 629 l 1
 1448 1179 l 1
 1149.66601562 1179 l 1
 508 629 l 1
 508 1179 l 1
 168 1179 l 1
 168 1279 l 1
 508 1279 l 1
 508 1829 l 1
168 -21 m 1
 1148 -21 l 1
 1148 529 l 1
 1789.66601562 -21 l 1
 2546.33398438 -21 l 1
 3188 529 l 1
 3188 -21 l 1
 4167.99902344 -21 l 1
 4167.99902344 -121 l 1
 3188 -121 l 1
 3188 -671 l 1
 2546.33398438 -121 l 1
 1789.66601562 -121 l 1
 1148 -671 l 1
 1148 -121 l 1
 168 -121 l 1
 168 -21 l 1
120 3277 m 1
 168 3277 l 1
 168 -819 l 1
 120 -819 l 1
 120 3277 l 1
4168 3277 m 1
 4216 3277 l 1
 4216 -819 l 1
 4168 -819 l 1
 4168 3277 l 1
EndSplineSet
Validated: 524293
EndChar

StartChar: uniE40F
Encoding: 58383 58383 14
Width: 4336
Flags: HW
LayerCount: 2
Fore
SplineSet
168 2579 m 1
 1570.08789062 2579 l 1
 1596.08691406 2889.90136719 1856.01367188 3129 2168 3129 c 0
 2479.98632812 3129 2739.91308594 2889.90136719 2765.91210938 2579 c 1
 4168 2579 l 1
 4168 2479 l 1
 2765.91210938 2479 l 1
 2739.91308594 2168.09863281 2479.98632812 1929 2168 1929 c 0
 1856.01367188 1929 1596.08691406 2168.09863281 1570.08789062 2479 c 1
 168 2479 l 1
 168 2579 l 1
2168 2929 m 0
 1947.0859375 2929 1768 2749.9140625 1768 2529 c 0
 1768 2308.0859375 1947.0859375 2129 2168 2129 c 0
 2388.9140625 2129 2568 2308.0859375 2568 2529 c 0
 2568 2749.9140625 2388.9140625 2929 2168 2929 c 0
2167.79199219 2729 m 2
 2167.79296875 2729 l 1
 2168.00097656 2729 l 2
 2278.45800781 2729 2368.00097656 2639.45703125 2368.00097656 2529 c 0
 2368.00097656 2418.54296875 2278.45800781 2329 2168.00097656 2329 c 0
 2057.54394531 2329 1968.00097656 2418.54296875 1968.00097656 2529 c 0
 1968.00097656 2639.375 2057.41699219 2728.88476562 2167.79199219 2729 c 2
508 1829 m 1
 1149.66601562 1279 l 1
 1448 1279 l 1
 1448 1829 l 1
 2089.66601562 1279 l 1
 2246.33398438 1279 l 1
 2888 1829 l 1
 2888 1279 l 1
 3186.33398438 1279 l 1
 3828 1829 l 1
 3828 1279 l 1
 4168 1279 l 1
 4168 1179 l 1
 3828 1179 l 1
 3828 629 l 1
 3186.33398438 1179 l 1
 2888 1179 l 1
 2888 629 l 1
 2246.33398438 1179 l 1
 2089.66601562 1179 l 1
 1448 629 l 1
 1448 1179 l 1
 1149.66601562 1179 l 1
 508 629 l 1
 508 1179 l 1
 168 1179 l 1
 168 1279 l 1
 508 1279 l 1
 508 1829 l 1
868 529 m 0
 1182.11621094 529 1440.19628906 286.518554688 1465.91210938 -21 c 1
 1570.08789062 -21 l 1
 1595.80371094 286.518554688 1853.88378906 529 2168 529 c 0
 2482.11621094 529 2740.19628906 286.518554688 2765.91210938 -21 c 1
 2870.08789062 -21 l 1
 2895.80371094 286.518554688 3153.88378906 529 3468 529 c 0
 3782.11621094 529 4040.19628906 286.518554688 4065.91210938 -21 c 1
 4168 -21 l 1
 4168 -121 l 1
 4065.91210938 -121 l 1
 4040.19628906 -428.518554688 3782.11523438 -670.999023438 3468 -671 c 0
 3153.88378906 -671 2895.80371094 -428.518554688 2870.08789062 -121 c 1
 2765.91210938 -121 l 1
 2740.19628906 -428.518554688 2482.11523438 -670.999023438 2168 -671 c 0
 1853.88378906 -670.999023438 1595.80371094 -428.518554688 1570.08789062 -121 c 1
 1465.91210938 -121 l 1
 1440.19628906 -428.518554688 1182.11621094 -670.999023438 868 -671 c 0
 553.883789062 -671 295.803710938 -428.518554688 270.087890625 -121 c 1
 168 -121 l 1
 168 -21 l 1
 270.087890625 -21 l 1
 295.803710938 286.518554688 553.883789062 529 868 529 c 0
868 329 m 0
 647.234375 329 468 149.766601562 468 -71 c 0
 468 -291.765625 647.234375 -471 868 -471 c 0
 1088.765625 -471 1268 -291.765625 1268 -71 c 0
 1268 149.766601562 1088.765625 329 868 329 c 0
2168 329 m 0
 1947.23339844 329 1768 149.766601562 1768 -71 c 0
 1768 -291.765625 1947.23339844 -471 2168 -471 c 0
 2388.765625 -471 2568 -291.765625 2568 -71 c 0
 2568 149.766601562 2388.765625 329 2168 329 c 0
3468 329 m 0
 3247.234375 329 3068 149.766601562 3068 -71 c 0
 3068 -291.765625 3247.23339844 -471 3468 -471 c 0
 3688.765625 -471 3868 -291.765625 3868 -71 c 0
 3868 149.766601562 3688.765625 329 3468 329 c 0
867.791015625 129 m 0
 867.826171875 129 867.857421875 129 867.893554688 129 c 0
 867.928710938 129 867.96484375 129 868 129 c 0
 978.3828125 129 1068 39.3828125 1068 -71 c 0
 1068 -181.3828125 978.3828125 -271 868 -271 c 0
 757.6171875 -271 668 -181.3828125 668 -71 c 0
 668 39.3125 757.505859375 128.884765625 867.791015625 129 c 0
2167.79101562 129 m 2
 2167.79199219 129 l 2
 2167.82714844 129 2167.85839844 129 2167.89355469 129 c 0
 2167.92871094 129 2167.96484375 129 2168 129 c 0
 2278.3828125 129 2368 39.3828125 2368 -71 c 0
 2368 -181.3828125 2278.3828125 -271 2168 -271 c 0
 2057.6171875 -271 1968 -181.3828125 1968 -71 c 0
 1968 39.3125 2057.50585938 128.884765625 2167.79101562 129 c 2
3467.79296875 129 m 2
 3467.79394531 129 l 2
 3467.82910156 129 3467.86035156 129 3467.89550781 129 c 0
 3467.93066406 129 3467.96679688 129 3468.00195312 129 c 0
 3578.38476562 129 3668.00195312 39.3828125 3668.00195312 -71 c 0
 3668.00195312 -181.3828125 3578.38476562 -271 3468.00195312 -271 c 0
 3357.61914062 -271 3268.00195312 -181.3828125 3268.00195312 -71 c 0
 3268.00195312 39.3125 3357.5078125 128.884765625 3467.79296875 129 c 2
120 3277 m 1
 168 3277 l 1
 168 -819 l 1
 120 -819 l 1
 120 3277 l 1
4168 3277 m 1
 4216 3277 l 1
 4216 -819 l 1
 4168 -819 l 1
 4168 3277 l 1
EndSplineSet
Validated: 524293
EndChar

StartChar: uniE410
Encoding: 58384 58384 15
Width: 4336
Flags: HW
LayerCount: 2
Fore
SplineSet
168 2579 m 1
 1570.08789062 2579 l 1
 1596.08691406 2889.90136719 1856.01367188 3129 2168 3129 c 0
 2479.98632812 3129 2739.91308594 2889.90136719 2765.91210938 2579 c 1
 4168 2579 l 1
 4168 2479 l 1
 2765.91210938 2479 l 1
 2739.91308594 2168.09863281 2479.98632812 1929 2168 1929 c 0
 1856.01367188 1929 1596.08691406 2168.09863281 1570.08789062 2479 c 1
 168 2479 l 1
 168 2579 l 1
2168 2929 m 0
 1947.0859375 2929 1768 2749.9140625 1768 2529 c 0
 1768 2308.0859375 1947.0859375 2129 2168 2129 c 0
 2388.9140625 2129 2568 2308.0859375 2568 2529 c 0
 2568 2749.9140625 2388.9140625 2929 2168 2929 c 0
2167.79199219 2729 m 2
 2167.79296875 2729 l 1
 2168.00097656 2729 l 2
 2278.45800781 2729 2368.00097656 2639.45703125 2368.00097656 2529 c 0
 2368.00097656 2418.54296875 2278.45800781 2329 2168.00097656 2329 c 0
 2057.54394531 2329 1968.00097656 2418.54296875 1968.00097656 2529 c 0
 1968.00097656 2639.375 2057.41699219 2728.88476562 2167.79199219 2729 c 2
508 1829 m 1
 1149.66601562 1279 l 1
 1448 1279 l 1
 1448 1829 l 1
 2089.66601562 1279 l 1
 2246.33398438 1279 l 1
 2888 1829 l 1
 2888 1279 l 1
 3186.33398438 1279 l 1
 3828 1829 l 1
 3828 1279 l 1
 4168 1279 l 1
 4168 1179 l 1
 3828 1179 l 1
 3828 629 l 1
 3186.33398438 1179 l 1
 2888 1179 l 1
 2888 629 l 1
 2246.33398438 1179 l 1
 2089.66601562 1179 l 1
 1448 629 l 1
 1448 1179 l 1
 1149.66601562 1179 l 1
 508 629 l 1
 508 1179 l 1
 168 1179 l 1
 168 1279 l 1
 508 1279 l 1
 508 1829 l 1
508 529 m 1
 1149.66601562 -21 l 1
 1448 -21 l 1
 1448 529 l 1
 2089.66601562 -21 l 1
 2246.33398438 -21 l 1
 2888 529 l 1
 2888 -21 l 1
 3186.33398438 -21 l 1
 3828 529 l 1
 3828 -21 l 1
 4168 -21 l 1
 4168 -121 l 1
 3828 -121 l 1
 3828 -671 l 1
 3186.33398438 -121 l 1
 2888 -121 l 1
 2888 -671 l 1
 2246.33398438 -121 l 1
 2089.66601562 -121 l 1
 1448 -671 l 1
 1448 -121 l 1
 1149.66601562 -121 l 1
 508 -671 l 1
 508 -121 l 1
 168 -121 l 1
 168 -21 l 1
 508 -21 l 1
 508 529 l 1
120 3277 m 1
 168 3277 l 1
 168 -819 l 1
 120 -819 l 1
 120 3277 l 1
4168 3277 m 1
 4216 3277 l 1
 4216 -819 l 1
 4168 -819 l 1
 4168 3277 l 1
EndSplineSet
EndChar

StartChar: uniE411
Encoding: 58385 58385 16
Width: 4336
Flags: HW
LayerCount: 2
Fore
SplineSet
168 2579 m 1
 1148 2579 l 1
 1148 3129 l 1
 1789.66601562 2579 l 1
 2546.33398438 2579 l 1
 3188 3129 l 1
 3188 2579 l 1
 4167.99902344 2579 l 1
 4167.99902344 2479 l 1
 3188 2479 l 1
 3188 1929 l 1
 2546.33398438 2479 l 1
 1789.66601562 2479 l 1
 1148 1929 l 1
 1148 2479 l 1
 168 2479 l 1
 168 2579 l 1
168 1279 m 1
 1570.08789062 1279 l 1
 1596.08691406 1589.90136719 1856.01367188 1829 2168 1829 c 0
 2479.98632812 1829 2739.91308594 1589.90136719 2765.91210938 1279 c 1
 4168 1279 l 1
 4168 1179 l 1
 2765.91210938 1179 l 1
 2739.91308594 868.098632812 2479.98632812 629 2168 629 c 0
 1856.01367188 629 1596.08691406 868.098632812 1570.08789062 1179 c 1
 168 1179 l 1
 168 1279 l 1
2168 1629 m 0
 1947.0859375 1629 1768 1449.9140625 1768 1229 c 0
 1768 1008.0859375 1947.0859375 829 2168 829 c 0
 2388.9140625 829 2568 1008.0859375 2568 1229 c 0
 2568 1449.9140625 2388.9140625 1629 2168 1629 c 0
2167.79101562 1429 m 2
 2168 1429 l 2
 2278.45703125 1429 2368 1339.45703125 2368 1229 c 0
 2368 1118.54296875 2278.45703125 1029 2168 1029 c 0
 2057.54296875 1029 1968 1118.54296875 1968 1229 c 0
 1968 1339.37597656 2057.41601562 1428.8828125 2167.79101562 1429 c 2
168 -21 m 1
 1570.08789062 -21 l 1
 1596.08691406 289.901367188 1856.01367188 529 2168 529 c 0
 2479.98632812 529 2739.91308594 289.901367188 2765.91210938 -21 c 1
 4168 -21 l 1
 4168 -121 l 1
 2765.91210938 -121 l 1
 2739.91308594 -431.900390625 2479.98632812 -671 2168 -671 c 0
 1856.01367188 -671 1596.08691406 -431.900390625 1570.08789062 -121 c 1
 168 -121 l 1
 168 -21 l 1
2168 329 m 0
 1947.0859375 329 1768 149.9140625 1768 -71 c 0
 1768 -291.9140625 1947.0859375 -471 2168 -471 c 0
 2388.9140625 -471 2568 -291.9140625 2568 -71 c 0
 2568 149.9140625 2388.9140625 329 2168 329 c 0
2167.79101562 129 m 2
 2168 129 l 2
 2278.45703125 129 2368 39.45703125 2368 -71 c 0
 2368 -181.45703125 2278.45703125 -271 2168 -271 c 0
 2057.54296875 -271 1968 -181.45703125 1968 -71 c 0
 1968 39.3759765625 2057.41601562 128.8828125 2167.79101562 129 c 2
120 3277 m 1
 168 3277 l 1
 168 -819 l 1
 120 -819 l 1
 120 3277 l 1
4168 3277 m 1
 4216 3277 l 1
 4216 -819 l 1
 4168 -819 l 1
 4168 3277 l 1
EndSplineSet
EndChar

StartChar: uniE412
Encoding: 58386 58386 17
Width: 4336
Flags: HW
LayerCount: 2
Fore
SplineSet
168 2579 m 1
 1148 2579 l 1
 1148 3129 l 1
 1789.66601562 2579 l 1
 2546.33398438 2579 l 1
 3188 3129 l 1
 3188 2579 l 1
 4167.99902344 2579 l 1
 4167.99902344 2479 l 1
 3188 2479 l 1
 3188 1929 l 1
 2546.33398438 2479 l 1
 1789.66601562 2479 l 1
 1148 1929 l 1
 1148 2479 l 1
 168 2479 l 1
 168 2579 l 1
168 1279 m 1
 1570.08789062 1279 l 1
 1596.08691406 1589.90136719 1856.01367188 1829 2168 1829 c 0
 2479.98632812 1829 2739.91308594 1589.90136719 2765.91210938 1279 c 1
 4168 1279 l 1
 4168 1179 l 1
 2765.91210938 1179 l 1
 2739.91308594 868.098632812 2479.98632812 629 2168 629 c 0
 1856.01367188 629 1596.08691406 868.098632812 1570.08789062 1179 c 1
 168 1179 l 1
 168 1279 l 1
2168 1629 m 0
 1947.0859375 1629 1768 1449.9140625 1768 1229 c 0
 1768 1008.0859375 1947.0859375 829 2168 829 c 0
 2388.9140625 829 2568 1008.0859375 2568 1229 c 0
 2568 1449.9140625 2388.9140625 1629 2168 1629 c 0
2167.79101562 1429 m 2
 2168 1429 l 2
 2278.45703125 1429 2368 1339.45703125 2368 1229 c 0
 2368 1118.54296875 2278.45703125 1029 2168 1029 c 0
 2057.54296875 1029 1968 1118.54296875 1968 1229 c 0
 1968 1339.37597656 2057.41601562 1428.8828125 2167.79101562 1429 c 2
168 -21 m 1
 1148 -21 l 1
 1148 529 l 1
 1789.66601562 -21 l 1
 2546.33398438 -21 l 1
 3188 529 l 1
 3188 -21 l 1
 4167.99902344 -21 l 1
 4167.99902344 -121 l 1
 3188 -121 l 1
 3188 -671 l 1
 2546.33398438 -121 l 1
 1789.66601562 -121 l 1
 1148 -671 l 1
 1148 -121 l 1
 168 -121 l 1
 168 -21 l 1
120 3277 m 1
 168 3277 l 1
 168 -819 l 1
 120 -819 l 1
 120 3277 l 1
4168 3277 m 1
 4216 3277 l 1
 4216 -819 l 1
 4168 -819 l 1
 4168 3277 l 1
EndSplineSet
EndChar

StartChar: uniE413
Encoding: 58387 58387 18
Width: 4336
Flags: HW
LayerCount: 2
Fore
SplineSet
168 2579 m 1
 1148 2579 l 1
 1148 3129 l 1
 1789.66601562 2579 l 1
 2546.33398438 2579 l 1
 3188 3129 l 1
 3188 2579 l 1
 4167.99902344 2579 l 1
 4167.99902344 2479 l 1
 3188 2479 l 1
 3188 1929 l 1
 2546.33398438 2479 l 1
 1789.66601562 2479 l 1
 1148 1929 l 1
 1148 2479 l 1
 168 2479 l 1
 168 2579 l 1
168 1279 m 1
 1570.08789062 1279 l 1
 1596.08691406 1589.90136719 1856.01367188 1829 2168 1829 c 0
 2479.98632812 1829 2739.91308594 1589.90136719 2765.91210938 1279 c 1
 4168 1279 l 1
 4168 1179 l 1
 2765.91210938 1179 l 1
 2739.91308594 868.098632812 2479.98632812 629 2168 629 c 0
 1856.01367188 629 1596.08691406 868.098632812 1570.08789062 1179 c 1
 168 1179 l 1
 168 1279 l 1
2168 1629 m 0
 1947.0859375 1629 1768 1449.9140625 1768 1229 c 0
 1768 1008.0859375 1947.0859375 829 2168 829 c 0
 2388.9140625 829 2568 1008.0859375 2568 1229 c 0
 2568 1449.9140625 2388.9140625 1629 2168 1629 c 0
2167.79101562 1429 m 2
 2168 1429 l 2
 2278.45703125 1429 2368 1339.45703125 2368 1229 c 0
 2368 1118.54296875 2278.45703125 1029 2168 1029 c 0
 2057.54296875 1029 1968 1118.54296875 1968 1229 c 0
 1968 1339.37597656 2057.41601562 1428.8828125 2167.79101562 1429 c 2
868 529 m 0
 1182.11621094 529 1440.19628906 286.518554688 1465.91210938 -21 c 1
 1570.08789062 -21 l 1
 1595.80371094 286.518554688 1853.88378906 529 2168 529 c 0
 2482.11621094 529 2740.19628906 286.518554688 2765.91210938 -21 c 1
 2870.08789062 -21 l 1
 2895.80371094 286.518554688 3153.88378906 529 3468 529 c 0
 3782.11621094 529 4040.19628906 286.518554688 4065.91210938 -21 c 1
 4168 -21 l 1
 4168 -121 l 1
 4065.91210938 -121 l 1
 4040.19628906 -428.518554688 3782.11523438 -670.999023438 3468 -671 c 0
 3153.88378906 -670.999023438 2895.80371094 -428.518554688 2870.08789062 -121 c 1
 2765.91210938 -121 l 1
 2740.19628906 -428.518554688 2482.11523438 -670.999023438 2168 -671 c 0
 1853.88378906 -671 1595.80371094 -428.518554688 1570.08789062 -121 c 1
 1465.91210938 -121 l 1
 1440.19628906 -428.518554688 1182.11621094 -670.999023438 868 -671 c 0
 553.883789062 -671 295.803710938 -428.518554688 270.087890625 -121 c 1
 168 -121 l 1
 168 -21 l 1
 270.087890625 -21 l 1
 295.803710938 286.518554688 553.883789062 529 868 529 c 0
868 329 m 0
 647.234375 329 468 149.766601562 468 -71 c 0
 468 -291.765625 647.234375 -471 868 -471 c 0
 1088.765625 -471 1268 -291.765625 1268 -71 c 0
 1268 149.766601562 1088.765625 329 868 329 c 0
2168 329 m 0
 1947.23339844 329 1768 149.766601562 1768 -71 c 0
 1768 -291.765625 1947.23339844 -471 2168 -471 c 0
 2388.765625 -471 2568 -291.765625 2568 -71 c 0
 2568 149.766601562 2388.765625 329 2168 329 c 0
3468 329 m 0
 3247.23339844 329 3068 149.766601562 3068 -71 c 0
 3068 -291.765625 3247.23339844 -471 3468 -471 c 0
 3688.765625 -471 3868 -291.765625 3868 -71 c 0
 3868 149.766601562 3688.765625 329 3468 329 c 0
867.791015625 129 m 0
 867.826171875 129 867.857421875 129 867.893554688 129 c 0
 867.928710938 129 867.96484375 129 868 129 c 0
 978.3828125 129 1068 39.3828125 1068 -71 c 0
 1068 -181.3828125 978.3828125 -271 868 -271 c 0
 757.6171875 -271 668 -181.3828125 668 -71 c 0
 668 39.3125 757.505859375 128.884765625 867.791015625 129 c 0
2167.79101562 129 m 1
 2167.79101562 129 l 1
 2167.82617188 129 2167.85742188 129 2167.89355469 129 c 0
 2167.92871094 129 2167.96484375 129 2168 129 c 0
 2278.3828125 129 2368 39.3828125 2368 -71 c 0
 2368 -181.3828125 2278.3828125 -271 2168 -271 c 0
 2057.6171875 -271 1968 -181.3828125 1968 -71 c 0
 1968 39.3125 2057.50585938 128.884765625 2167.79101562 129 c 1
3467.79296875 129 m 2
 3467.79394531 129 l 2
 3467.82910156 129 3467.86035156 129 3467.89648438 129 c 0
 3467.93164062 129 3467.96679688 129 3468.00195312 129 c 0
 3578.38476562 129 3668.00195312 39.3828125 3668.00195312 -71 c 0
 3668.00195312 -181.3828125 3578.38476562 -271 3468.00195312 -271 c 0
 3357.61914062 -271 3268.00195312 -181.3828125 3268.00195312 -71 c 0
 3268.00195312 39.3125 3357.5078125 128.884765625 3467.79296875 129 c 2
120 3277 m 1
 168 3277 l 1
 168 -819 l 1
 120 -819 l 1
 120 3277 l 1
4168 3277 m 1
 4216 3277 l 1
 4216 -819 l 1
 4168 -819 l 1
 4168 3277 l 1
EndSplineSet
EndChar

StartChar: uniE414
Encoding: 58388 58388 19
Width: 4336
Flags: HW
LayerCount: 2
Fore
SplineSet
168 2579 m 1
 1148 2579 l 1
 1148 3129 l 1
 1789.66601562 2579 l 1
 2546.33398438 2579 l 1
 3188 3129 l 1
 3188 2579 l 1
 4167.99902344 2579 l 1
 4167.99902344 2479 l 1
 3188 2479 l 1
 3188 1929 l 1
 2546.33398438 2479 l 1
 1789.66601562 2479 l 1
 1148 1929 l 1
 1148 2479 l 1
 168 2479 l 1
 168 2579 l 1
168 1279 m 1
 1570.08789062 1279 l 1
 1596.08691406 1589.90136719 1856.01367188 1829 2168 1829 c 0
 2479.98632812 1829 2739.91308594 1589.90136719 2765.91210938 1279 c 1
 4168 1279 l 1
 4168 1179 l 1
 2765.91210938 1179 l 1
 2739.91308594 868.098632812 2479.98632812 629 2168 629 c 0
 1856.01367188 629 1596.08691406 868.098632812 1570.08789062 1179 c 1
 168 1179 l 1
 168 1279 l 1
2168 1629 m 0
 1947.0859375 1629 1768 1449.9140625 1768 1229 c 0
 1768 1008.0859375 1947.0859375 829 2168 829 c 0
 2388.9140625 829 2568 1008.0859375 2568 1229 c 0
 2568 1449.9140625 2388.9140625 1629 2168 1629 c 0
2167.79101562 1429 m 2
 2168 1429 l 2
 2278.45703125 1429 2368 1339.45703125 2368 1229 c 0
 2368 1118.54296875 2278.45703125 1029 2168 1029 c 0
 2057.54296875 1029 1968 1118.54296875 1968 1229 c 0
 1968 1339.37597656 2057.41601562 1428.8828125 2167.79101562 1429 c 2
508 529 m 1
 1149.66601562 -21 l 1
 1448 -21 l 1
 1448 529 l 1
 2089.66601562 -21 l 1
 2246.33398438 -21 l 1
 2888 529 l 1
 2888 -21 l 1
 3186.33398438 -21 l 1
 3828 529 l 1
 3828 -21 l 1
 4168 -21 l 1
 4168 -121 l 1
 3828 -121 l 1
 3828 -671 l 1
 3186.33398438 -121 l 1
 2888 -121 l 1
 2888 -671 l 1
 2246.33398438 -121 l 1
 2089.66601562 -121 l 1
 1448 -671 l 1
 1448 -121 l 1
 1149.66601562 -121 l 1
 508 -671 l 1
 508 -121 l 1
 168 -121 l 1
 168 -21 l 1
 508 -21 l 1
 508 529 l 1
120 3277 m 1
 168 3277 l 1
 168 -819 l 1
 120 -819 l 1
 120 3277 l 1
4168 3277 m 1
 4216 3277 l 1
 4216 -819 l 1
 4168 -819 l 1
 4168 3277 l 1
EndSplineSet
EndChar

StartChar: uniE415
Encoding: 58389 58389 20
Width: 4336
Flags: HW
LayerCount: 2
Fore
SplineSet
168 2579 m 1
 1148 2579 l 1
 1148 3129 l 1
 1789.66601562 2579 l 1
 2546.33398438 2579 l 1
 3188 3129 l 1
 3188 2579 l 1
 4167.99902344 2579 l 1
 4167.99902344 2479 l 1
 3188 2479 l 1
 3188 1929 l 1
 2546.33398438 2479 l 1
 1789.66601562 2479 l 1
 1148 1929 l 1
 1148 2479 l 1
 168 2479 l 1
 168 2579 l 1
168 -21 m 1
 1570.08789062 -21 l 1
 1596.08691406 289.901367188 1856.01367188 529 2168 529 c 0
 2479.98632812 529 2739.91308594 289.901367188 2765.91210938 -21 c 1
 4168 -21 l 1
 4168 -121 l 1
 2765.91210938 -121 l 1
 2739.91308594 -431.900390625 2479.98632812 -671 2168 -671 c 0
 1856.01367188 -671 1596.08691406 -431.900390625 1570.08789062 -121 c 1
 168 -121 l 1
 168 -21 l 1
2168 329 m 0
 1947.0859375 329 1768 149.9140625 1768 -71 c 0
 1768 -291.9140625 1947.0859375 -471 2168 -471 c 0
 2388.9140625 -471 2568 -291.9140625 2568 -71 c 0
 2568 149.9140625 2388.9140625 329 2168 329 c 0
2167.79101562 129 m 2
 2168 129 l 2
 2278.45703125 129 2368 39.45703125 2368 -71 c 0
 2368 -181.45703125 2278.45703125 -271 2168 -271 c 0
 2057.54296875 -271 1968 -181.45703125 1968 -71 c 0
 1968 39.3759765625 2057.41601562 128.8828125 2167.79101562 129 c 2
168 1279 m 1
 1148 1279 l 1
 1148 1829 l 1
 1789.66601562 1279 l 1
 2546.33398438 1279 l 1
 3188 1829 l 1
 3188 1279 l 1
 4167.99902344 1279 l 1
 4167.99902344 1179 l 1
 3188 1179 l 1
 3188 629 l 1
 2546.33398438 1179 l 1
 1789.66601562 1179 l 1
 1148 629 l 1
 1148 1179 l 1
 168 1179 l 1
 168 1279 l 1
120 3277 m 1
 168 3277 l 1
 168 -819 l 1
 120 -819 l 1
 120 3277 l 1
4168 3277 m 1
 4216 3277 l 1
 4216 -819 l 1
 4168 -819 l 1
 4168 3277 l 1
EndSplineSet
EndChar

StartChar: uniE416
Encoding: 58390 58390 21
Width: 4336
Flags: HW
LayerCount: 2
Fore
SplineSet
168 2579 m 1
 1148 2579 l 1
 1148 3129 l 1
 1789.66601562 2579 l 1
 2546.33398438 2579 l 1
 3188 3129 l 1
 3188 2579 l 1
 4167.99902344 2579 l 1
 4167.99902344 2479 l 1
 3188 2479 l 1
 3188 1929 l 1
 2546.33398438 2479 l 1
 1789.66601562 2479 l 1
 1148 1929 l 1
 1148 2479 l 1
 168 2479 l 1
 168 2579 l 1
168 1279 m 1
 1148 1279 l 1
 1148 1829 l 1
 1789.66601562 1279 l 1
 2546.33398438 1279 l 1
 3188 1829 l 1
 3188 1279 l 1
 4167.99902344 1279 l 1
 4167.99902344 1179 l 1
 3188 1179 l 1
 3188 629 l 1
 2546.33398438 1179 l 1
 1789.66601562 1179 l 1
 1148 629 l 1
 1148 1179 l 1
 168 1179 l 1
 168 1279 l 1
168 -21 m 1
 1148 -21 l 1
 1148 529 l 1
 1789.66601562 -21 l 1
 2546.33398438 -21 l 1
 3188 529 l 1
 3188 -21 l 1
 4167.99902344 -21 l 1
 4167.99902344 -121 l 1
 3188 -121 l 1
 3188 -671 l 1
 2546.33398438 -121 l 1
 1789.66601562 -121 l 1
 1148 -671 l 1
 1148 -121 l 1
 168 -121 l 1
 168 -21 l 1
120 3277 m 1
 168 3277 l 1
 168 -819 l 1
 120 -819 l 1
 120 3277 l 1
4168 3277 m 1
 4216 3277 l 1
 4216 -819 l 1
 4168 -819 l 1
 4168 3277 l 1
EndSplineSet
EndChar

StartChar: uniE417
Encoding: 58391 58391 22
Width: 4336
Flags: HW
LayerCount: 2
Fore
SplineSet
168 2579 m 1
 1148 2579 l 1
 1148 3129 l 1
 1789.66601562 2579 l 1
 2546.33398438 2579 l 1
 3188 3129 l 1
 3188 2579 l 1
 4167.99902344 2579 l 1
 4167.99902344 2479 l 1
 3188 2479 l 1
 3188 1929 l 1
 2546.33398438 2479 l 1
 1789.66601562 2479 l 1
 1148 1929 l 1
 1148 2479 l 1
 168 2479 l 1
 168 2579 l 1
168 1279 m 1
 1148 1279 l 1
 1148 1829 l 1
 1789.66601562 1279 l 1
 2546.33398438 1279 l 1
 3188 1829 l 1
 3188 1279 l 1
 4167.99902344 1279 l 1
 4167.99902344 1179 l 1
 3188 1179 l 1
 3188 629 l 1
 2546.33398438 1179 l 1
 1789.66601562 1179 l 1
 1148 629 l 1
 1148 1179 l 1
 168 1179 l 1
 168 1279 l 1
868 529 m 0
 1182.11621094 529 1440.19628906 286.518554688 1465.91210938 -21 c 1
 1570.08789062 -21 l 1
 1595.80371094 286.518554688 1853.88378906 529 2168 529 c 0
 2482.11621094 529 2740.19628906 286.518554688 2765.91210938 -21 c 1
 2870.08789062 -21 l 1
 2895.80371094 286.518554688 3153.88476562 529 3468 529 c 0
 3782.11621094 528.999023438 4040.19628906 286.518554688 4065.91210938 -21 c 1
 4168 -21 l 1
 4168 -121 l 1
 4065.91210938 -121 l 1
 4040.19628906 -428.518554688 3782.11621094 -670.999023438 3468 -671 c 0
 3153.88378906 -671 2895.80371094 -428.518554688 2870.08789062 -121 c 1
 2765.91210938 -121 l 1
 2740.19628906 -428.518554688 2482.11621094 -670.999023438 2168 -671 c 0
 1853.88378906 -671 1595.80371094 -428.518554688 1570.08789062 -121 c 1
 1465.91210938 -121 l 1
 1440.19628906 -428.518554688 1182.11621094 -670.999023438 868 -671 c 0
 553.883789062 -671 295.803710938 -428.518554688 270.087890625 -121 c 1
 168 -121 l 1
 168 -21 l 1
 270.087890625 -21 l 1
 295.803710938 286.518554688 553.884765625 529 868 529 c 0
868 329 m 0
 647.234375 329 468 149.766601562 468 -71 c 0
 468 -291.765625 647.234375 -471 868 -471 c 0
 1088.76660156 -471 1268 -291.765625 1268 -71 c 0
 1268 149.766601562 1088.76660156 329 868 329 c 0
2168 329 m 0
 1947.234375 329 1768 149.766601562 1768 -71 c 0
 1768 -291.765625 1947.234375 -471 2168 -471 c 0
 2388.765625 -471 2568 -291.765625 2568 -71 c 0
 2568 149.766601562 2388.765625 329 2168 329 c 0
3468 329 m 0
 3247.234375 329 3068 149.766601562 3068 -71 c 0
 3068 -291.765625 3247.234375 -471 3468 -471 c 0
 3688.765625 -471 3868 -291.765625 3868 -71 c 0
 3868 149.766601562 3688.76660156 329 3468 329 c 0
867.791015625 129 m 2
 867.791992188 129 l 2
 867.828125 129 867.859375 129 867.89453125 129 c 0
 867.9296875 129 867.96484375 129 868 129 c 0
 978.3828125 129 1068 39.3828125 1068 -71 c 0
 1068 -181.3828125 978.3828125 -271 868 -271 c 0
 757.6171875 -271 668 -181.3828125 668 -71 c 0
 668 39.3125 757.505859375 128.884765625 867.791015625 129 c 2
2167.79101562 129 m 2
 2167.79199219 129 l 2
 2167.82714844 129 2167.85839844 129 2167.89355469 129 c 0
 2167.9296875 129 2167.96484375 129 2168 129 c 0
 2278.3828125 129 2368 39.3828125 2368 -71 c 0
 2368 -181.3828125 2278.3828125 -271 2168 -271 c 0
 2057.6171875 -271 1968 -181.3828125 1968 -71 c 0
 1968 39.3125 2057.50585938 128.884765625 2167.79101562 129 c 2
3467.79296875 129 m 2
 3467.79394531 129 l 2
 3467.82910156 129 3467.86035156 129 3467.89648438 129 c 0
 3467.93164062 129 3467.96679688 129 3468.00195312 129 c 0
 3578.38476562 129 3668.00195312 39.3828125 3668.00195312 -71 c 0
 3668.00195312 -181.3828125 3578.38476562 -271 3468.00195312 -271 c 0
 3357.61914062 -271 3268.00195312 -181.3828125 3268.00195312 -71 c 0
 3268.00195312 39.3125 3357.5078125 128.884765625 3467.79296875 129 c 2
120 3277 m 1
 168 3277 l 1
 168 -819 l 1
 120 -819 l 1
 120 3277 l 1
4168 3277 m 1
 4216 3277 l 1
 4216 -819 l 1
 4168 -819 l 1
 4168 3277 l 1
EndSplineSet
EndChar

StartChar: uniE418
Encoding: 58392 58392 23
Width: 4336
Flags: HW
LayerCount: 2
Fore
SplineSet
168 2579 m 1
 1148 2579 l 1
 1148 3129 l 1
 1789.66601562 2579 l 1
 2546.33398438 2579 l 1
 3188 3129 l 1
 3188 2579 l 1
 4167.99902344 2579 l 1
 4167.99902344 2479 l 1
 3188 2479 l 1
 3188 1929 l 1
 2546.33398438 2479 l 1
 1789.66601562 2479 l 1
 1148 1929 l 1
 1148 2479 l 1
 168 2479 l 1
 168 2579 l 1
168 1279 m 1
 1148 1279 l 1
 1148 1829 l 1
 1789.66601562 1279 l 1
 2546.33398438 1279 l 1
 3188 1829 l 1
 3188 1279 l 1
 4167.99902344 1279 l 1
 4167.99902344 1179 l 1
 3188 1179 l 1
 3188 629 l 1
 2546.33398438 1179 l 1
 1789.66601562 1179 l 1
 1148 629 l 1
 1148 1179 l 1
 168 1179 l 1
 168 1279 l 1
508 529 m 1
 1149.66601562 -21 l 1
 1448 -21 l 1
 1448 529 l 1
 2089.66601562 -21 l 1
 2246.33398438 -21 l 1
 2888 529 l 1
 2888 -21 l 1
 3186.33398438 -21 l 1
 3828 529 l 1
 3828 -21 l 1
 4168 -21 l 1
 4168 -121 l 1
 3828 -121 l 1
 3828 -671 l 1
 3186.33398438 -121 l 1
 2888 -121 l 1
 2888 -671 l 1
 2246.33398438 -121 l 1
 2089.66601562 -121 l 1
 1448 -671 l 1
 1448 -121 l 1
 1149.66601562 -121 l 1
 508 -671 l 1
 508 -121 l 1
 168 -121 l 1
 168 -21 l 1
 508 -21 l 1
 508 529 l 1
120 3277 m 1
 168 3277 l 1
 168 -819 l 1
 120 -819 l 1
 120 3277 l 1
4168 3277 m 1
 4216 3277 l 1
 4216 -819 l 1
 4168 -819 l 1
 4168 3277 l 1
EndSplineSet
EndChar

StartChar: uniE419
Encoding: 58393 58393 24
Width: 4336
Flags: HW
LayerCount: 2
Fore
SplineSet
168 2579 m 1
 1148 2579 l 1
 1148 3129 l 1
 1789.66601562 2579 l 1
 2546.33398438 2579 l 1
 3188 3129 l 1
 3188 2579 l 1
 4167.99902344 2579 l 1
 4167.99902344 2479 l 1
 3188 2479 l 1
 3188 1929 l 1
 2546.33398438 2479 l 1
 1789.66601562 2479 l 1
 1148 1929 l 1
 1148 2479 l 1
 168 2479 l 1
 168 2579 l 1
868 1829 m 0
 1182.11621094 1829 1440.19628906 1586.51855469 1465.91210938 1279 c 1
 1570.08789062 1279 l 1
 1595.80371094 1586.51855469 1853.88378906 1829 2168 1829 c 0
 2482.11621094 1829 2740.19628906 1586.51855469 2765.91210938 1279 c 1
 2870.08789062 1279 l 1
 2895.80371094 1586.51855469 3153.88378906 1829 3468 1829 c 0
 3782.11621094 1829 4040.19628906 1586.51855469 4065.91210938 1279 c 1
 4168 1279 l 1
 4168 1179 l 1
 4065.91210938 1179 l 1
 4040.19628906 871.481445312 3782.11523438 629.000976562 3468 629 c 0
 3153.88378906 629 2895.80371094 871.481445312 2870.08789062 1179 c 1
 2765.91210938 1179 l 1
 2740.19628906 871.481445312 2482.11523438 629.000976562 2168 629 c 0
 1853.88378906 629 1595.80371094 871.481445312 1570.08789062 1179 c 1
 1465.91210938 1179 l 1
 1440.19628906 871.481445312 1182.11621094 629.000976562 868 629 c 0
 553.883789062 629 295.803710938 871.481445312 270.087890625 1179 c 1
 168 1179 l 1
 168 1279 l 1
 270.087890625 1279 l 1
 295.803710938 1586.51855469 553.883789062 1829 868 1829 c 0
868 1629 m 0
 647.234375 1629 468 1449.76660156 468 1229 c 0
 468 1008.234375 647.234375 829 868 829 c 0
 1088.765625 829 1268 1008.234375 1268 1229 c 0
 1268 1449.76660156 1088.765625 1629 868 1629 c 0
2168 1629 m 0
 1947.23339844 1629 1768 1449.76660156 1768 1229 c 0
 1768 1008.234375 1947.23339844 829 2168 829 c 0
 2388.765625 829 2568 1008.234375 2568 1229 c 0
 2568 1449.76660156 2388.765625 1629 2168 1629 c 0
3468 1629 m 0
 3247.234375 1629 3068 1449.765625 3068 1229 c 0
 3068 1008.234375 3247.234375 829 3468 829 c 0
 3688.765625 829 3868 1008.234375 3868 1229 c 0
 3868 1449.76660156 3688.765625 1629 3468 1629 c 0
867.791015625 1429 m 0
 867.826171875 1429 867.857421875 1429 867.893554688 1429 c 0
 867.928710938 1429 867.96484375 1429 868 1429 c 0
 978.3828125 1429 1068 1339.3828125 1068 1229 c 0
 1068 1118.6171875 978.3828125 1029 868 1029 c 0
 757.6171875 1029 668 1118.6171875 668 1229 c 0
 668 1339.3125 757.505859375 1428.88476562 867.791015625 1429 c 0
2167.79101562 1429 m 1
 2167.79101562 1429 l 1
 2167.82617188 1429 2167.85742188 1429 2167.89355469 1429 c 0
 2167.92871094 1429 2167.96484375 1429 2168 1429 c 0
 2278.3828125 1429 2368 1339.3828125 2368 1229 c 0
 2368 1118.6171875 2278.3828125 1029 2168 1029 c 0
 2057.6171875 1029 1968 1118.6171875 1968 1229 c 0
 1968 1339.3125 2057.50585938 1428.88476562 2167.79101562 1429 c 1
3467.79296875 1429 m 2
 3467.79394531 1429 l 2
 3467.82910156 1429 3467.86035156 1429 3467.89550781 1429 c 0
 3467.93066406 1429 3467.96679688 1429 3468.00195312 1429 c 0
 3578.38476562 1429 3668.00195312 1339.3828125 3668.00195312 1229 c 0
 3668.00195312 1118.6171875 3578.38476562 1029 3468.00195312 1029 c 0
 3357.61914062 1029 3268.00195312 1118.6171875 3268.00195312 1229 c 0
 3268.00195312 1339.31152344 3357.5078125 1428.88476562 3467.79296875 1429 c 2
168 -21 m 1
 1570.08789062 -21 l 1
 1596.08691406 289.901367188 1856.01367188 529 2168 529 c 0
 2479.98632812 529 2739.91308594 289.901367188 2765.91210938 -21 c 1
 4168 -21 l 1
 4168 -121 l 1
 2765.91210938 -121 l 1
 2739.91308594 -431.901367188 2479.98632812 -671 2168 -671 c 0
 1856.01367188 -671 1596.08691406 -431.901367188 1570.08789062 -121 c 1
 168 -121 l 1
 168 -21 l 1
2168 329 m 0
 1947.0859375 329 1768 149.9140625 1768 -71 c 0
 1768 -291.9140625 1947.0859375 -471 2168 -471 c 0
 2388.9140625 -471 2568 -291.9140625 2568 -71 c 0
 2568 149.9140625 2388.9140625 329 2168 329 c 0
2167.79199219 129 m 2
 2168.00097656 129 l 2
 2278.45800781 129 2368.00097656 39.45703125 2368.00097656 -71 c 0
 2368.00097656 -181.45703125 2278.45800781 -271 2168.00097656 -271 c 0
 2057.54394531 -271 1968.00097656 -181.45703125 1968.00097656 -71 c 0
 1968.00097656 39.3759765625 2057.41699219 128.884765625 2167.79199219 129 c 2
120 3277 m 1
 168 3277 l 1
 168 -819 l 1
 120 -819 l 1
 120 3277 l 1
4168 3277 m 1
 4216 3277 l 1
 4216 -819 l 1
 4168 -819 l 1
 4168 3277 l 1
EndSplineSet
EndChar

StartChar: uniE41A
Encoding: 58394 58394 25
Width: 4336
Flags: HW
LayerCount: 2
Fore
SplineSet
168 2579 m 1
 1148 2579 l 1
 1148 3129 l 1
 1789.66601562 2579 l 1
 2546.33398438 2579 l 1
 3188 3129 l 1
 3188 2579 l 1
 4167.99902344 2579 l 1
 4167.99902344 2479 l 1
 3188 2479 l 1
 3188 1929 l 1
 2546.33398438 2479 l 1
 1789.66601562 2479 l 1
 1148 1929 l 1
 1148 2479 l 1
 168 2479 l 1
 168 2579 l 1
868 1829 m 0
 1182.11621094 1829 1440.19628906 1586.51855469 1465.91210938 1279 c 1
 1570.08789062 1279 l 1
 1595.80371094 1586.51855469 1853.88378906 1829 2168 1829 c 0
 2482.11621094 1829 2740.19628906 1586.51855469 2765.91210938 1279 c 1
 2870.08789062 1279 l 1
 2895.80371094 1586.51855469 3153.88378906 1829 3468 1829 c 0
 3782.11621094 1829 4040.19628906 1586.51855469 4065.91210938 1279 c 1
 4168 1279 l 1
 4168 1179 l 1
 4065.91210938 1179 l 1
 4040.19628906 871.481445312 3782.11523438 629.000976562 3468 629 c 0
 3153.88378906 629 2895.80371094 871.481445312 2870.08789062 1179 c 1
 2765.91210938 1179 l 1
 2740.19628906 871.481445312 2482.11523438 629.000976562 2168 629 c 0
 1853.88378906 629 1595.80371094 871.481445312 1570.08789062 1179 c 1
 1465.91210938 1179 l 1
 1440.19628906 871.481445312 1182.11621094 629.000976562 868 629 c 0
 553.883789062 629 295.803710938 871.481445312 270.087890625 1179 c 1
 168 1179 l 1
 168 1279 l 1
 270.087890625 1279 l 1
 295.803710938 1586.51855469 553.883789062 1829 868 1829 c 0
868 1629 m 0
 647.234375 1629 468 1449.76660156 468 1229 c 0
 468 1008.234375 647.234375 829 868 829 c 0
 1088.765625 829 1268 1008.234375 1268 1229 c 0
 1268 1449.76660156 1088.765625 1629 868 1629 c 0
2168 1629 m 0
 1947.23339844 1629 1768 1449.76660156 1768 1229 c 0
 1768 1008.234375 1947.23339844 829 2168 829 c 0
 2388.765625 829 2568 1008.234375 2568 1229 c 0
 2568 1449.76660156 2388.765625 1629 2168 1629 c 0
3468 1629 m 0
 3247.234375 1629 3068 1449.765625 3068 1229 c 0
 3068 1008.234375 3247.234375 829 3468 829 c 0
 3688.765625 829 3868 1008.234375 3868 1229 c 0
 3868 1449.76660156 3688.765625 1629 3468 1629 c 0
867.791015625 1429 m 0
 867.826171875 1429 867.857421875 1429 867.893554688 1429 c 0
 867.928710938 1429 867.96484375 1429 868 1429 c 0
 978.3828125 1429 1068 1339.3828125 1068 1229 c 0
 1068 1118.6171875 978.3828125 1029 868 1029 c 0
 757.6171875 1029 668 1118.6171875 668 1229 c 0
 668 1339.3125 757.505859375 1428.88476562 867.791015625 1429 c 0
2167.79101562 1429 m 1
 2167.79101562 1429 l 1
 2167.82617188 1429 2167.85742188 1429 2167.89355469 1429 c 0
 2167.92871094 1429 2167.96484375 1429 2168 1429 c 0
 2278.3828125 1429 2368 1339.3828125 2368 1229 c 0
 2368 1118.6171875 2278.3828125 1029 2168 1029 c 0
 2057.6171875 1029 1968 1118.6171875 1968 1229 c 0
 1968 1339.3125 2057.50585938 1428.88476562 2167.79101562 1429 c 1
3467.79296875 1429 m 2
 3467.79394531 1429 l 2
 3467.82910156 1429 3467.86035156 1429 3467.89550781 1429 c 0
 3467.93066406 1429 3467.96679688 1429 3468.00195312 1429 c 0
 3578.38476562 1429 3668.00195312 1339.3828125 3668.00195312 1229 c 0
 3668.00195312 1118.6171875 3578.38476562 1029 3468.00195312 1029 c 0
 3357.61914062 1029 3268.00195312 1118.6171875 3268.00195312 1229 c 0
 3268.00195312 1339.31152344 3357.5078125 1428.88476562 3467.79296875 1429 c 2
168 -21 m 1
 1148 -21 l 1
 1148 529 l 1
 1789.66601562 -21 l 1
 2546.33398438 -21 l 1
 3188 529 l 1
 3188 -21 l 1
 4167.99902344 -21 l 1
 4167.99902344 -121 l 1
 3188 -121 l 1
 3188 -671 l 1
 2546.33398438 -121 l 1
 1789.66601562 -121 l 1
 1148 -671 l 1
 1148 -121 l 1
 168 -121 l 1
 168 -21 l 1
120 3277 m 1
 168 3277 l 1
 168 -819 l 1
 120 -819 l 1
 120 3277 l 1
4168 3277 m 1
 4216 3277 l 1
 4216 -819 l 1
 4168 -819 l 1
 4168 3277 l 1
EndSplineSet
EndChar

StartChar: uniE41B
Encoding: 58395 58395 26
Width: 4336
Flags: HW
LayerCount: 2
Fore
SplineSet
168 2579 m 1
 1148 2579 l 1
 1148 3129 l 1
 1789.66601562 2579 l 1
 2546.33398438 2579 l 1
 3188 3129 l 1
 3188 2579 l 1
 4167.99902344 2579 l 1
 4167.99902344 2479 l 1
 3188 2479 l 1
 3188 1929 l 1
 2546.33398438 2479 l 1
 1789.66601562 2479 l 1
 1148 1929 l 1
 1148 2479 l 1
 168 2479 l 1
 168 2579 l 1
868 1829 m 0
 1182.11621094 1829 1440.19628906 1586.51855469 1465.91210938 1279 c 1
 1570.08789062 1279 l 1
 1595.80371094 1586.51855469 1853.88378906 1829 2168 1829 c 0
 2482.11621094 1829 2740.19628906 1586.51855469 2765.91210938 1279 c 1
 2870.08789062 1279 l 1
 2895.80371094 1586.51855469 3153.88378906 1829 3468 1829 c 0
 3782.11621094 1829 4040.19628906 1586.51855469 4065.91210938 1279 c 1
 4168 1279 l 1
 4168 1179 l 1
 4065.91210938 1179 l 1
 4040.19628906 871.481445312 3782.11523438 629.000976562 3468 629 c 0
 3153.88378906 629 2895.80371094 871.481445312 2870.08789062 1179 c 1
 2765.91210938 1179 l 1
 2740.19628906 871.481445312 2482.11523438 629.000976562 2168 629 c 0
 1853.88378906 629 1595.80371094 871.481445312 1570.08789062 1179 c 1
 1465.91210938 1179 l 1
 1440.19628906 871.481445312 1182.11621094 629.000976562 868 629 c 0
 553.883789062 629 295.803710938 871.481445312 270.087890625 1179 c 1
 168 1179 l 1
 168 1279 l 1
 270.087890625 1279 l 1
 295.803710938 1586.51855469 553.883789062 1829 868 1829 c 0
868 1629 m 0
 647.234375 1629 468 1449.76660156 468 1229 c 0
 468 1008.234375 647.234375 829 868 829 c 0
 1088.765625 829 1268 1008.234375 1268 1229 c 0
 1268 1449.76660156 1088.765625 1629 868 1629 c 0
2168 1629 m 0
 1947.23339844 1629 1768 1449.76660156 1768 1229 c 0
 1768 1008.234375 1947.23339844 829 2168 829 c 0
 2388.765625 829 2568 1008.234375 2568 1229 c 0
 2568 1449.76660156 2388.765625 1629 2168 1629 c 0
3468 1629 m 0
 3247.234375 1629 3068 1449.765625 3068 1229 c 0
 3068 1008.234375 3247.234375 829 3468 829 c 0
 3688.765625 829 3868 1008.234375 3868 1229 c 0
 3868 1449.76660156 3688.765625 1629 3468 1629 c 0
867.791015625 1429 m 0
 867.826171875 1429 867.857421875 1429 867.893554688 1429 c 0
 867.928710938 1429 867.96484375 1429 868 1429 c 0
 978.3828125 1429 1068 1339.3828125 1068 1229 c 0
 1068 1118.6171875 978.3828125 1029 868 1029 c 0
 757.6171875 1029 668 1118.6171875 668 1229 c 0
 668 1339.3125 757.505859375 1428.88476562 867.791015625 1429 c 0
2167.79101562 1429 m 1
 2167.79101562 1429 l 1
 2167.82617188 1429 2167.85742188 1429 2167.89355469 1429 c 0
 2167.92871094 1429 2167.96484375 1429 2168 1429 c 0
 2278.3828125 1429 2368 1339.3828125 2368 1229 c 0
 2368 1118.6171875 2278.3828125 1029 2168 1029 c 0
 2057.6171875 1029 1968 1118.6171875 1968 1229 c 0
 1968 1339.3125 2057.50585938 1428.88476562 2167.79101562 1429 c 1
3467.79296875 1429 m 2
 3467.79394531 1429 l 2
 3467.82910156 1429 3467.86035156 1429 3467.89550781 1429 c 0
 3467.93066406 1429 3467.96679688 1429 3468.00195312 1429 c 0
 3578.38476562 1429 3668.00195312 1339.3828125 3668.00195312 1229 c 0
 3668.00195312 1118.6171875 3578.38476562 1029 3468.00195312 1029 c 0
 3357.61914062 1029 3268.00195312 1118.6171875 3268.00195312 1229 c 0
 3268.00195312 1339.31152344 3357.5078125 1428.88476562 3467.79296875 1429 c 2
868 529 m 0
 1182.11621094 529 1440.19628906 286.518554688 1465.91210938 -21 c 1
 1570.08789062 -21 l 1
 1595.80371094 286.518554688 1853.88378906 529 2168 529 c 0
 2482.11621094 529 2740.19628906 286.518554688 2765.91210938 -21 c 1
 2870.08789062 -21 l 1
 2895.80371094 286.518554688 3153.88378906 529 3468 529 c 0
 3782.11621094 529 4040.19628906 286.518554688 4065.91210938 -21 c 1
 4168 -21 l 1
 4168 -121 l 1
 4065.91210938 -121 l 1
 4040.19628906 -428.518554688 3782.11523438 -670.999023438 3468 -671 c 0
 3153.88378906 -671 2895.80371094 -428.518554688 2870.08789062 -121 c 1
 2765.91210938 -121 l 1
 2740.19628906 -428.518554688 2482.11621094 -670.999023438 2168 -671 c 0
 1853.88378906 -671 1595.80371094 -428.518554688 1570.08789062 -121 c 1
 1465.91210938 -121 l 1
 1440.19628906 -428.518554688 1182.11523438 -670.999023438 868 -671 c 0
 553.883789062 -670.999023438 295.803710938 -428.518554688 270.087890625 -121 c 1
 168 -121 l 1
 168 -21 l 1
 270.087890625 -21 l 1
 295.803710938 286.518554688 553.883789062 528.999023438 868 529 c 0
868 329 m 0
 647.234375 329 468 149.766601562 468 -71 c 0
 468 -291.765625 647.233398438 -471 868 -471 c 0
 1088.765625 -471 1268 -291.765625 1268 -71 c 0
 1268 149.766601562 1088.765625 329 868 329 c 0
2168 329 m 0
 1947.234375 329 1768 149.766601562 1768 -71 c 0
 1768 -291.765625 1947.234375 -471 2168 -471 c 0
 2388.765625 -471 2568 -291.765625 2568 -71 c 0
 2568 149.766601562 2388.765625 329 2168 329 c 0
3468 329 m 0
 3247.23339844 329 3068 149.766601562 3068 -71 c 0
 3068 -291.765625 3247.23339844 -471 3468 -471 c 0
 3688.765625 -471 3868 -291.765625 3868 -71 c 0
 3868 149.766601562 3688.765625 329 3468 329 c 0
867.791015625 129 m 2
 867.791992188 129 l 2
 867.827148438 129 867.858398438 129 867.893554688 129 c 0
 867.928710938 129 867.96484375 129 868 129 c 0
 978.3828125 129 1068 39.3828125 1068 -71 c 0
 1068 -181.3828125 978.3828125 -271 868 -271 c 0
 757.6171875 -271 668 -181.3828125 668 -71 c 0
 668 39.3125 757.505859375 128.884765625 867.791015625 129 c 2
2167.79101562 129 m 2
 2167.79199219 129 l 2
 2167.82714844 129 2167.85839844 129 2167.89355469 129 c 0
 2167.9296875 129 2167.96484375 129 2168 129 c 0
 2278.3828125 129 2368 39.3828125 2368 -71 c 0
 2368 -181.3828125 2278.3828125 -271 2168 -271 c 0
 2057.6171875 -271 1968 -181.3828125 1968 -71 c 0
 1968 39.3125 2057.50585938 128.884765625 2167.79101562 129 c 2
3467.79296875 129 m 2
 3467.79394531 129 l 2
 3467.82910156 129 3467.86035156 129 3467.89550781 129 c 0
 3467.93066406 129 3467.96679688 129 3468.00195312 129 c 0
 3578.38476562 129 3668.00195312 39.3828125 3668.00195312 -71 c 0
 3668.00195312 -181.3828125 3578.38476562 -271 3468.00195312 -271 c 0
 3357.61914062 -271 3268.00195312 -181.3828125 3268.00195312 -71 c 0
 3268.00195312 39.3125 3357.5078125 128.884765625 3467.79296875 129 c 2
120 3277 m 1
 168 3277 l 1
 168 -819 l 1
 120 -819 l 1
 120 3277 l 1
4168 3277 m 1
 4216 3277 l 1
 4216 -819 l 1
 4168 -819 l 1
 4168 3277 l 1
EndSplineSet
EndChar

StartChar: uniE41C
Encoding: 58396 58396 27
Width: 4336
Flags: HW
LayerCount: 2
Fore
SplineSet
168 2579 m 1
 1148 2579 l 1
 1148 3129 l 1
 1789.66601562 2579 l 1
 2546.33398438 2579 l 1
 3188 3129 l 1
 3188 2579 l 1
 4167.99902344 2579 l 1
 4167.99902344 2479 l 1
 3188 2479 l 1
 3188 1929 l 1
 2546.33398438 2479 l 1
 1789.66601562 2479 l 1
 1148 1929 l 1
 1148 2479 l 1
 168 2479 l 1
 168 2579 l 1
868 1829 m 0
 1182.11621094 1829 1440.19628906 1586.51855469 1465.91210938 1279 c 1
 1570.08789062 1279 l 1
 1595.80371094 1586.51855469 1853.88378906 1829 2168 1829 c 0
 2482.11621094 1829 2740.19628906 1586.51855469 2765.91210938 1279 c 1
 2870.08789062 1279 l 1
 2895.80371094 1586.51855469 3153.88378906 1829 3468 1829 c 0
 3782.11621094 1829 4040.19628906 1586.51855469 4065.91210938 1279 c 1
 4168 1279 l 1
 4168 1179 l 1
 4065.91210938 1179 l 1
 4040.19628906 871.481445312 3782.11523438 629.000976562 3468 629 c 0
 3153.88378906 629 2895.80371094 871.481445312 2870.08789062 1179 c 1
 2765.91210938 1179 l 1
 2740.19628906 871.481445312 2482.11523438 629.000976562 2168 629 c 0
 1853.88378906 629 1595.80371094 871.481445312 1570.08789062 1179 c 1
 1465.91210938 1179 l 1
 1440.19628906 871.481445312 1182.11621094 629.000976562 868 629 c 0
 553.883789062 629 295.803710938 871.481445312 270.087890625 1179 c 1
 168 1179 l 1
 168 1279 l 1
 270.087890625 1279 l 1
 295.803710938 1586.51855469 553.883789062 1829 868 1829 c 0
868 1629 m 0
 647.234375 1629 468 1449.76660156 468 1229 c 0
 468 1008.234375 647.234375 829 868 829 c 0
 1088.765625 829 1268 1008.234375 1268 1229 c 0
 1268 1449.76660156 1088.765625 1629 868 1629 c 0
2168 1629 m 0
 1947.23339844 1629 1768 1449.76660156 1768 1229 c 0
 1768 1008.234375 1947.23339844 829 2168 829 c 0
 2388.765625 829 2568 1008.234375 2568 1229 c 0
 2568 1449.76660156 2388.765625 1629 2168 1629 c 0
3468 1629 m 0
 3247.234375 1629 3068 1449.765625 3068 1229 c 0
 3068 1008.234375 3247.234375 829 3468 829 c 0
 3688.765625 829 3868 1008.234375 3868 1229 c 0
 3868 1449.76660156 3688.765625 1629 3468 1629 c 0
867.791015625 1429 m 0
 867.826171875 1429 867.857421875 1429 867.893554688 1429 c 0
 867.928710938 1429 867.96484375 1429 868 1429 c 0
 978.3828125 1429 1068 1339.3828125 1068 1229 c 0
 1068 1118.6171875 978.3828125 1029 868 1029 c 0
 757.6171875 1029 668 1118.6171875 668 1229 c 0
 668 1339.3125 757.505859375 1428.88476562 867.791015625 1429 c 0
2167.79101562 1429 m 1
 2167.79101562 1429 l 1
 2167.82617188 1429 2167.85742188 1429 2167.89355469 1429 c 0
 2167.92871094 1429 2167.96484375 1429 2168 1429 c 0
 2278.3828125 1429 2368 1339.3828125 2368 1229 c 0
 2368 1118.6171875 2278.3828125 1029 2168 1029 c 0
 2057.6171875 1029 1968 1118.6171875 1968 1229 c 0
 1968 1339.3125 2057.50585938 1428.88476562 2167.79101562 1429 c 1
3467.79296875 1429 m 2
 3467.79394531 1429 l 2
 3467.82910156 1429 3467.86035156 1429 3467.89550781 1429 c 0
 3467.93066406 1429 3467.96679688 1429 3468.00195312 1429 c 0
 3578.38476562 1429 3668.00195312 1339.3828125 3668.00195312 1229 c 0
 3668.00195312 1118.6171875 3578.38476562 1029 3468.00195312 1029 c 0
 3357.61914062 1029 3268.00195312 1118.6171875 3268.00195312 1229 c 0
 3268.00195312 1339.31152344 3357.5078125 1428.88476562 3467.79296875 1429 c 2
508 529 m 1
 1149.66601562 -21 l 1
 1448 -21 l 1
 1448 529 l 1
 2089.66601562 -21 l 1
 2246.33398438 -21 l 1
 2888 529 l 1
 2888 -21 l 1
 3186.33398438 -21 l 1
 3828 529 l 1
 3828 -21 l 1
 4168 -21 l 1
 4168 -121 l 1
 3828 -121 l 1
 3828 -671 l 1
 3186.33398438 -121 l 1
 2888 -121 l 1
 2888 -671 l 1
 2246.33398438 -121 l 1
 2089.66601562 -121 l 1
 1448 -671 l 1
 1448 -121 l 1
 1149.66601562 -121 l 1
 508 -671 l 1
 508 -121 l 1
 168 -121 l 1
 168 -21 l 1
 508 -21 l 1
 508 529 l 1
120 3277 m 1
 168 3277 l 1
 168 -819 l 1
 120 -819 l 1
 120 3277 l 1
4168 3277 m 1
 4216 3277 l 1
 4216 -819 l 1
 4168 -819 l 1
 4168 3277 l 1
EndSplineSet
EndChar

StartChar: uniE41D
Encoding: 58397 58397 28
Width: 4336
Flags: HW
LayerCount: 2
Fore
SplineSet
168 2579 m 1
 1148 2579 l 1
 1148 3129 l 1
 1789.66601562 2579 l 1
 2546.33398438 2579 l 1
 3188 3129 l 1
 3188 2579 l 1
 4167.99902344 2579 l 1
 4167.99902344 2479 l 1
 3188 2479 l 1
 3188 1929 l 1
 2546.33398438 2479 l 1
 1789.66601562 2479 l 1
 1148 1929 l 1
 1148 2479 l 1
 168 2479 l 1
 168 2579 l 1
508 1829 m 1
 1149.66601562 1279 l 1
 1448 1279 l 1
 1448 1829 l 1
 2089.66601562 1279 l 1
 2246.33398438 1279 l 1
 2888 1829 l 1
 2888 1279 l 1
 3186.33398438 1279 l 1
 3828 1829 l 1
 3828 1279 l 1
 4168 1279 l 1
 4168 1179 l 1
 3828 1179 l 1
 3828 629 l 1
 3186.33398438 1179 l 1
 2888 1179 l 1
 2888 629 l 1
 2246.33398438 1179 l 1
 2089.66601562 1179 l 1
 1448 629 l 1
 1448 1179 l 1
 1149.66601562 1179 l 1
 508 629 l 1
 508 1179 l 1
 168 1179 l 1
 168 1279 l 1
 508 1279 l 1
 508 1829 l 1
168 -21 m 1
 1570.08789062 -21 l 1
 1596.08691406 289.901367188 1856.01367188 529 2168 529 c 0
 2479.98632812 529 2739.91308594 289.901367188 2765.91210938 -21 c 1
 4168 -21 l 1
 4168 -121 l 1
 2765.91210938 -121 l 1
 2739.91308594 -431.901367188 2479.98632812 -671 2168 -671 c 0
 1856.01367188 -671 1596.08691406 -431.901367188 1570.08789062 -121 c 1
 168 -121 l 1
 168 -21 l 1
2168 329 m 0
 1947.0859375 329 1768 149.9140625 1768 -71 c 0
 1768 -291.9140625 1947.0859375 -471 2168 -471 c 0
 2388.9140625 -471 2568 -291.9140625 2568 -71 c 0
 2568 149.9140625 2388.9140625 329 2168 329 c 0
2167.79199219 129 m 2
 2168.00097656 129 l 2
 2278.45800781 129 2368.00097656 39.45703125 2368.00097656 -71 c 0
 2368.00097656 -181.45703125 2278.45800781 -271 2168.00097656 -271 c 0
 2057.54394531 -271 1968.00097656 -181.45703125 1968.00097656 -71 c 0
 1968.00097656 39.3759765625 2057.41699219 128.884765625 2167.79199219 129 c 2
120 3277 m 1
 168 3277 l 1
 168 -819 l 1
 120 -819 l 1
 120 3277 l 1
4168 3277 m 1
 4216 3277 l 1
 4216 -819 l 1
 4168 -819 l 1
 4168 3277 l 1
EndSplineSet
EndChar

StartChar: uniE41E
Encoding: 58398 58398 29
Width: 4336
Flags: HW
LayerCount: 2
Fore
SplineSet
168 2579 m 1
 1148 2579 l 1
 1148 3129 l 1
 1789.66601562 2579 l 1
 2546.33398438 2579 l 1
 3188 3129 l 1
 3188 2579 l 1
 4167.99902344 2579 l 1
 4167.99902344 2479 l 1
 3188 2479 l 1
 3188 1929 l 1
 2546.33398438 2479 l 1
 1789.66601562 2479 l 1
 1148 1929 l 1
 1148 2479 l 1
 168 2479 l 1
 168 2579 l 1
508 1829 m 1
 1149.66601562 1279 l 1
 1448 1279 l 1
 1448 1829 l 1
 2089.66601562 1279 l 1
 2246.33398438 1279 l 1
 2888 1829 l 1
 2888 1279 l 1
 3186.33398438 1279 l 1
 3828 1829 l 1
 3828 1279 l 1
 4168 1279 l 1
 4168 1179 l 1
 3828 1179 l 1
 3828 629 l 1
 3186.33398438 1179 l 1
 2888 1179 l 1
 2888 629 l 1
 2246.33398438 1179 l 1
 2089.66601562 1179 l 1
 1448 629 l 1
 1448 1179 l 1
 1149.66601562 1179 l 1
 508 629 l 1
 508 1179 l 1
 168 1179 l 1
 168 1279 l 1
 508 1279 l 1
 508 1829 l 1
168 -21 m 1
 1148 -21 l 1
 1148 529 l 1
 1789.66601562 -21 l 1
 2546.33398438 -21 l 1
 3188 529 l 1
 3188 -21 l 1
 4167.99902344 -21 l 1
 4167.99902344 -121 l 1
 3188 -121 l 1
 3188 -671 l 1
 2546.33398438 -121 l 1
 1789.66601562 -121 l 1
 1148 -671 l 1
 1148 -121 l 1
 168 -121 l 1
 168 -21 l 1
120 3277 m 1
 168 3277 l 1
 168 -819 l 1
 120 -819 l 1
 120 3277 l 1
4168 3277 m 1
 4216 3277 l 1
 4216 -819 l 1
 4168 -819 l 1
 4168 3277 l 1
EndSplineSet
EndChar

StartChar: uniE41F
Encoding: 58399 58399 30
Width: 4336
Flags: HW
LayerCount: 2
Fore
SplineSet
168 2579 m 1
 1148 2579 l 1
 1148 3129 l 1
 1789.66601562 2579 l 1
 2546.33398438 2579 l 1
 3188 3129 l 1
 3188 2579 l 1
 4167.99902344 2579 l 1
 4167.99902344 2479 l 1
 3188 2479 l 1
 3188 1929 l 1
 2546.33398438 2479 l 1
 1789.66601562 2479 l 1
 1148 1929 l 1
 1148 2479 l 1
 168 2479 l 1
 168 2579 l 1
508 1829 m 1
 1149.66601562 1279 l 1
 1448 1279 l 1
 1448 1829 l 1
 2089.66601562 1279 l 1
 2246.33398438 1279 l 1
 2888 1829 l 1
 2888 1279 l 1
 3186.33398438 1279 l 1
 3828 1829 l 1
 3828 1279 l 1
 4168 1279 l 1
 4168 1179 l 1
 3828 1179 l 1
 3828 629 l 1
 3186.33398438 1179 l 1
 2888 1179 l 1
 2888 629 l 1
 2246.33398438 1179 l 1
 2089.66601562 1179 l 1
 1448 629 l 1
 1448 1179 l 1
 1149.66601562 1179 l 1
 508 629 l 1
 508 1179 l 1
 168 1179 l 1
 168 1279 l 1
 508 1279 l 1
 508 1829 l 1
868 529 m 0
 1182.11621094 529 1440.19628906 286.518554688 1465.91210938 -21 c 1
 1570.08789062 -21 l 1
 1595.80371094 286.518554688 1853.88378906 529 2168 529 c 0
 2482.11621094 529 2740.19628906 286.518554688 2765.91210938 -21 c 1
 2870.08789062 -21 l 1
 2895.80371094 286.518554688 3153.88378906 529 3468 529 c 0
 3782.11621094 529 4040.19628906 286.518554688 4065.91210938 -21 c 1
 4168 -21 l 1
 4168 -121 l 1
 4065.91210938 -121 l 1
 4040.19628906 -428.518554688 3782.11621094 -670.999023438 3468 -671 c 0
 3153.88378906 -671 2895.80371094 -428.518554688 2870.08789062 -121 c 1
 2765.91210938 -121 l 1
 2740.19628906 -428.518554688 2482.11523438 -670.999023438 2168 -671 c 0
 1853.88378906 -670.999023438 1595.80371094 -428.518554688 1570.08789062 -121 c 1
 1465.91210938 -121 l 1
 1440.19628906 -428.518554688 1182.11523438 -670.999023438 868 -671 c 0
 553.883789062 -671 295.803710938 -428.518554688 270.087890625 -121 c 1
 168 -121 l 1
 168 -21 l 1
 270.087890625 -21 l 1
 295.803710938 286.518554688 553.883789062 529 868 529 c 0
868 329 m 0
 647.234375 329 468 149.766601562 468 -71 c 0
 468 -291.765625 647.234375 -471 868 -471 c 0
 1088.765625 -471 1268 -291.765625 1268 -71 c 0
 1268 149.765625 1088.765625 329 868 329 c 0
2168 329 m 0
 1947.23339844 329 1768 149.766601562 1768 -71 c 0
 1768 -291.765625 1947.23339844 -471 2168 -471 c 0
 2388.765625 -471 2568 -291.765625 2568 -71 c 0
 2568 149.765625 2388.765625 329 2168 329 c 0
3468 329 m 0
 3247.234375 329 3068 149.766601562 3068 -71 c 0
 3068 -291.765625 3247.234375 -471 3468 -471 c 0
 3688.765625 -471 3868 -291.765625 3868 -71 c 0
 3868 149.765625 3688.765625 329 3468 329 c 0
867.791015625 129 m 0
 867.826171875 129 867.857421875 129 867.893554688 129 c 0
 867.928710938 129 867.96484375 129 868 129 c 0
 978.3828125 129 1068 39.3828125 1068 -71 c 0
 1068 -181.3828125 978.3828125 -271 868 -271 c 0
 757.6171875 -271 668 -181.3828125 668 -71 c 0
 668 39.3125 757.505859375 128.884765625 867.791015625 129 c 0
2167.79101562 129 m 2
 2167.79199219 129 l 2
 2167.82714844 129 2167.85839844 129 2167.89355469 129 c 0
 2167.92871094 129 2167.96484375 129 2168 129 c 0
 2278.3828125 129 2368 39.3828125 2368 -71 c 0
 2368 -181.3828125 2278.3828125 -271 2168 -271 c 0
 2057.6171875 -271 1968 -181.3828125 1968 -71 c 0
 1968 39.3125 2057.50585938 128.884765625 2167.79101562 129 c 2
3467.79296875 129 m 2
 3467.79394531 129 l 2
 3467.82910156 129 3467.86035156 129 3467.89550781 129 c 0
 3467.93164062 129 3467.96679688 129 3468.00195312 129 c 0
 3578.38476562 129 3668.00195312 39.3828125 3668.00195312 -71 c 0
 3668.00195312 -181.3828125 3578.38476562 -271 3468.00195312 -271 c 0
 3357.61914062 -271 3268.00195312 -181.3828125 3268.00195312 -71 c 0
 3268.00195312 39.3125 3357.5078125 128.884765625 3467.79296875 129 c 2
120 3277 m 1
 168 3277 l 1
 168 -819 l 1
 120 -819 l 1
 120 3277 l 1
4168 3277 m 1
 4216 3277 l 1
 4216 -819 l 1
 4168 -819 l 1
 4168 3277 l 1
EndSplineSet
EndChar

StartChar: uniE420
Encoding: 58400 58400 31
Width: 4336
Flags: HW
LayerCount: 2
Fore
SplineSet
168 2579 m 1
 1148 2579 l 1
 1148 3129 l 1
 1789.66601562 2579 l 1
 2546.33398438 2579 l 1
 3188 3129 l 1
 3188 2579 l 1
 4167.99902344 2579 l 1
 4167.99902344 2479 l 1
 3188 2479 l 1
 3188 1929 l 1
 2546.33398438 2479 l 1
 1789.66601562 2479 l 1
 1148 1929 l 1
 1148 2479 l 1
 168 2479 l 1
 168 2579 l 1
508 1829 m 1
 1149.66601562 1279 l 1
 1448 1279 l 1
 1448 1829 l 1
 2089.66601562 1279 l 1
 2246.33398438 1279 l 1
 2888 1829 l 1
 2888 1279 l 1
 3186.33398438 1279 l 1
 3828 1829 l 1
 3828 1279 l 1
 4168 1279 l 1
 4168 1179 l 1
 3828 1179 l 1
 3828 629 l 1
 3186.33398438 1179 l 1
 2888 1179 l 1
 2888 629 l 1
 2246.33398438 1179 l 1
 2089.66601562 1179 l 1
 1448 629 l 1
 1448 1179 l 1
 1149.66601562 1179 l 1
 508 629 l 1
 508 1179 l 1
 168 1179 l 1
 168 1279 l 1
 508 1279 l 1
 508 1829 l 1
508 529 m 1
 1149.66601562 -21 l 1
 1448 -21 l 1
 1448 529 l 1
 2089.66601562 -21 l 1
 2246.33398438 -21 l 1
 2888 529 l 1
 2888 -21 l 1
 3186.33398438 -21 l 1
 3828 529 l 1
 3828 -21 l 1
 4168 -21 l 1
 4168 -121 l 1
 3828 -121 l 1
 3828 -671 l 1
 3186.33398438 -121 l 1
 2888 -121 l 1
 2888 -671 l 1
 2246.33398438 -121 l 1
 2089.66601562 -121 l 1
 1448 -671 l 1
 1448 -121 l 1
 1149.66601562 -121 l 1
 508 -671 l 1
 508 -121 l 1
 168 -121 l 1
 168 -21 l 1
 508 -21 l 1
 508 529 l 1
120 3277 m 1
 168 3277 l 1
 168 -819 l 1
 120 -819 l 1
 120 3277 l 1
4168 3277 m 1
 4216 3277 l 1
 4216 -819 l 1
 4168 -819 l 1
 4168 3277 l 1
EndSplineSet
EndChar

StartChar: uniE421
Encoding: 58401 58401 32
Width: 4336
Flags: HW
LayerCount: 2
Fore
SplineSet
868 3129 m 0
 1182.11621094 3129 1440.19628906 2886.51855469 1465.91210938 2579 c 1
 1570.08789062 2579 l 1
 1595.80371094 2886.51855469 1853.88378906 3128.99902344 2168 3129 c 0
 2482.11621094 3129 2740.19628906 2886.51855469 2765.91210938 2579 c 1
 2870.08789062 2579 l 1
 2895.80371094 2886.51855469 3153.88378906 3128.99902344 3468 3129 c 0
 3782.11621094 3129 4040.19628906 2886.51855469 4065.91210938 2579 c 1
 4168 2579 l 1
 4168 2479 l 1
 4065.91210938 2479 l 1
 4040.19628906 2171.48144531 3782.11523438 1929.00097656 3468 1929 c 0
 3153.88378906 1929 2895.80371094 2171.48144531 2870.08789062 2479 c 1
 2765.91210938 2479 l 1
 2740.19628906 2171.48144531 2482.11523438 1929.00097656 2168 1929 c 0
 1853.88378906 1929 1595.80371094 2171.48144531 1570.08789062 2479 c 1
 1465.91210938 2479 l 1
 1440.19628906 2171.48144531 1182.11621094 1929.00097656 868 1929 c 0
 553.883789062 1929 295.803710938 2171.48144531 270.087890625 2479 c 1
 168 2479 l 1
 168 2579 l 1
 270.087890625 2579 l 1
 295.803710938 2886.51855469 553.883789062 3129 868 3129 c 0
868 2929 m 0
 647.234375 2929 468 2749.765625 468 2529 c 0
 468 2308.234375 647.234375 2129 868 2129 c 0
 1088.765625 2129 1268 2308.234375 1268 2529 c 0
 1268 2749.765625 1088.765625 2929 868 2929 c 0
2168 2929 m 0
 1947.23339844 2929 1768 2749.765625 1768 2529 c 0
 1768 2308.234375 1947.23339844 2129 2168 2129 c 0
 2388.765625 2129 2568 2308.234375 2568 2529 c 0
 2568 2749.765625 2388.765625 2929 2168 2929 c 0
3468 2929 m 0
 3247.23339844 2929 3068 2749.765625 3068 2529 c 0
 3068 2308.234375 3247.23339844 2129 3468 2129 c 0
 3688.765625 2129 3868 2308.234375 3868 2529 c 0
 3868 2749.765625 3688.765625 2929 3468 2929 c 0
867.791015625 2729 m 0
 867.826171875 2729 867.857421875 2729 867.893554688 2729 c 0
 867.928710938 2729 867.96484375 2729 868 2729 c 0
 978.3828125 2729 1068 2639.3828125 1068 2529 c 0
 1068 2418.6171875 978.3828125 2329 868 2329 c 0
 757.6171875 2329 668 2418.6171875 668 2529 c 0
 668 2639.3125 757.505859375 2728.88476562 867.791015625 2729 c 0
2167.79101562 2729 m 1
 2167.79101562 2729 l 1
 2167.82617188 2729 2167.85742188 2729 2167.89355469 2729 c 0
 2167.92871094 2729 2167.96484375 2729 2168 2729 c 0
 2278.3828125 2729 2368 2639.3828125 2368 2529 c 0
 2368 2418.6171875 2278.3828125 2329 2168 2329 c 0
 2057.6171875 2329 1968 2418.6171875 1968 2529 c 0
 1968 2639.3125 2057.50585938 2728.88476562 2167.79101562 2729 c 1
3467.79296875 2729 m 2
 3467.79394531 2729 l 2
 3467.82910156 2729 3467.86035156 2729 3467.89550781 2729 c 0
 3467.93066406 2729 3467.96679688 2729 3468.00195312 2729 c 0
 3578.38476562 2729 3668.00195312 2639.3828125 3668.00195312 2529 c 0
 3668.00195312 2418.6171875 3578.38476562 2329 3468.00195312 2329 c 0
 3357.61914062 2329 3268.00195312 2418.6171875 3268.00195312 2529 c 0
 3268.00195312 2639.31152344 3357.5078125 2728.88476562 3467.79296875 2729 c 2
168 -21 m 1
 1570.08789062 -21 l 1
 1596.08691406 289.901367188 1856.01367188 529 2168 529 c 0
 2479.98632812 529 2739.91308594 289.901367188 2765.91210938 -21 c 1
 4168 -21 l 1
 4168 -121 l 1
 2765.91210938 -121 l 1
 2739.91308594 -431.901367188 2479.98632812 -671 2168 -671 c 0
 1856.01367188 -671 1596.08691406 -431.901367188 1570.08789062 -121 c 1
 168 -121 l 1
 168 -21 l 1
2168 329 m 0
 1947.0859375 329 1768 149.9140625 1768 -71 c 0
 1768 -291.9140625 1947.0859375 -471 2168 -471 c 0
 2388.9140625 -471 2568 -291.9140625 2568 -71 c 0
 2568 149.9140625 2388.9140625 329 2168 329 c 0
2167.79101562 129 m 2
 2168 129 l 2
 2278.45703125 129 2368 39.45703125 2368 -71 c 0
 2368 -181.45703125 2278.45703125 -271 2168 -271 c 0
 2057.54296875 -271 1968 -181.45703125 1968 -71 c 0
 1968 39.3759765625 2057.41601562 128.884765625 2167.79101562 129 c 2
168 1279 m 1
 1570.08789062 1279 l 1
 1596.08691406 1589.90136719 1856.01367188 1829 2168 1829 c 0
 2479.98632812 1829 2739.91308594 1589.90136719 2765.91210938 1279 c 1
 4168 1279 l 1
 4168 1179 l 1
 2765.91210938 1179 l 1
 2739.91308594 868.098632812 2479.98632812 629 2168 629 c 0
 1856.01367188 629 1596.08691406 868.098632812 1570.08789062 1179 c 1
 168 1179 l 1
 168 1279 l 1
2168 1629 m 0
 1947.0859375 1629 1768 1449.9140625 1768 1229 c 0
 1768 1008.0859375 1947.0859375 829 2168 829 c 0
 2388.9140625 829 2568 1008.0859375 2568 1229 c 0
 2568 1449.9140625 2388.9140625 1629 2168 1629 c 0
2167.79199219 1429 m 2
 2168.00097656 1429 l 2
 2278.45800781 1429 2368.00097656 1339.45703125 2368.00097656 1229 c 0
 2368.00097656 1118.54296875 2278.45800781 1029 2168.00097656 1029 c 0
 2057.54394531 1029 1968.00097656 1118.54296875 1968.00097656 1229 c 0
 1968.00097656 1339.37597656 2057.41699219 1428.88476562 2167.79199219 1429 c 2
120 3277 m 1
 168 3277 l 1
 168 -819 l 1
 120 -819 l 1
 120 3277 l 1
4168 3277 m 1
 4216 3277 l 1
 4216 -819 l 1
 4168 -819 l 1
 4168 3277 l 1
EndSplineSet
EndChar

StartChar: uniE422
Encoding: 58402 58402 33
Width: 4336
Flags: HW
LayerCount: 2
Fore
SplineSet
868 3129 m 0
 1182.11621094 3129 1440.19628906 2886.51855469 1465.91210938 2579 c 1
 1570.08789062 2579 l 1
 1595.80371094 2886.51855469 1853.88378906 3128.99902344 2168 3129 c 0
 2482.11621094 3129 2740.19628906 2886.51855469 2765.91210938 2579 c 1
 2870.08789062 2579 l 1
 2895.80371094 2886.51855469 3153.88378906 3128.99902344 3468 3129 c 0
 3782.11621094 3129 4040.19628906 2886.51855469 4065.91210938 2579 c 1
 4168 2579 l 1
 4168 2479 l 1
 4065.91210938 2479 l 1
 4040.19628906 2171.48144531 3782.11523438 1929.00097656 3468 1929 c 0
 3153.88378906 1929 2895.80371094 2171.48144531 2870.08789062 2479 c 1
 2765.91210938 2479 l 1
 2740.19628906 2171.48144531 2482.11523438 1929.00097656 2168 1929 c 0
 1853.88378906 1929 1595.80371094 2171.48144531 1570.08789062 2479 c 1
 1465.91210938 2479 l 1
 1440.19628906 2171.48144531 1182.11621094 1929.00097656 868 1929 c 0
 553.883789062 1929 295.803710938 2171.48144531 270.087890625 2479 c 1
 168 2479 l 1
 168 2579 l 1
 270.087890625 2579 l 1
 295.803710938 2886.51855469 553.883789062 3129 868 3129 c 0
868 2929 m 0
 647.234375 2929 468 2749.765625 468 2529 c 0
 468 2308.234375 647.234375 2129 868 2129 c 0
 1088.765625 2129 1268 2308.234375 1268 2529 c 0
 1268 2749.765625 1088.765625 2929 868 2929 c 0
2168 2929 m 0
 1947.23339844 2929 1768 2749.765625 1768 2529 c 0
 1768 2308.234375 1947.23339844 2129 2168 2129 c 0
 2388.765625 2129 2568 2308.234375 2568 2529 c 0
 2568 2749.765625 2388.765625 2929 2168 2929 c 0
3468 2929 m 0
 3247.23339844 2929 3068 2749.765625 3068 2529 c 0
 3068 2308.234375 3247.23339844 2129 3468 2129 c 0
 3688.765625 2129 3868 2308.234375 3868 2529 c 0
 3868 2749.765625 3688.765625 2929 3468 2929 c 0
867.791015625 2729 m 0
 867.826171875 2729 867.857421875 2729 867.893554688 2729 c 0
 867.928710938 2729 867.96484375 2729 868 2729 c 0
 978.3828125 2729 1068 2639.3828125 1068 2529 c 0
 1068 2418.6171875 978.3828125 2329 868 2329 c 0
 757.6171875 2329 668 2418.6171875 668 2529 c 0
 668 2639.3125 757.505859375 2728.88476562 867.791015625 2729 c 0
2167.79101562 2729 m 1
 2167.79101562 2729 l 1
 2167.82617188 2729 2167.85742188 2729 2167.89355469 2729 c 0
 2167.92871094 2729 2167.96484375 2729 2168 2729 c 0
 2278.3828125 2729 2368 2639.3828125 2368 2529 c 0
 2368 2418.6171875 2278.3828125 2329 2168 2329 c 0
 2057.6171875 2329 1968 2418.6171875 1968 2529 c 0
 1968 2639.3125 2057.50585938 2728.88476562 2167.79101562 2729 c 1
3467.79296875 2729 m 2
 3467.79394531 2729 l 2
 3467.82910156 2729 3467.86035156 2729 3467.89550781 2729 c 0
 3467.93066406 2729 3467.96679688 2729 3468.00195312 2729 c 0
 3578.38476562 2729 3668.00195312 2639.3828125 3668.00195312 2529 c 0
 3668.00195312 2418.6171875 3578.38476562 2329 3468.00195312 2329 c 0
 3357.61914062 2329 3268.00195312 2418.6171875 3268.00195312 2529 c 0
 3268.00195312 2639.31152344 3357.5078125 2728.88476562 3467.79296875 2729 c 2
168 1279 m 1
 1570.08789062 1279 l 1
 1596.08691406 1589.90136719 1856.01367188 1829 2168 1829 c 0
 2479.98632812 1829 2739.91308594 1589.90136719 2765.91210938 1279 c 1
 4168 1279 l 1
 4168 1179 l 1
 2765.91210938 1179 l 1
 2739.91308594 868.098632812 2479.98632812 629 2168 629 c 0
 1856.01367188 629 1596.08691406 868.098632812 1570.08789062 1179 c 1
 168 1179 l 1
 168 1279 l 1
2168 1629 m 0
 1947.0859375 1629 1768 1449.9140625 1768 1229 c 0
 1768 1008.0859375 1947.0859375 829 2168 829 c 0
 2388.9140625 829 2568 1008.0859375 2568 1229 c 0
 2568 1449.9140625 2388.9140625 1629 2168 1629 c 0
2167.79199219 1429 m 2
 2168.00097656 1429 l 2
 2278.45800781 1429 2368.00097656 1339.45703125 2368.00097656 1229 c 0
 2368.00097656 1118.54296875 2278.45800781 1029 2168.00097656 1029 c 0
 2057.54394531 1029 1968.00097656 1118.54296875 1968.00097656 1229 c 0
 1968.00097656 1339.37597656 2057.41699219 1428.88476562 2167.79199219 1429 c 2
168 -21 m 1
 1148 -21 l 1
 1148 529 l 1
 1789.66601562 -21 l 1
 2546.33398438 -21 l 1
 3188 529 l 1
 3188 -21 l 1
 4167.99902344 -21 l 1
 4167.99902344 -121 l 1
 3188 -121 l 1
 3188 -671 l 1
 2546.33398438 -121 l 1
 1789.66601562 -121 l 1
 1148 -671 l 1
 1148 -121 l 1
 168 -121 l 1
 168 -21 l 1
120 3277 m 1
 168 3277 l 1
 168 -819 l 1
 120 -819 l 1
 120 3277 l 1
4168 3277 m 1
 4216 3277 l 1
 4216 -819 l 1
 4168 -819 l 1
 4168 3277 l 1
EndSplineSet
EndChar

StartChar: uniE423
Encoding: 58403 58403 34
Width: 4336
Flags: HW
LayerCount: 2
Fore
SplineSet
868 3129 m 0
 1182.11621094 3129 1440.19628906 2886.51855469 1465.91210938 2579 c 1
 1570.08789062 2579 l 1
 1595.80371094 2886.51855469 1853.88378906 3128.99902344 2168 3129 c 0
 2482.11621094 3129 2740.19628906 2886.51855469 2765.91210938 2579 c 1
 2870.08789062 2579 l 1
 2895.80371094 2886.51855469 3153.88378906 3128.99902344 3468 3129 c 0
 3782.11621094 3129 4040.19628906 2886.51855469 4065.91210938 2579 c 1
 4168 2579 l 1
 4168 2479 l 1
 4065.91210938 2479 l 1
 4040.19628906 2171.48144531 3782.11523438 1929.00097656 3468 1929 c 0
 3153.88378906 1929 2895.80371094 2171.48144531 2870.08789062 2479 c 1
 2765.91210938 2479 l 1
 2740.19628906 2171.48144531 2482.11523438 1929.00097656 2168 1929 c 0
 1853.88378906 1929 1595.80371094 2171.48144531 1570.08789062 2479 c 1
 1465.91210938 2479 l 1
 1440.19628906 2171.48144531 1182.11621094 1929.00097656 868 1929 c 0
 553.883789062 1929 295.803710938 2171.48144531 270.087890625 2479 c 1
 168 2479 l 1
 168 2579 l 1
 270.087890625 2579 l 1
 295.803710938 2886.51855469 553.883789062 3129 868 3129 c 0
868 2929 m 0
 647.234375 2929 468 2749.765625 468 2529 c 0
 468 2308.234375 647.234375 2129 868 2129 c 0
 1088.765625 2129 1268 2308.234375 1268 2529 c 0
 1268 2749.765625 1088.765625 2929 868 2929 c 0
2168 2929 m 0
 1947.23339844 2929 1768 2749.765625 1768 2529 c 0
 1768 2308.234375 1947.23339844 2129 2168 2129 c 0
 2388.765625 2129 2568 2308.234375 2568 2529 c 0
 2568 2749.765625 2388.765625 2929 2168 2929 c 0
3468 2929 m 0
 3247.23339844 2929 3068 2749.765625 3068 2529 c 0
 3068 2308.234375 3247.23339844 2129 3468 2129 c 0
 3688.765625 2129 3868 2308.234375 3868 2529 c 0
 3868 2749.765625 3688.765625 2929 3468 2929 c 0
867.791015625 2729 m 0
 867.826171875 2729 867.857421875 2729 867.893554688 2729 c 0
 867.928710938 2729 867.96484375 2729 868 2729 c 0
 978.3828125 2729 1068 2639.3828125 1068 2529 c 0
 1068 2418.6171875 978.3828125 2329 868 2329 c 0
 757.6171875 2329 668 2418.6171875 668 2529 c 0
 668 2639.3125 757.505859375 2728.88476562 867.791015625 2729 c 0
2167.79101562 2729 m 1
 2167.79101562 2729 l 1
 2167.82617188 2729 2167.85742188 2729 2167.89355469 2729 c 0
 2167.92871094 2729 2167.96484375 2729 2168 2729 c 0
 2278.3828125 2729 2368 2639.3828125 2368 2529 c 0
 2368 2418.6171875 2278.3828125 2329 2168 2329 c 0
 2057.6171875 2329 1968 2418.6171875 1968 2529 c 0
 1968 2639.3125 2057.50585938 2728.88476562 2167.79101562 2729 c 1
3467.79296875 2729 m 2
 3467.79394531 2729 l 2
 3467.82910156 2729 3467.86035156 2729 3467.89550781 2729 c 0
 3467.93066406 2729 3467.96679688 2729 3468.00195312 2729 c 0
 3578.38476562 2729 3668.00195312 2639.3828125 3668.00195312 2529 c 0
 3668.00195312 2418.6171875 3578.38476562 2329 3468.00195312 2329 c 0
 3357.61914062 2329 3268.00195312 2418.6171875 3268.00195312 2529 c 0
 3268.00195312 2639.31152344 3357.5078125 2728.88476562 3467.79296875 2729 c 2
168 1279 m 1
 1570.08789062 1279 l 1
 1596.08691406 1589.90136719 1856.01367188 1829 2168 1829 c 0
 2479.98632812 1829 2739.91308594 1589.90136719 2765.91210938 1279 c 1
 4168 1279 l 1
 4168 1179 l 1
 2765.91210938 1179 l 1
 2739.91308594 868.098632812 2479.98632812 629 2168 629 c 0
 1856.01367188 629 1596.08691406 868.098632812 1570.08789062 1179 c 1
 168 1179 l 1
 168 1279 l 1
2168 1629 m 0
 1947.0859375 1629 1768 1449.9140625 1768 1229 c 0
 1768 1008.0859375 1947.0859375 829 2168 829 c 0
 2388.9140625 829 2568 1008.0859375 2568 1229 c 0
 2568 1449.9140625 2388.9140625 1629 2168 1629 c 0
2167.79199219 1429 m 2
 2168.00097656 1429 l 2
 2278.45800781 1429 2368.00097656 1339.45703125 2368.00097656 1229 c 0
 2368.00097656 1118.54296875 2278.45800781 1029 2168.00097656 1029 c 0
 2057.54394531 1029 1968.00097656 1118.54296875 1968.00097656 1229 c 0
 1968.00097656 1339.37597656 2057.41699219 1428.88476562 2167.79199219 1429 c 2
868 529 m 0
 1182.11621094 528.999023438 1440.19628906 286.518554688 1465.91210938 -21 c 1
 1570.08789062 -21 l 1
 1595.80371094 286.518554688 1853.88378906 529 2168 529 c 0
 2482.11621094 529 2740.19628906 286.518554688 2765.91210938 -21 c 1
 2870.08789062 -21 l 1
 2895.80371094 286.518554688 3153.88378906 528.999023438 3468 529 c 0
 3782.11621094 529 4040.19628906 286.518554688 4065.91210938 -21 c 1
 4168 -21 l 1
 4168 -121 l 1
 4065.91210938 -121 l 1
 4040.19628906 -428.518554688 3782.11523438 -670.999023438 3468 -671 c 0
 3153.88378906 -670.999023438 2895.80371094 -428.518554688 2870.08789062 -121 c 1
 2765.91210938 -121 l 1
 2740.19628906 -428.518554688 2482.11621094 -670.999023438 2168 -671 c 0
 1853.88378906 -671 1595.80371094 -428.518554688 1570.08789062 -121 c 1
 1465.91210938 -121 l 1
 1440.19628906 -428.518554688 1182.11621094 -670.999023438 868 -671 c 0
 553.883789062 -671 295.803710938 -428.518554688 270.087890625 -121 c 1
 168 -121 l 1
 168 -21 l 1
 270.087890625 -21 l 1
 295.803710938 286.518554688 553.884765625 529 868 529 c 0
868 329 m 0
 647.234375 329 468 149.766601562 468 -71 c 0
 468 -291.765625 647.234375 -471 868 -471 c 0
 1088.76660156 -471 1268 -291.765625 1268 -71 c 0
 1268 149.766601562 1088.76660156 329 868 329 c 0
2168 329 m 0
 1947.234375 329 1768 149.766601562 1768 -71 c 0
 1768 -291.765625 1947.234375 -471 2168 -471 c 0
 2388.765625 -471 2568 -291.765625 2568 -71 c 0
 2568 149.766601562 2388.765625 329 2168 329 c 0
3468 329 m 0
 3247.23339844 329 3068 149.766601562 3068 -71 c 0
 3068 -291.765625 3247.23339844 -471 3468 -471 c 0
 3688.765625 -471 3868 -291.765625 3868 -71 c 0
 3868 149.766601562 3688.765625 329 3468 329 c 0
867.791015625 129 m 2
 867.791992188 129 l 2
 867.828125 129 867.859375 129 867.89453125 129 c 0
 867.9296875 129 867.96484375 129 868 129 c 0
 978.3828125 129 1068 39.3828125 1068 -71 c 0
 1068 -181.3828125 978.3828125 -271 868 -271 c 0
 757.6171875 -271 668 -181.3828125 668 -71 c 0
 668 39.3125 757.505859375 128.884765625 867.791015625 129 c 2
2167.79101562 129 m 2
 2167.79199219 129 l 2
 2167.82714844 129 2167.85839844 129 2167.89355469 129 c 0
 2167.9296875 129 2167.96484375 129 2168 129 c 0
 2278.3828125 129 2368 39.3828125 2368 -71 c 0
 2368 -181.3828125 2278.3828125 -271 2168 -271 c 0
 2057.6171875 -271 1968 -181.3828125 1968 -71 c 0
 1968 39.3125 2057.50585938 128.884765625 2167.79101562 129 c 2
3467.79296875 129 m 2
 3467.79394531 129 l 2
 3467.82910156 129 3467.86035156 129 3467.89550781 129 c 0
 3467.93066406 129 3467.96679688 129 3468.00195312 129 c 0
 3578.38476562 129 3668.00195312 39.3828125 3668.00195312 -71 c 0
 3668.00195312 -181.3828125 3578.38476562 -271 3468.00195312 -271 c 0
 3357.61914062 -271 3268.00195312 -181.3828125 3268.00195312 -71 c 0
 3268.00195312 39.3125 3357.5078125 128.884765625 3467.79296875 129 c 2
120 3277 m 1
 168 3277 l 1
 168 -819 l 1
 120 -819 l 1
 120 3277 l 1
4168 3277 m 1
 4216 3277 l 1
 4216 -819 l 1
 4168 -819 l 1
 4168 3277 l 1
EndSplineSet
EndChar

StartChar: uniE424
Encoding: 58404 58404 35
Width: 4336
Flags: HW
LayerCount: 2
Fore
SplineSet
868 3129 m 0
 1182.11621094 3129 1440.19628906 2886.51855469 1465.91210938 2579 c 1
 1570.08789062 2579 l 1
 1595.80371094 2886.51855469 1853.88378906 3128.99902344 2168 3129 c 0
 2482.11621094 3129 2740.19628906 2886.51855469 2765.91210938 2579 c 1
 2870.08789062 2579 l 1
 2895.80371094 2886.51855469 3153.88378906 3128.99902344 3468 3129 c 0
 3782.11621094 3129 4040.19628906 2886.51855469 4065.91210938 2579 c 1
 4168 2579 l 1
 4168 2479 l 1
 4065.91210938 2479 l 1
 4040.19628906 2171.48144531 3782.11523438 1929.00097656 3468 1929 c 0
 3153.88378906 1929 2895.80371094 2171.48144531 2870.08789062 2479 c 1
 2765.91210938 2479 l 1
 2740.19628906 2171.48144531 2482.11523438 1929.00097656 2168 1929 c 0
 1853.88378906 1929 1595.80371094 2171.48144531 1570.08789062 2479 c 1
 1465.91210938 2479 l 1
 1440.19628906 2171.48144531 1182.11621094 1929.00097656 868 1929 c 0
 553.883789062 1929 295.803710938 2171.48144531 270.087890625 2479 c 1
 168 2479 l 1
 168 2579 l 1
 270.087890625 2579 l 1
 295.803710938 2886.51855469 553.883789062 3129 868 3129 c 0
868 2929 m 0
 647.234375 2929 468 2749.765625 468 2529 c 0
 468 2308.234375 647.234375 2129 868 2129 c 0
 1088.765625 2129 1268 2308.234375 1268 2529 c 0
 1268 2749.765625 1088.765625 2929 868 2929 c 0
2168 2929 m 0
 1947.23339844 2929 1768 2749.765625 1768 2529 c 0
 1768 2308.234375 1947.23339844 2129 2168 2129 c 0
 2388.765625 2129 2568 2308.234375 2568 2529 c 0
 2568 2749.765625 2388.765625 2929 2168 2929 c 0
3468 2929 m 0
 3247.23339844 2929 3068 2749.765625 3068 2529 c 0
 3068 2308.234375 3247.23339844 2129 3468 2129 c 0
 3688.765625 2129 3868 2308.234375 3868 2529 c 0
 3868 2749.765625 3688.765625 2929 3468 2929 c 0
867.791015625 2729 m 0
 867.826171875 2729 867.857421875 2729 867.893554688 2729 c 0
 867.928710938 2729 867.96484375 2729 868 2729 c 0
 978.3828125 2729 1068 2639.3828125 1068 2529 c 0
 1068 2418.6171875 978.3828125 2329 868 2329 c 0
 757.6171875 2329 668 2418.6171875 668 2529 c 0
 668 2639.3125 757.505859375 2728.88476562 867.791015625 2729 c 0
2167.79101562 2729 m 1
 2167.79101562 2729 l 1
 2167.82617188 2729 2167.85742188 2729 2167.89355469 2729 c 0
 2167.92871094 2729 2167.96484375 2729 2168 2729 c 0
 2278.3828125 2729 2368 2639.3828125 2368 2529 c 0
 2368 2418.6171875 2278.3828125 2329 2168 2329 c 0
 2057.6171875 2329 1968 2418.6171875 1968 2529 c 0
 1968 2639.3125 2057.50585938 2728.88476562 2167.79101562 2729 c 1
3467.79296875 2729 m 2
 3467.79394531 2729 l 2
 3467.82910156 2729 3467.86035156 2729 3467.89550781 2729 c 0
 3467.93066406 2729 3467.96679688 2729 3468.00195312 2729 c 0
 3578.38476562 2729 3668.00195312 2639.3828125 3668.00195312 2529 c 0
 3668.00195312 2418.6171875 3578.38476562 2329 3468.00195312 2329 c 0
 3357.61914062 2329 3268.00195312 2418.6171875 3268.00195312 2529 c 0
 3268.00195312 2639.31152344 3357.5078125 2728.88476562 3467.79296875 2729 c 2
168 1279 m 1
 1570.08789062 1279 l 1
 1596.08691406 1589.90136719 1856.01367188 1829 2168 1829 c 0
 2479.98632812 1829 2739.91308594 1589.90136719 2765.91210938 1279 c 1
 4168 1279 l 1
 4168 1179 l 1
 2765.91210938 1179 l 1
 2739.91308594 868.098632812 2479.98632812 629 2168 629 c 0
 1856.01367188 629 1596.08691406 868.098632812 1570.08789062 1179 c 1
 168 1179 l 1
 168 1279 l 1
2168 1629 m 0
 1947.0859375 1629 1768 1449.9140625 1768 1229 c 0
 1768 1008.0859375 1947.0859375 829 2168 829 c 0
 2388.9140625 829 2568 1008.0859375 2568 1229 c 0
 2568 1449.9140625 2388.9140625 1629 2168 1629 c 0
2167.79199219 1429 m 2
 2168.00097656 1429 l 2
 2278.45800781 1429 2368.00097656 1339.45703125 2368.00097656 1229 c 0
 2368.00097656 1118.54296875 2278.45800781 1029 2168.00097656 1029 c 0
 2057.54394531 1029 1968.00097656 1118.54296875 1968.00097656 1229 c 0
 1968.00097656 1339.37597656 2057.41699219 1428.88476562 2167.79199219 1429 c 2
508 529 m 1
 1149.66601562 -21 l 1
 1448 -21 l 1
 1448 529 l 1
 2089.66601562 -21 l 1
 2246.33398438 -21 l 1
 2888 529 l 1
 2888 -21 l 1
 3186.33398438 -21 l 1
 3828 529 l 1
 3828 -21 l 1
 4168 -21 l 1
 4168 -121 l 1
 3828 -121 l 1
 3828 -671 l 1
 3186.33398438 -121 l 1
 2888 -121 l 1
 2888 -671 l 1
 2246.33398438 -121 l 1
 2089.66601562 -121 l 1
 1448 -671 l 1
 1448 -121 l 1
 1149.66601562 -121 l 1
 508 -671 l 1
 508 -121 l 1
 168 -121 l 1
 168 -21 l 1
 508 -21 l 1
 508 529 l 1
120 3277 m 1
 168 3277 l 1
 168 -819 l 1
 120 -819 l 1
 120 3277 l 1
4168 3277 m 1
 4216 3277 l 1
 4216 -819 l 1
 4168 -819 l 1
 4168 3277 l 1
EndSplineSet
EndChar

StartChar: uniE425
Encoding: 58405 58405 36
Width: 4336
Flags: HW
LayerCount: 2
Fore
SplineSet
868 3129 m 0
 1182.11621094 3129 1440.19628906 2886.51855469 1465.91210938 2579 c 1
 1570.08789062 2579 l 1
 1595.80371094 2886.51855469 1853.88378906 3128.99902344 2168 3129 c 0
 2482.11621094 3129 2740.19628906 2886.51855469 2765.91210938 2579 c 1
 2870.08789062 2579 l 1
 2895.80371094 2886.51855469 3153.88378906 3128.99902344 3468 3129 c 0
 3782.11621094 3129 4040.19628906 2886.51855469 4065.91210938 2579 c 1
 4168 2579 l 1
 4168 2479 l 1
 4065.91210938 2479 l 1
 4040.19628906 2171.48144531 3782.11523438 1929.00097656 3468 1929 c 0
 3153.88378906 1929 2895.80371094 2171.48144531 2870.08789062 2479 c 1
 2765.91210938 2479 l 1
 2740.19628906 2171.48144531 2482.11523438 1929.00097656 2168 1929 c 0
 1853.88378906 1929 1595.80371094 2171.48144531 1570.08789062 2479 c 1
 1465.91210938 2479 l 1
 1440.19628906 2171.48144531 1182.11621094 1929.00097656 868 1929 c 0
 553.883789062 1929 295.803710938 2171.48144531 270.087890625 2479 c 1
 168 2479 l 1
 168 2579 l 1
 270.087890625 2579 l 1
 295.803710938 2886.51855469 553.883789062 3129 868 3129 c 0
868 2929 m 0
 647.234375 2929 468 2749.765625 468 2529 c 0
 468 2308.234375 647.234375 2129 868 2129 c 0
 1088.765625 2129 1268 2308.234375 1268 2529 c 0
 1268 2749.765625 1088.765625 2929 868 2929 c 0
2168 2929 m 0
 1947.23339844 2929 1768 2749.765625 1768 2529 c 0
 1768 2308.234375 1947.23339844 2129 2168 2129 c 0
 2388.765625 2129 2568 2308.234375 2568 2529 c 0
 2568 2749.765625 2388.765625 2929 2168 2929 c 0
3468 2929 m 0
 3247.23339844 2929 3068 2749.765625 3068 2529 c 0
 3068 2308.234375 3247.23339844 2129 3468 2129 c 0
 3688.765625 2129 3868 2308.234375 3868 2529 c 0
 3868 2749.765625 3688.765625 2929 3468 2929 c 0
867.791015625 2729 m 0
 867.826171875 2729 867.857421875 2729 867.893554688 2729 c 0
 867.928710938 2729 867.96484375 2729 868 2729 c 0
 978.3828125 2729 1068 2639.3828125 1068 2529 c 0
 1068 2418.6171875 978.3828125 2329 868 2329 c 0
 757.6171875 2329 668 2418.6171875 668 2529 c 0
 668 2639.3125 757.505859375 2728.88476562 867.791015625 2729 c 0
2167.79101562 2729 m 1
 2167.79101562 2729 l 1
 2167.82617188 2729 2167.85742188 2729 2167.89355469 2729 c 0
 2167.92871094 2729 2167.96484375 2729 2168 2729 c 0
 2278.3828125 2729 2368 2639.3828125 2368 2529 c 0
 2368 2418.6171875 2278.3828125 2329 2168 2329 c 0
 2057.6171875 2329 1968 2418.6171875 1968 2529 c 0
 1968 2639.3125 2057.50585938 2728.88476562 2167.79101562 2729 c 1
3467.79296875 2729 m 2
 3467.79394531 2729 l 2
 3467.82910156 2729 3467.86035156 2729 3467.89550781 2729 c 0
 3467.93066406 2729 3467.96679688 2729 3468.00195312 2729 c 0
 3578.38476562 2729 3668.00195312 2639.3828125 3668.00195312 2529 c 0
 3668.00195312 2418.6171875 3578.38476562 2329 3468.00195312 2329 c 0
 3357.61914062 2329 3268.00195312 2418.6171875 3268.00195312 2529 c 0
 3268.00195312 2639.31152344 3357.5078125 2728.88476562 3467.79296875 2729 c 2
168 1279 m 1
 1148 1279 l 1
 1148 1829 l 1
 1789.66601562 1279 l 1
 2546.33398438 1279 l 1
 3188 1829 l 1
 3188 1279 l 1
 4167.99902344 1279 l 1
 4167.99902344 1179 l 1
 3188 1179 l 1
 3188 629 l 1
 2546.33398438 1179 l 1
 1789.66601562 1179 l 1
 1148 629 l 1
 1148 1179 l 1
 168 1179 l 1
 168 1279 l 1
168 -21 m 1
 1570.08789062 -21 l 1
 1596.08691406 289.901367188 1856.01367188 529 2168 529 c 0
 2479.98632812 529 2739.91308594 289.901367188 2765.91210938 -21 c 1
 4168 -21 l 1
 4168 -121 l 1
 2765.91210938 -121 l 1
 2739.91308594 -431.901367188 2479.98632812 -671 2168 -671 c 0
 1856.01367188 -671 1596.08691406 -431.901367188 1570.08789062 -121 c 1
 168 -121 l 1
 168 -21 l 1
2168 329 m 0
 1947.0859375 329 1768 149.9140625 1768 -71 c 0
 1768 -291.9140625 1947.0859375 -471 2168 -471 c 0
 2388.9140625 -471 2568 -291.9140625 2568 -71 c 0
 2568 149.9140625 2388.9140625 329 2168 329 c 0
2167.79101562 129 m 2
 2168 129 l 2
 2278.45703125 129 2368 39.45703125 2368 -71 c 0
 2368 -181.45703125 2278.45703125 -271 2168 -271 c 0
 2057.54296875 -271 1968 -181.45703125 1968 -71 c 0
 1968 39.3759765625 2057.41601562 128.884765625 2167.79101562 129 c 2
120 3277 m 1
 168 3277 l 1
 168 -819 l 1
 120 -819 l 1
 120 3277 l 1
4168 3277 m 1
 4216 3277 l 1
 4216 -819 l 1
 4168 -819 l 1
 4168 3277 l 1
EndSplineSet
EndChar

StartChar: uniE426
Encoding: 58406 58406 37
Width: 4336
Flags: HW
LayerCount: 2
Fore
SplineSet
868 3129 m 0
 1182.11621094 3129 1440.19628906 2886.51855469 1465.91210938 2579 c 1
 1570.08789062 2579 l 1
 1595.80371094 2886.51855469 1853.88378906 3128.99902344 2168 3129 c 0
 2482.11621094 3129 2740.19628906 2886.51855469 2765.91210938 2579 c 1
 2870.08789062 2579 l 1
 2895.80371094 2886.51855469 3153.88378906 3128.99902344 3468 3129 c 0
 3782.11621094 3129 4040.19628906 2886.51855469 4065.91210938 2579 c 1
 4168 2579 l 1
 4168 2479 l 1
 4065.91210938 2479 l 1
 4040.19628906 2171.48144531 3782.11523438 1929.00097656 3468 1929 c 0
 3153.88378906 1929 2895.80371094 2171.48144531 2870.08789062 2479 c 1
 2765.91210938 2479 l 1
 2740.19628906 2171.48144531 2482.11523438 1929.00097656 2168 1929 c 0
 1853.88378906 1929 1595.80371094 2171.48144531 1570.08789062 2479 c 1
 1465.91210938 2479 l 1
 1440.19628906 2171.48144531 1182.11621094 1929.00097656 868 1929 c 0
 553.883789062 1929 295.803710938 2171.48144531 270.087890625 2479 c 1
 168 2479 l 1
 168 2579 l 1
 270.087890625 2579 l 1
 295.803710938 2886.51855469 553.883789062 3129 868 3129 c 0
868 2929 m 0
 647.234375 2929 468 2749.765625 468 2529 c 0
 468 2308.234375 647.234375 2129 868 2129 c 0
 1088.765625 2129 1268 2308.234375 1268 2529 c 0
 1268 2749.765625 1088.765625 2929 868 2929 c 0
2168 2929 m 0
 1947.23339844 2929 1768 2749.765625 1768 2529 c 0
 1768 2308.234375 1947.23339844 2129 2168 2129 c 0
 2388.765625 2129 2568 2308.234375 2568 2529 c 0
 2568 2749.765625 2388.765625 2929 2168 2929 c 0
3468 2929 m 0
 3247.23339844 2929 3068 2749.765625 3068 2529 c 0
 3068 2308.234375 3247.23339844 2129 3468 2129 c 0
 3688.765625 2129 3868 2308.234375 3868 2529 c 0
 3868 2749.765625 3688.765625 2929 3468 2929 c 0
867.791015625 2729 m 0
 867.826171875 2729 867.857421875 2729 867.893554688 2729 c 0
 867.928710938 2729 867.96484375 2729 868 2729 c 0
 978.3828125 2729 1068 2639.3828125 1068 2529 c 0
 1068 2418.6171875 978.3828125 2329 868 2329 c 0
 757.6171875 2329 668 2418.6171875 668 2529 c 0
 668 2639.3125 757.505859375 2728.88476562 867.791015625 2729 c 0
2167.79101562 2729 m 1
 2167.79101562 2729 l 1
 2167.82617188 2729 2167.85742188 2729 2167.89355469 2729 c 0
 2167.92871094 2729 2167.96484375 2729 2168 2729 c 0
 2278.3828125 2729 2368 2639.3828125 2368 2529 c 0
 2368 2418.6171875 2278.3828125 2329 2168 2329 c 0
 2057.6171875 2329 1968 2418.6171875 1968 2529 c 0
 1968 2639.3125 2057.50585938 2728.88476562 2167.79101562 2729 c 1
3467.79296875 2729 m 2
 3467.79394531 2729 l 2
 3467.82910156 2729 3467.86035156 2729 3467.89550781 2729 c 0
 3467.93066406 2729 3467.96679688 2729 3468.00195312 2729 c 0
 3578.38476562 2729 3668.00195312 2639.3828125 3668.00195312 2529 c 0
 3668.00195312 2418.6171875 3578.38476562 2329 3468.00195312 2329 c 0
 3357.61914062 2329 3268.00195312 2418.6171875 3268.00195312 2529 c 0
 3268.00195312 2639.31152344 3357.5078125 2728.88476562 3467.79296875 2729 c 2
168 1279 m 1
 1148 1279 l 1
 1148 1829 l 1
 1789.66601562 1279 l 1
 2546.33398438 1279 l 1
 3188 1829 l 1
 3188 1279 l 1
 4167.99902344 1279 l 1
 4167.99902344 1179 l 1
 3188 1179 l 1
 3188 629 l 1
 2546.33398438 1179 l 1
 1789.66601562 1179 l 1
 1148 629 l 1
 1148 1179 l 1
 168 1179 l 1
 168 1279 l 1
168 -21 m 1
 1148 -21 l 1
 1148 529 l 1
 1789.66601562 -21 l 1
 2546.33398438 -21 l 1
 3188 529 l 1
 3188 -21 l 1
 4167.99902344 -21 l 1
 4167.99902344 -121 l 1
 3188 -121 l 1
 3188 -671 l 1
 2546.33398438 -121 l 1
 1789.66601562 -121 l 1
 1148 -671 l 1
 1148 -121 l 1
 168 -121 l 1
 168 -21 l 1
120 3277 m 1
 168 3277 l 1
 168 -819 l 1
 120 -819 l 1
 120 3277 l 1
4168 3277 m 1
 4216 3277 l 1
 4216 -819 l 1
 4168 -819 l 1
 4168 3277 l 1
EndSplineSet
EndChar

StartChar: uniE427
Encoding: 58407 58407 38
Width: 4336
Flags: HW
LayerCount: 2
Fore
SplineSet
868 3129 m 0
 1182.11621094 3129 1440.19628906 2886.51855469 1465.91210938 2579 c 1
 1570.08789062 2579 l 1
 1595.80371094 2886.51855469 1853.88378906 3128.99902344 2168 3129 c 0
 2482.11621094 3129 2740.19628906 2886.51855469 2765.91210938 2579 c 1
 2870.08789062 2579 l 1
 2895.80371094 2886.51855469 3153.88378906 3128.99902344 3468 3129 c 0
 3782.11621094 3129 4040.19628906 2886.51855469 4065.91210938 2579 c 1
 4168 2579 l 1
 4168 2479 l 1
 4065.91210938 2479 l 1
 4040.19628906 2171.48144531 3782.11523438 1929.00097656 3468 1929 c 0
 3153.88378906 1929 2895.80371094 2171.48144531 2870.08789062 2479 c 1
 2765.91210938 2479 l 1
 2740.19628906 2171.48144531 2482.11523438 1929.00097656 2168 1929 c 0
 1853.88378906 1929 1595.80371094 2171.48144531 1570.08789062 2479 c 1
 1465.91210938 2479 l 1
 1440.19628906 2171.48144531 1182.11621094 1929.00097656 868 1929 c 0
 553.883789062 1929 295.803710938 2171.48144531 270.087890625 2479 c 1
 168 2479 l 1
 168 2579 l 1
 270.087890625 2579 l 1
 295.803710938 2886.51855469 553.883789062 3129 868 3129 c 0
868 2929 m 0
 647.234375 2929 468 2749.765625 468 2529 c 0
 468 2308.234375 647.234375 2129 868 2129 c 0
 1088.765625 2129 1268 2308.234375 1268 2529 c 0
 1268 2749.765625 1088.765625 2929 868 2929 c 0
2168 2929 m 0
 1947.23339844 2929 1768 2749.765625 1768 2529 c 0
 1768 2308.234375 1947.23339844 2129 2168 2129 c 0
 2388.765625 2129 2568 2308.234375 2568 2529 c 0
 2568 2749.765625 2388.765625 2929 2168 2929 c 0
3468 2929 m 0
 3247.23339844 2929 3068 2749.765625 3068 2529 c 0
 3068 2308.234375 3247.23339844 2129 3468 2129 c 0
 3688.765625 2129 3868 2308.234375 3868 2529 c 0
 3868 2749.765625 3688.765625 2929 3468 2929 c 0
867.791015625 2729 m 0
 867.826171875 2729 867.857421875 2729 867.893554688 2729 c 0
 867.928710938 2729 867.96484375 2729 868 2729 c 0
 978.3828125 2729 1068 2639.3828125 1068 2529 c 0
 1068 2418.6171875 978.3828125 2329 868 2329 c 0
 757.6171875 2329 668 2418.6171875 668 2529 c 0
 668 2639.3125 757.505859375 2728.88476562 867.791015625 2729 c 0
2167.79101562 2729 m 1
 2167.79101562 2729 l 1
 2167.82617188 2729 2167.85742188 2729 2167.89355469 2729 c 0
 2167.92871094 2729 2167.96484375 2729 2168 2729 c 0
 2278.3828125 2729 2368 2639.3828125 2368 2529 c 0
 2368 2418.6171875 2278.3828125 2329 2168 2329 c 0
 2057.6171875 2329 1968 2418.6171875 1968 2529 c 0
 1968 2639.3125 2057.50585938 2728.88476562 2167.79101562 2729 c 1
3467.79296875 2729 m 2
 3467.79394531 2729 l 2
 3467.82910156 2729 3467.86035156 2729 3467.89550781 2729 c 0
 3467.93066406 2729 3467.96679688 2729 3468.00195312 2729 c 0
 3578.38476562 2729 3668.00195312 2639.3828125 3668.00195312 2529 c 0
 3668.00195312 2418.6171875 3578.38476562 2329 3468.00195312 2329 c 0
 3357.61914062 2329 3268.00195312 2418.6171875 3268.00195312 2529 c 0
 3268.00195312 2639.31152344 3357.5078125 2728.88476562 3467.79296875 2729 c 2
168 1279 m 1
 1148 1279 l 1
 1148 1829 l 1
 1789.66601562 1279 l 1
 2546.33398438 1279 l 1
 3188 1829 l 1
 3188 1279 l 1
 4167.99902344 1279 l 1
 4167.99902344 1179 l 1
 3188 1179 l 1
 3188 629 l 1
 2546.33398438 1179 l 1
 1789.66601562 1179 l 1
 1148 629 l 1
 1148 1179 l 1
 168 1179 l 1
 168 1279 l 1
868 529 m 0
 1182.11621094 529 1440.19628906 286.518554688 1465.91210938 -21 c 1
 1570.08789062 -21 l 1
 1595.80371094 286.518554688 1853.88378906 528.999023438 2168 529 c 0
 2482.11621094 529 2740.1953125 286.518554688 2765.91210938 -21 c 1
 2870.08789062 -21 l 1
 2895.80371094 286.518554688 3153.88378906 529 3468 529 c 0
 3782.11621094 529 4040.19628906 286.518554688 4065.91210938 -21 c 1
 4168 -21 l 1
 4168 -121 l 1
 4065.91210938 -121 l 1
 4040.19628906 -428.518554688 3782.11523438 -670.999023438 3468 -671 c 0
 3153.88378906 -671 2895.80371094 -428.518554688 2870.08789062 -121 c 1
 2765.91210938 -121 l 1
 2740.1953125 -428.518554688 2482.11523438 -670.999023438 2168 -671 c 0
 1853.88378906 -670.999023438 1595.80371094 -428.518554688 1570.08789062 -121 c 1
 1465.91210938 -121 l 1
 1440.19628906 -428.518554688 1182.11523438 -670.999023438 868 -671 c 0
 553.883789062 -671 295.803710938 -428.518554688 270.087890625 -121 c 1
 168 -121 l 1
 168 -21 l 1
 270.087890625 -21 l 1
 295.803710938 286.518554688 553.883789062 529 868 529 c 0
868 329 m 0
 647.234375 329 468 149.766601562 468 -71 c 0
 468 -291.765625 647.233398438 -471 868 -471 c 0
 1088.765625 -471 1268 -291.765625 1268 -71 c 0
 1268 149.766601562 1088.765625 329 868 329 c 0
2168 329 m 0
 1947.23339844 329 1768 149.766601562 1768 -71 c 0
 1768 -291.765625 1947.23339844 -471 2168 -471 c 0
 2388.765625 -471 2568 -291.765625 2568 -71 c 0
 2568 149.766601562 2388.765625 329 2168 329 c 0
3468 329 m 0
 3247.23339844 329 3068 149.766601562 3068 -71 c 0
 3068 -291.765625 3247.23339844 -471 3468 -471 c 0
 3688.765625 -471 3868 -291.765625 3868 -71 c 0
 3868 149.766601562 3688.765625 329 3468 329 c 0
867.791015625 129 m 2
 867.791992188 129 l 2
 867.827148438 129 867.858398438 129 867.893554688 129 c 0
 867.928710938 129 867.96484375 129 868 129 c 0
 978.3828125 129 1068 39.3828125 1068 -71 c 0
 1068 -181.3828125 978.3828125 -271 868 -271 c 0
 757.6171875 -271 668 -181.3828125 668 -71 c 0
 668 39.3125 757.505859375 128.884765625 867.791015625 129 c 2
2167.79101562 129 m 2
 2167.79199219 129 l 2
 2167.82714844 129 2167.85839844 129 2167.89355469 129 c 0
 2167.92871094 129 2167.96386719 129 2168 129 c 0
 2278.3828125 129 2368 39.3828125 2368 -71 c 0
 2368 -181.3828125 2278.3828125 -271 2168 -271 c 0
 2057.61621094 -271 1968 -181.3828125 1968 -71 c 0
 1968 39.3125 2057.50585938 128.884765625 2167.79101562 129 c 2
3467.79296875 129 m 2
 3467.79394531 129 l 2
 3467.82910156 129 3467.86035156 129 3467.89550781 129 c 0
 3467.93066406 129 3467.96679688 129 3468.00195312 129 c 0
 3578.38476562 129 3668.00195312 39.3828125 3668.00195312 -71 c 0
 3668.00195312 -181.3828125 3578.38476562 -271 3468.00195312 -271 c 0
 3357.61914062 -271 3268.00195312 -181.3828125 3268.00195312 -71 c 0
 3268.00195312 39.3125 3357.5078125 128.884765625 3467.79296875 129 c 2
120 3277 m 1
 168 3277 l 1
 168 -819 l 1
 120 -819 l 1
 120 3277 l 1
4168 3277 m 1
 4216 3277 l 1
 4216 -819 l 1
 4168 -819 l 1
 4168 3277 l 1
EndSplineSet
EndChar

StartChar: uniE428
Encoding: 58408 58408 39
Width: 4336
Flags: HW
LayerCount: 2
Fore
SplineSet
868 3129 m 0
 1182.11621094 3129 1440.19628906 2886.51855469 1465.91210938 2579 c 1
 1570.08789062 2579 l 1
 1595.80371094 2886.51855469 1853.88378906 3128.99902344 2168 3129 c 0
 2482.11621094 3129 2740.19628906 2886.51855469 2765.91210938 2579 c 1
 2870.08789062 2579 l 1
 2895.80371094 2886.51855469 3153.88378906 3128.99902344 3468 3129 c 0
 3782.11621094 3129 4040.19628906 2886.51855469 4065.91210938 2579 c 1
 4168 2579 l 1
 4168 2479 l 1
 4065.91210938 2479 l 1
 4040.19628906 2171.48144531 3782.11523438 1929.00097656 3468 1929 c 0
 3153.88378906 1929 2895.80371094 2171.48144531 2870.08789062 2479 c 1
 2765.91210938 2479 l 1
 2740.19628906 2171.48144531 2482.11523438 1929.00097656 2168 1929 c 0
 1853.88378906 1929 1595.80371094 2171.48144531 1570.08789062 2479 c 1
 1465.91210938 2479 l 1
 1440.19628906 2171.48144531 1182.11621094 1929.00097656 868 1929 c 0
 553.883789062 1929 295.803710938 2171.48144531 270.087890625 2479 c 1
 168 2479 l 1
 168 2579 l 1
 270.087890625 2579 l 1
 295.803710938 2886.51855469 553.883789062 3129 868 3129 c 0
868 2929 m 0
 647.234375 2929 468 2749.765625 468 2529 c 0
 468 2308.234375 647.234375 2129 868 2129 c 0
 1088.765625 2129 1268 2308.234375 1268 2529 c 0
 1268 2749.765625 1088.765625 2929 868 2929 c 0
2168 2929 m 0
 1947.23339844 2929 1768 2749.765625 1768 2529 c 0
 1768 2308.234375 1947.23339844 2129 2168 2129 c 0
 2388.765625 2129 2568 2308.234375 2568 2529 c 0
 2568 2749.765625 2388.765625 2929 2168 2929 c 0
3468 2929 m 0
 3247.23339844 2929 3068 2749.765625 3068 2529 c 0
 3068 2308.234375 3247.23339844 2129 3468 2129 c 0
 3688.765625 2129 3868 2308.234375 3868 2529 c 0
 3868 2749.765625 3688.765625 2929 3468 2929 c 0
867.791015625 2729 m 0
 867.826171875 2729 867.857421875 2729 867.893554688 2729 c 0
 867.928710938 2729 867.96484375 2729 868 2729 c 0
 978.3828125 2729 1068 2639.3828125 1068 2529 c 0
 1068 2418.6171875 978.3828125 2329 868 2329 c 0
 757.6171875 2329 668 2418.6171875 668 2529 c 0
 668 2639.3125 757.505859375 2728.88476562 867.791015625 2729 c 0
2167.79101562 2729 m 1
 2167.79101562 2729 l 1
 2167.82617188 2729 2167.85742188 2729 2167.89355469 2729 c 0
 2167.92871094 2729 2167.96484375 2729 2168 2729 c 0
 2278.3828125 2729 2368 2639.3828125 2368 2529 c 0
 2368 2418.6171875 2278.3828125 2329 2168 2329 c 0
 2057.6171875 2329 1968 2418.6171875 1968 2529 c 0
 1968 2639.3125 2057.50585938 2728.88476562 2167.79101562 2729 c 1
3467.79296875 2729 m 2
 3467.79394531 2729 l 2
 3467.82910156 2729 3467.86035156 2729 3467.89550781 2729 c 0
 3467.93066406 2729 3467.96679688 2729 3468.00195312 2729 c 0
 3578.38476562 2729 3668.00195312 2639.3828125 3668.00195312 2529 c 0
 3668.00195312 2418.6171875 3578.38476562 2329 3468.00195312 2329 c 0
 3357.61914062 2329 3268.00195312 2418.6171875 3268.00195312 2529 c 0
 3268.00195312 2639.31152344 3357.5078125 2728.88476562 3467.79296875 2729 c 2
168 1279 m 1
 1148 1279 l 1
 1148 1829 l 1
 1789.66601562 1279 l 1
 2546.33398438 1279 l 1
 3188 1829 l 1
 3188 1279 l 1
 4167.99902344 1279 l 1
 4167.99902344 1179 l 1
 3188 1179 l 1
 3188 629 l 1
 2546.33398438 1179 l 1
 1789.66601562 1179 l 1
 1148 629 l 1
 1148 1179 l 1
 168 1179 l 1
 168 1279 l 1
508 529 m 1
 1149.66601562 -21 l 1
 1448 -21 l 1
 1448 529 l 1
 2089.66601562 -21 l 1
 2246.33398438 -21 l 1
 2888 529 l 1
 2888 -21 l 1
 3186.33398438 -21 l 1
 3828 529 l 1
 3828 -21 l 1
 4168 -21 l 1
 4168 -121 l 1
 3828 -121 l 1
 3828 -671 l 1
 3186.33398438 -121 l 1
 2888 -121 l 1
 2888 -671 l 1
 2246.33398438 -121 l 1
 2089.66601562 -121 l 1
 1448 -671 l 1
 1448 -121 l 1
 1149.66601562 -121 l 1
 508 -671 l 1
 508 -121 l 1
 168 -121 l 1
 168 -21 l 1
 508 -21 l 1
 508 529 l 1
120 3277 m 1
 168 3277 l 1
 168 -819 l 1
 120 -819 l 1
 120 3277 l 1
4168 3277 m 1
 4216 3277 l 1
 4216 -819 l 1
 4168 -819 l 1
 4168 3277 l 1
EndSplineSet
EndChar

StartChar: uniE429
Encoding: 58409 58409 40
Width: 4336
Flags: HW
LayerCount: 2
Fore
SplineSet
868 3129 m 0
 1182.11621094 3129 1440.19628906 2886.51855469 1465.91210938 2579 c 1
 1570.08789062 2579 l 1
 1595.80371094 2886.51855469 1853.88378906 3128.99902344 2168 3129 c 0
 2482.11621094 3129 2740.19628906 2886.51855469 2765.91210938 2579 c 1
 2870.08789062 2579 l 1
 2895.80371094 2886.51855469 3153.88378906 3128.99902344 3468 3129 c 0
 3782.11621094 3129 4040.19628906 2886.51855469 4065.91210938 2579 c 1
 4168 2579 l 1
 4168 2479 l 1
 4065.91210938 2479 l 1
 4040.19628906 2171.48144531 3782.11523438 1929.00097656 3468 1929 c 0
 3153.88378906 1929 2895.80371094 2171.48144531 2870.08789062 2479 c 1
 2765.91210938 2479 l 1
 2740.19628906 2171.48144531 2482.11523438 1929.00097656 2168 1929 c 0
 1853.88378906 1929 1595.80371094 2171.48144531 1570.08789062 2479 c 1
 1465.91210938 2479 l 1
 1440.19628906 2171.48144531 1182.11621094 1929.00097656 868 1929 c 0
 553.883789062 1929 295.803710938 2171.48144531 270.087890625 2479 c 1
 168 2479 l 1
 168 2579 l 1
 270.087890625 2579 l 1
 295.803710938 2886.51855469 553.883789062 3129 868 3129 c 0
868 2929 m 0
 647.234375 2929 468 2749.765625 468 2529 c 0
 468 2308.234375 647.234375 2129 868 2129 c 0
 1088.765625 2129 1268 2308.234375 1268 2529 c 0
 1268 2749.765625 1088.765625 2929 868 2929 c 0
2168 2929 m 0
 1947.23339844 2929 1768 2749.765625 1768 2529 c 0
 1768 2308.234375 1947.23339844 2129 2168 2129 c 0
 2388.765625 2129 2568 2308.234375 2568 2529 c 0
 2568 2749.765625 2388.765625 2929 2168 2929 c 0
3468 2929 m 0
 3247.23339844 2929 3068 2749.765625 3068 2529 c 0
 3068 2308.234375 3247.23339844 2129 3468 2129 c 0
 3688.765625 2129 3868 2308.234375 3868 2529 c 0
 3868 2749.765625 3688.765625 2929 3468 2929 c 0
867.791015625 2729 m 0
 867.826171875 2729 867.857421875 2729 867.893554688 2729 c 0
 867.928710938 2729 867.96484375 2729 868 2729 c 0
 978.3828125 2729 1068 2639.3828125 1068 2529 c 0
 1068 2418.6171875 978.3828125 2329 868 2329 c 0
 757.6171875 2329 668 2418.6171875 668 2529 c 0
 668 2639.3125 757.505859375 2728.88476562 867.791015625 2729 c 0
2167.79101562 2729 m 1
 2167.79101562 2729 l 1
 2167.82617188 2729 2167.85742188 2729 2167.89355469 2729 c 0
 2167.92871094 2729 2167.96484375 2729 2168 2729 c 0
 2278.3828125 2729 2368 2639.3828125 2368 2529 c 0
 2368 2418.6171875 2278.3828125 2329 2168 2329 c 0
 2057.6171875 2329 1968 2418.6171875 1968 2529 c 0
 1968 2639.3125 2057.50585938 2728.88476562 2167.79101562 2729 c 1
3467.79296875 2729 m 2
 3467.79394531 2729 l 2
 3467.82910156 2729 3467.86035156 2729 3467.89550781 2729 c 0
 3467.93066406 2729 3467.96679688 2729 3468.00195312 2729 c 0
 3578.38476562 2729 3668.00195312 2639.3828125 3668.00195312 2529 c 0
 3668.00195312 2418.6171875 3578.38476562 2329 3468.00195312 2329 c 0
 3357.61914062 2329 3268.00195312 2418.6171875 3268.00195312 2529 c 0
 3268.00195312 2639.31152344 3357.5078125 2728.88476562 3467.79296875 2729 c 2
868 1829 m 0
 1182.11621094 1829 1440.19628906 1586.51855469 1465.91210938 1279 c 1
 1570.08789062 1279 l 1
 1595.80371094 1586.51855469 1853.88378906 1828.99902344 2168 1829 c 0
 2482.11621094 1829 2740.19628906 1586.51855469 2765.91210938 1279 c 1
 2870.08789062 1279 l 1
 2895.80371094 1586.51855469 3153.88378906 1828.99902344 3468 1829 c 0
 3782.11621094 1829 4040.19628906 1586.51855469 4065.91210938 1279 c 1
 4168 1279 l 1
 4168 1179 l 1
 4065.91210938 1179 l 1
 4040.19628906 871.481445312 3782.11523438 629 3468 629 c 0
 3153.88378906 629.000976562 2895.80371094 871.481445312 2870.08789062 1179 c 1
 2765.91210938 1179 l 1
 2740.19628906 871.481445312 2482.11523438 629.000976562 2168 629 c 0
 1853.88378906 629.000976562 1595.80371094 871.481445312 1570.08789062 1179 c 1
 1465.91210938 1179 l 1
 1440.19628906 871.481445312 1182.11621094 629.000976562 868 629 c 0
 553.883789062 629 295.803710938 871.481445312 270.087890625 1179 c 1
 168 1179 l 1
 168 1279 l 1
 270.087890625 1279 l 1
 295.803710938 1586.51855469 553.883789062 1829 868 1829 c 0
868 1629 m 0
 647.234375 1629 468 1449.765625 468 1229 c 0
 468 1008.234375 647.234375 829 868 829 c 0
 1088.765625 829 1268 1008.234375 1268 1229 c 0
 1268 1449.76660156 1088.765625 1629 868 1629 c 0
2168 1629 m 0
 1947.23339844 1629 1768 1449.765625 1768 1229 c 0
 1768 1008.234375 1947.23339844 829 2168 829 c 0
 2388.765625 829 2568 1008.234375 2568 1229 c 0
 2568 1449.76660156 2388.765625 1629 2168 1629 c 0
3468 1629 m 0
 3247.23339844 1629 3068 1449.765625 3068 1229 c 0
 3068 1008.234375 3247.23339844 829 3468 829 c 0
 3688.765625 829 3868 1008.234375 3868 1229 c 0
 3868 1449.76660156 3688.765625 1629 3468 1629 c 0
867.791015625 1429 m 2
 867.791992188 1429 l 2
 867.827148438 1429 867.858398438 1429 867.893554688 1429 c 0
 867.9296875 1429 867.96484375 1429 868 1429 c 0
 978.3828125 1429 1068 1339.3828125 1068 1229 c 0
 1068 1118.6171875 978.3828125 1029 868 1029 c 0
 757.6171875 1029 668 1118.6171875 668 1229 c 0
 668 1339.3125 757.505859375 1428.88476562 867.791015625 1429 c 2
2167.79101562 1429 m 2
 2167.79199219 1429 l 2
 2167.82714844 1429 2167.85839844 1429 2167.89355469 1429 c 0
 2167.92871094 1429 2167.96484375 1429 2168 1429 c 0
 2278.3828125 1429 2368 1339.3828125 2368 1229 c 0
 2368 1118.6171875 2278.3828125 1029 2168 1029 c 0
 2057.6171875 1029 1968 1118.6171875 1968 1229 c 0
 1968 1339.31152344 2057.50585938 1428.88476562 2167.79101562 1429 c 2
3467.79199219 1429 m 2
 3467.79394531 1429 l 2
 3467.82910156 1429 3467.86035156 1429 3467.89550781 1429 c 0
 3467.93066406 1429 3467.96582031 1429 3468.00097656 1429 c 0
 3578.38476562 1429 3668.00195312 1339.3828125 3668.00195312 1229 c 0
 3668.00195312 1118.6171875 3578.38476562 1029 3468.00097656 1029 c 0
 3357.61816406 1029 3268.00195312 1118.6171875 3268.00195312 1229 c 0
 3268.00195312 1339.31152344 3357.5078125 1428.88476562 3467.79199219 1429 c 2
168 -21 m 1
 1570.08789062 -21 l 1
 1596.08691406 289.901367188 1856.01367188 529 2168 529 c 0
 2479.98632812 529 2739.91308594 289.901367188 2765.91210938 -21 c 1
 4168 -21 l 1
 4168 -121 l 1
 2765.91210938 -121 l 1
 2739.91308594 -431.901367188 2479.98632812 -671 2168 -671 c 0
 1856.01367188 -671 1596.08691406 -431.901367188 1570.08789062 -121 c 1
 168 -121 l 1
 168 -21 l 1
2168 329 m 0
 1947.0859375 329 1768 149.9140625 1768 -71 c 0
 1768 -291.9140625 1947.0859375 -471 2168 -471 c 0
 2388.9140625 -471 2568 -291.9140625 2568 -71 c 0
 2568 149.9140625 2388.9140625 329 2168 329 c 0
2167.79101562 129 m 2
 2168 129 l 2
 2278.45703125 129 2368 39.45703125 2368 -71 c 0
 2368 -181.45703125 2278.45703125 -271 2168 -271 c 0
 2057.54296875 -271 1968 -181.45703125 1968 -71 c 0
 1968 39.3759765625 2057.41601562 128.884765625 2167.79101562 129 c 2
120 3277 m 1
 168 3277 l 1
 168 -819 l 1
 120 -819 l 1
 120 3277 l 1
4168 3277 m 1
 4216 3277 l 1
 4216 -819 l 1
 4168 -819 l 1
 4168 3277 l 1
EndSplineSet
EndChar

StartChar: uniE42A
Encoding: 58410 58410 41
Width: 4336
Flags: HW
LayerCount: 2
Fore
SplineSet
868 3129 m 0
 1182.11621094 3129 1440.19628906 2886.51855469 1465.91210938 2579 c 1
 1570.08789062 2579 l 1
 1595.80371094 2886.51855469 1853.88378906 3128.99902344 2168 3129 c 0
 2482.11621094 3129 2740.19628906 2886.51855469 2765.91210938 2579 c 1
 2870.08789062 2579 l 1
 2895.80371094 2886.51855469 3153.88378906 3128.99902344 3468 3129 c 0
 3782.11621094 3129 4040.19628906 2886.51855469 4065.91210938 2579 c 1
 4168 2579 l 1
 4168 2479 l 1
 4065.91210938 2479 l 1
 4040.19628906 2171.48144531 3782.11523438 1929.00097656 3468 1929 c 0
 3153.88378906 1929 2895.80371094 2171.48144531 2870.08789062 2479 c 1
 2765.91210938 2479 l 1
 2740.19628906 2171.48144531 2482.11523438 1929.00097656 2168 1929 c 0
 1853.88378906 1929 1595.80371094 2171.48144531 1570.08789062 2479 c 1
 1465.91210938 2479 l 1
 1440.19628906 2171.48144531 1182.11621094 1929.00097656 868 1929 c 0
 553.883789062 1929 295.803710938 2171.48144531 270.087890625 2479 c 1
 168 2479 l 1
 168 2579 l 1
 270.087890625 2579 l 1
 295.803710938 2886.51855469 553.883789062 3129 868 3129 c 0
868 2929 m 0
 647.234375 2929 468 2749.765625 468 2529 c 0
 468 2308.234375 647.234375 2129 868 2129 c 0
 1088.765625 2129 1268 2308.234375 1268 2529 c 0
 1268 2749.765625 1088.765625 2929 868 2929 c 0
2168 2929 m 0
 1947.23339844 2929 1768 2749.765625 1768 2529 c 0
 1768 2308.234375 1947.23339844 2129 2168 2129 c 0
 2388.765625 2129 2568 2308.234375 2568 2529 c 0
 2568 2749.765625 2388.765625 2929 2168 2929 c 0
3468 2929 m 0
 3247.23339844 2929 3068 2749.765625 3068 2529 c 0
 3068 2308.234375 3247.23339844 2129 3468 2129 c 0
 3688.765625 2129 3868 2308.234375 3868 2529 c 0
 3868 2749.765625 3688.765625 2929 3468 2929 c 0
867.791015625 2729 m 0
 867.826171875 2729 867.857421875 2729 867.893554688 2729 c 0
 867.928710938 2729 867.96484375 2729 868 2729 c 0
 978.3828125 2729 1068 2639.3828125 1068 2529 c 0
 1068 2418.6171875 978.3828125 2329 868 2329 c 0
 757.6171875 2329 668 2418.6171875 668 2529 c 0
 668 2639.3125 757.505859375 2728.88476562 867.791015625 2729 c 0
2167.79101562 2729 m 1
 2167.79101562 2729 l 1
 2167.82617188 2729 2167.85742188 2729 2167.89355469 2729 c 0
 2167.92871094 2729 2167.96484375 2729 2168 2729 c 0
 2278.3828125 2729 2368 2639.3828125 2368 2529 c 0
 2368 2418.6171875 2278.3828125 2329 2168 2329 c 0
 2057.6171875 2329 1968 2418.6171875 1968 2529 c 0
 1968 2639.3125 2057.50585938 2728.88476562 2167.79101562 2729 c 1
3467.79296875 2729 m 2
 3467.79394531 2729 l 2
 3467.82910156 2729 3467.86035156 2729 3467.89550781 2729 c 0
 3467.93066406 2729 3467.96679688 2729 3468.00195312 2729 c 0
 3578.38476562 2729 3668.00195312 2639.3828125 3668.00195312 2529 c 0
 3668.00195312 2418.6171875 3578.38476562 2329 3468.00195312 2329 c 0
 3357.61914062 2329 3268.00195312 2418.6171875 3268.00195312 2529 c 0
 3268.00195312 2639.31152344 3357.5078125 2728.88476562 3467.79296875 2729 c 2
868 1829 m 0
 1182.11621094 1829 1440.19628906 1586.51855469 1465.91210938 1279 c 1
 1570.08789062 1279 l 1
 1595.80371094 1586.51855469 1853.88378906 1828.99902344 2168 1829 c 0
 2482.11621094 1829 2740.19628906 1586.51855469 2765.91210938 1279 c 1
 2870.08789062 1279 l 1
 2895.80371094 1586.51855469 3153.88378906 1828.99902344 3468 1829 c 0
 3782.11621094 1829 4040.19628906 1586.51855469 4065.91210938 1279 c 1
 4168 1279 l 1
 4168 1179 l 1
 4065.91210938 1179 l 1
 4040.19628906 871.481445312 3782.11523438 629 3468 629 c 0
 3153.88378906 629.000976562 2895.80371094 871.481445312 2870.08789062 1179 c 1
 2765.91210938 1179 l 1
 2740.19628906 871.481445312 2482.11523438 629.000976562 2168 629 c 0
 1853.88378906 629.000976562 1595.80371094 871.481445312 1570.08789062 1179 c 1
 1465.91210938 1179 l 1
 1440.19628906 871.481445312 1182.11621094 629.000976562 868 629 c 0
 553.883789062 629 295.803710938 871.481445312 270.087890625 1179 c 1
 168 1179 l 1
 168 1279 l 1
 270.087890625 1279 l 1
 295.803710938 1586.51855469 553.883789062 1829 868 1829 c 0
868 1629 m 0
 647.234375 1629 468 1449.765625 468 1229 c 0
 468 1008.234375 647.234375 829 868 829 c 0
 1088.765625 829 1268 1008.234375 1268 1229 c 0
 1268 1449.76660156 1088.765625 1629 868 1629 c 0
2168 1629 m 0
 1947.23339844 1629 1768 1449.765625 1768 1229 c 0
 1768 1008.234375 1947.23339844 829 2168 829 c 0
 2388.765625 829 2568 1008.234375 2568 1229 c 0
 2568 1449.76660156 2388.765625 1629 2168 1629 c 0
3468 1629 m 0
 3247.23339844 1629 3068 1449.765625 3068 1229 c 0
 3068 1008.234375 3247.23339844 829 3468 829 c 0
 3688.765625 829 3868 1008.234375 3868 1229 c 0
 3868 1449.76660156 3688.765625 1629 3468 1629 c 0
867.791015625 1429 m 2
 867.791992188 1429 l 2
 867.827148438 1429 867.858398438 1429 867.893554688 1429 c 0
 867.9296875 1429 867.96484375 1429 868 1429 c 0
 978.3828125 1429 1068 1339.3828125 1068 1229 c 0
 1068 1118.6171875 978.3828125 1029 868 1029 c 0
 757.6171875 1029 668 1118.6171875 668 1229 c 0
 668 1339.3125 757.505859375 1428.88476562 867.791015625 1429 c 2
2167.79101562 1429 m 2
 2167.79199219 1429 l 2
 2167.82714844 1429 2167.85839844 1429 2167.89355469 1429 c 0
 2167.92871094 1429 2167.96484375 1429 2168 1429 c 0
 2278.3828125 1429 2368 1339.3828125 2368 1229 c 0
 2368 1118.6171875 2278.3828125 1029 2168 1029 c 0
 2057.6171875 1029 1968 1118.6171875 1968 1229 c 0
 1968 1339.31152344 2057.50585938 1428.88476562 2167.79101562 1429 c 2
3467.79199219 1429 m 2
 3467.79394531 1429 l 2
 3467.82910156 1429 3467.86035156 1429 3467.89550781 1429 c 0
 3467.93066406 1429 3467.96582031 1429 3468.00097656 1429 c 0
 3578.38476562 1429 3668.00195312 1339.3828125 3668.00195312 1229 c 0
 3668.00195312 1118.6171875 3578.38476562 1029 3468.00097656 1029 c 0
 3357.61816406 1029 3268.00195312 1118.6171875 3268.00195312 1229 c 0
 3268.00195312 1339.31152344 3357.5078125 1428.88476562 3467.79199219 1429 c 2
168 -21 m 1
 1148 -21 l 1
 1148 529 l 1
 1789.66601562 -21 l 1
 2546.33398438 -21 l 1
 3188 529 l 1
 3188 -21 l 1
 4167.99902344 -21 l 1
 4167.99902344 -121 l 1
 3188 -121 l 1
 3188 -671 l 1
 2546.33398438 -121 l 1
 1789.66601562 -121 l 1
 1148 -671 l 1
 1148 -121 l 1
 168 -121 l 1
 168 -21 l 1
120 3277 m 1
 168 3277 l 1
 168 -819 l 1
 120 -819 l 1
 120 3277 l 1
4168 3277 m 1
 4216 3277 l 1
 4216 -819 l 1
 4168 -819 l 1
 4168 3277 l 1
EndSplineSet
EndChar

StartChar: uniE42B
Encoding: 58411 58411 42
Width: 4336
Flags: HW
LayerCount: 2
Fore
SplineSet
868 3129 m 0
 1182.11621094 3129 1440.19628906 2886.51855469 1465.91210938 2579 c 1
 1570.08789062 2579 l 1
 1595.80371094 2886.51855469 1853.88378906 3128.99902344 2168 3129 c 0
 2482.11621094 3129 2740.19628906 2886.51855469 2765.91210938 2579 c 1
 2870.08789062 2579 l 1
 2895.80371094 2886.51855469 3153.88378906 3128.99902344 3468 3129 c 0
 3782.11621094 3129 4040.19628906 2886.51855469 4065.91210938 2579 c 1
 4168 2579 l 1
 4168 2479 l 1
 4065.91210938 2479 l 1
 4040.19628906 2171.48144531 3782.11523438 1929.00097656 3468 1929 c 0
 3153.88378906 1929 2895.80371094 2171.48144531 2870.08789062 2479 c 1
 2765.91210938 2479 l 1
 2740.19628906 2171.48144531 2482.11523438 1929.00097656 2168 1929 c 0
 1853.88378906 1929 1595.80371094 2171.48144531 1570.08789062 2479 c 1
 1465.91210938 2479 l 1
 1440.19628906 2171.48144531 1182.11621094 1929.00097656 868 1929 c 0
 553.883789062 1929 295.803710938 2171.48144531 270.087890625 2479 c 1
 168 2479 l 1
 168 2579 l 1
 270.087890625 2579 l 1
 295.803710938 2886.51855469 553.883789062 3129 868 3129 c 0
868 2929 m 0
 647.234375 2929 468 2749.765625 468 2529 c 0
 468 2308.234375 647.234375 2129 868 2129 c 0
 1088.765625 2129 1268 2308.234375 1268 2529 c 0
 1268 2749.765625 1088.765625 2929 868 2929 c 0
2168 2929 m 0
 1947.23339844 2929 1768 2749.765625 1768 2529 c 0
 1768 2308.234375 1947.23339844 2129 2168 2129 c 0
 2388.765625 2129 2568 2308.234375 2568 2529 c 0
 2568 2749.765625 2388.765625 2929 2168 2929 c 0
3468 2929 m 0
 3247.23339844 2929 3068 2749.765625 3068 2529 c 0
 3068 2308.234375 3247.23339844 2129 3468 2129 c 0
 3688.765625 2129 3868 2308.234375 3868 2529 c 0
 3868 2749.765625 3688.765625 2929 3468 2929 c 0
867.791015625 2729 m 0
 867.826171875 2729 867.857421875 2729 867.893554688 2729 c 0
 867.928710938 2729 867.96484375 2729 868 2729 c 0
 978.3828125 2729 1068 2639.3828125 1068 2529 c 0
 1068 2418.6171875 978.3828125 2329 868 2329 c 0
 757.6171875 2329 668 2418.6171875 668 2529 c 0
 668 2639.3125 757.505859375 2728.88476562 867.791015625 2729 c 0
2167.79101562 2729 m 1
 2167.79101562 2729 l 1
 2167.82617188 2729 2167.85742188 2729 2167.89355469 2729 c 0
 2167.92871094 2729 2167.96484375 2729 2168 2729 c 0
 2278.3828125 2729 2368 2639.3828125 2368 2529 c 0
 2368 2418.6171875 2278.3828125 2329 2168 2329 c 0
 2057.6171875 2329 1968 2418.6171875 1968 2529 c 0
 1968 2639.3125 2057.50585938 2728.88476562 2167.79101562 2729 c 1
3467.79296875 2729 m 2
 3467.79394531 2729 l 2
 3467.82910156 2729 3467.86035156 2729 3467.89550781 2729 c 0
 3467.93066406 2729 3467.96679688 2729 3468.00195312 2729 c 0
 3578.38476562 2729 3668.00195312 2639.3828125 3668.00195312 2529 c 0
 3668.00195312 2418.6171875 3578.38476562 2329 3468.00195312 2329 c 0
 3357.61914062 2329 3268.00195312 2418.6171875 3268.00195312 2529 c 0
 3268.00195312 2639.31152344 3357.5078125 2728.88476562 3467.79296875 2729 c 2
868 1829 m 0
 1182.11621094 1829 1440.19628906 1586.51855469 1465.91210938 1279 c 1
 1570.08789062 1279 l 1
 1595.80371094 1586.51855469 1853.88378906 1828.99902344 2168 1829 c 0
 2482.11621094 1829 2740.19628906 1586.51855469 2765.91210938 1279 c 1
 2870.08789062 1279 l 1
 2895.80371094 1586.51855469 3153.88378906 1828.99902344 3468 1829 c 0
 3782.11621094 1829 4040.19628906 1586.51855469 4065.91210938 1279 c 1
 4168 1279 l 1
 4168 1179 l 1
 4065.91210938 1179 l 1
 4040.19628906 871.481445312 3782.11523438 629 3468 629 c 0
 3153.88378906 629.000976562 2895.80371094 871.481445312 2870.08789062 1179 c 1
 2765.91210938 1179 l 1
 2740.19628906 871.481445312 2482.11523438 629.000976562 2168 629 c 0
 1853.88378906 629.000976562 1595.80371094 871.481445312 1570.08789062 1179 c 1
 1465.91210938 1179 l 1
 1440.19628906 871.481445312 1182.11621094 629.000976562 868 629 c 0
 553.883789062 629 295.803710938 871.481445312 270.087890625 1179 c 1
 168 1179 l 1
 168 1279 l 1
 270.087890625 1279 l 1
 295.803710938 1586.51855469 553.883789062 1829 868 1829 c 0
868 1629 m 0
 647.234375 1629 468 1449.765625 468 1229 c 0
 468 1008.234375 647.234375 829 868 829 c 0
 1088.765625 829 1268 1008.234375 1268 1229 c 0
 1268 1449.76660156 1088.765625 1629 868 1629 c 0
2168 1629 m 0
 1947.23339844 1629 1768 1449.765625 1768 1229 c 0
 1768 1008.234375 1947.23339844 829 2168 829 c 0
 2388.765625 829 2568 1008.234375 2568 1229 c 0
 2568 1449.76660156 2388.765625 1629 2168 1629 c 0
3468 1629 m 0
 3247.23339844 1629 3068 1449.765625 3068 1229 c 0
 3068 1008.234375 3247.23339844 829 3468 829 c 0
 3688.765625 829 3868 1008.234375 3868 1229 c 0
 3868 1449.76660156 3688.765625 1629 3468 1629 c 0
867.791015625 1429 m 2
 867.791992188 1429 l 2
 867.827148438 1429 867.858398438 1429 867.893554688 1429 c 0
 867.9296875 1429 867.96484375 1429 868 1429 c 0
 978.3828125 1429 1068 1339.3828125 1068 1229 c 0
 1068 1118.6171875 978.3828125 1029 868 1029 c 0
 757.6171875 1029 668 1118.6171875 668 1229 c 0
 668 1339.3125 757.505859375 1428.88476562 867.791015625 1429 c 2
2167.79101562 1429 m 2
 2167.79199219 1429 l 2
 2167.82714844 1429 2167.85839844 1429 2167.89355469 1429 c 0
 2167.92871094 1429 2167.96484375 1429 2168 1429 c 0
 2278.3828125 1429 2368 1339.3828125 2368 1229 c 0
 2368 1118.6171875 2278.3828125 1029 2168 1029 c 0
 2057.6171875 1029 1968 1118.6171875 1968 1229 c 0
 1968 1339.31152344 2057.50585938 1428.88476562 2167.79101562 1429 c 2
3467.79199219 1429 m 2
 3467.79394531 1429 l 2
 3467.82910156 1429 3467.86035156 1429 3467.89550781 1429 c 0
 3467.93066406 1429 3467.96582031 1429 3468.00097656 1429 c 0
 3578.38476562 1429 3668.00195312 1339.3828125 3668.00195312 1229 c 0
 3668.00195312 1118.6171875 3578.38476562 1029 3468.00097656 1029 c 0
 3357.61816406 1029 3268.00195312 1118.6171875 3268.00195312 1229 c 0
 3268.00195312 1339.31152344 3357.5078125 1428.88476562 3467.79199219 1429 c 2
868 529 m 0
 1182.11621094 529 1440.19628906 286.518554688 1465.91210938 -21 c 1
 1570.08789062 -21 l 1
 1595.80371094 286.518554688 1853.88378906 528.999023438 2168 529 c 0
 2482.11621094 529 2740.19628906 286.518554688 2765.91210938 -21 c 1
 2870.08789062 -21 l 1
 2895.80371094 286.518554688 3153.88378906 528.999023438 3467.99902344 529 c 0
 3782.11523438 529 4040.19628906 286.518554688 4065.91210938 -21 c 1
 4168 -21 l 1
 4168 -121 l 1
 4065.91210938 -121 l 1
 4040.19628906 -428.518554688 3782.11523438 -671 3467.99902344 -671 c 0
 3153.88378906 -670.999023438 2895.80371094 -428.518554688 2870.08789062 -121 c 1
 2765.91210938 -121 l 1
 2740.19628906 -428.518554688 2482.11523438 -671 2168 -671 c 0
 1853.88378906 -670.999023438 1595.80371094 -428.518554688 1570.08789062 -121 c 1
 1465.91210938 -121 l 1
 1440.19628906 -428.518554688 1182.11621094 -671 868 -671 c 0
 553.883789062 -671 295.803710938 -428.518554688 270.087890625 -121 c 1
 168 -121 l 1
 168 -21 l 1
 270.087890625 -21 l 1
 295.803710938 286.518554688 553.883789062 529 868 529 c 0
868 329 m 0
 647.234375 329 468 149.765625 468 -71 c 0
 468 -291.765625 647.234375 -471 868 -471 c 0
 1088.765625 -471 1268 -291.765625 1268 -71 c 0
 1268 149.765625 1088.765625 329 868 329 c 0
2168 329 m 0
 1947.23339844 329 1768 149.765625 1768 -71 c 0
 1768 -291.765625 1947.23339844 -471 2168 -471 c 0
 2388.765625 -471 2568 -291.765625 2568 -71 c 0
 2568 149.765625 2388.765625 329 2168 329 c 0
3467.99902344 329 m 0
 3247.23339844 329 3068 149.765625 3068 -71 c 0
 3068 -291.765625 3247.23339844 -471 3467.99902344 -471 c 0
 3688.765625 -471 3868 -291.765625 3868 -71 c 0
 3868 149.765625 3688.765625 329 3467.99902344 329 c 0
867.791015625 129 m 2
 867.791992188 129 l 2
 867.827148438 129 867.858398438 129 867.893554688 129 c 0
 867.9296875 129 867.96484375 129 868 129 c 0
 978.3828125 129 1068 39.3828125 1068 -71 c 0
 1068 -181.3828125 978.3828125 -271 868 -271 c 0
 757.6171875 -271 668 -181.3828125 668 -71 c 0
 668 39.3115234375 757.505859375 128.884765625 867.791015625 129 c 2
2167.79101562 129 m 2
 2167.79199219 129 l 2
 2167.82714844 129 2167.85839844 129 2167.89355469 129 c 0
 2167.92871094 129 2167.96386719 129 2168 129 c 0
 2278.3828125 129 2368 39.3828125 2368 -71 c 0
 2368 -181.3828125 2278.3828125 -271 2168 -271 c 0
 2057.6171875 -271 1968 -181.3828125 1968 -71 c 0
 1968 39.3115234375 2057.50585938 128.884765625 2167.79101562 129 c 2
3467.79199219 129 m 2
 3467.79394531 129 l 2
 3467.82910156 129 3467.86035156 129 3467.89550781 129 c 0
 3467.93066406 129 3467.96582031 129 3468.00097656 129 c 0
 3578.38476562 129 3668.00195312 39.3828125 3668.00195312 -71 c 0
 3668.00195312 -181.3828125 3578.38476562 -271 3468.00097656 -271 c 0
 3357.61816406 -271 3268.00195312 -181.3828125 3268.00195312 -71 c 0
 3268.00195312 39.3115234375 3357.50683594 128.884765625 3467.79199219 129 c 2
120 3277 m 1
 168 3277 l 1
 168 -819 l 1
 120 -819 l 1
 120 3277 l 1
4168 3277 m 1
 4216 3277 l 1
 4216 -819 l 1
 4168 -819 l 1
 4168 3277 l 1
EndSplineSet
EndChar

StartChar: uniE42C
Encoding: 58412 58412 43
Width: 4336
Flags: HW
LayerCount: 2
Fore
SplineSet
868 3129 m 0
 1182.11621094 3129 1440.19628906 2886.51855469 1465.91210938 2579 c 1
 1570.08789062 2579 l 1
 1595.80371094 2886.51855469 1853.88378906 3128.99902344 2168 3129 c 0
 2482.11621094 3129 2740.19628906 2886.51855469 2765.91210938 2579 c 1
 2870.08789062 2579 l 1
 2895.80371094 2886.51855469 3153.88378906 3128.99902344 3468 3129 c 0
 3782.11621094 3129 4040.19628906 2886.51855469 4065.91210938 2579 c 1
 4168 2579 l 1
 4168 2479 l 1
 4065.91210938 2479 l 1
 4040.19628906 2171.48144531 3782.11523438 1929.00097656 3468 1929 c 0
 3153.88378906 1929 2895.80371094 2171.48144531 2870.08789062 2479 c 1
 2765.91210938 2479 l 1
 2740.19628906 2171.48144531 2482.11523438 1929.00097656 2168 1929 c 0
 1853.88378906 1929 1595.80371094 2171.48144531 1570.08789062 2479 c 1
 1465.91210938 2479 l 1
 1440.19628906 2171.48144531 1182.11621094 1929.00097656 868 1929 c 0
 553.883789062 1929 295.803710938 2171.48144531 270.087890625 2479 c 1
 168 2479 l 1
 168 2579 l 1
 270.087890625 2579 l 1
 295.803710938 2886.51855469 553.883789062 3129 868 3129 c 0
868 2929 m 0
 647.234375 2929 468 2749.765625 468 2529 c 0
 468 2308.234375 647.234375 2129 868 2129 c 0
 1088.765625 2129 1268 2308.234375 1268 2529 c 0
 1268 2749.765625 1088.765625 2929 868 2929 c 0
2168 2929 m 0
 1947.23339844 2929 1768 2749.765625 1768 2529 c 0
 1768 2308.234375 1947.23339844 2129 2168 2129 c 0
 2388.765625 2129 2568 2308.234375 2568 2529 c 0
 2568 2749.765625 2388.765625 2929 2168 2929 c 0
3468 2929 m 0
 3247.23339844 2929 3068 2749.765625 3068 2529 c 0
 3068 2308.234375 3247.23339844 2129 3468 2129 c 0
 3688.765625 2129 3868 2308.234375 3868 2529 c 0
 3868 2749.765625 3688.765625 2929 3468 2929 c 0
867.791015625 2729 m 0
 867.826171875 2729 867.857421875 2729 867.893554688 2729 c 0
 867.928710938 2729 867.96484375 2729 868 2729 c 0
 978.3828125 2729 1068 2639.3828125 1068 2529 c 0
 1068 2418.6171875 978.3828125 2329 868 2329 c 0
 757.6171875 2329 668 2418.6171875 668 2529 c 0
 668 2639.3125 757.505859375 2728.88476562 867.791015625 2729 c 0
2167.79101562 2729 m 1
 2167.79101562 2729 l 1
 2167.82617188 2729 2167.85742188 2729 2167.89355469 2729 c 0
 2167.92871094 2729 2167.96484375 2729 2168 2729 c 0
 2278.3828125 2729 2368 2639.3828125 2368 2529 c 0
 2368 2418.6171875 2278.3828125 2329 2168 2329 c 0
 2057.6171875 2329 1968 2418.6171875 1968 2529 c 0
 1968 2639.3125 2057.50585938 2728.88476562 2167.79101562 2729 c 1
3467.79296875 2729 m 2
 3467.79394531 2729 l 2
 3467.82910156 2729 3467.86035156 2729 3467.89550781 2729 c 0
 3467.93066406 2729 3467.96679688 2729 3468.00195312 2729 c 0
 3578.38476562 2729 3668.00195312 2639.3828125 3668.00195312 2529 c 0
 3668.00195312 2418.6171875 3578.38476562 2329 3468.00195312 2329 c 0
 3357.61914062 2329 3268.00195312 2418.6171875 3268.00195312 2529 c 0
 3268.00195312 2639.31152344 3357.5078125 2728.88476562 3467.79296875 2729 c 2
868 1829 m 0
 1182.11621094 1829 1440.19628906 1586.51855469 1465.91210938 1279 c 1
 1570.08789062 1279 l 1
 1595.80371094 1586.51855469 1853.88378906 1828.99902344 2168 1829 c 0
 2482.11621094 1829 2740.19628906 1586.51855469 2765.91210938 1279 c 1
 2870.08789062 1279 l 1
 2895.80371094 1586.51855469 3153.88378906 1828.99902344 3468 1829 c 0
 3782.11621094 1829 4040.19628906 1586.51855469 4065.91210938 1279 c 1
 4168 1279 l 1
 4168 1179 l 1
 4065.91210938 1179 l 1
 4040.19628906 871.481445312 3782.11523438 629 3468 629 c 0
 3153.88378906 629.000976562 2895.80371094 871.481445312 2870.08789062 1179 c 1
 2765.91210938 1179 l 1
 2740.19628906 871.481445312 2482.11523438 629.000976562 2168 629 c 0
 1853.88378906 629.000976562 1595.80371094 871.481445312 1570.08789062 1179 c 1
 1465.91210938 1179 l 1
 1440.19628906 871.481445312 1182.11621094 629.000976562 868 629 c 0
 553.883789062 629 295.803710938 871.481445312 270.087890625 1179 c 1
 168 1179 l 1
 168 1279 l 1
 270.087890625 1279 l 1
 295.803710938 1586.51855469 553.883789062 1829 868 1829 c 0
868 1629 m 0
 647.234375 1629 468 1449.765625 468 1229 c 0
 468 1008.234375 647.234375 829 868 829 c 0
 1088.765625 829 1268 1008.234375 1268 1229 c 0
 1268 1449.76660156 1088.765625 1629 868 1629 c 0
2168 1629 m 0
 1947.23339844 1629 1768 1449.765625 1768 1229 c 0
 1768 1008.234375 1947.23339844 829 2168 829 c 0
 2388.765625 829 2568 1008.234375 2568 1229 c 0
 2568 1449.76660156 2388.765625 1629 2168 1629 c 0
3468 1629 m 0
 3247.23339844 1629 3068 1449.765625 3068 1229 c 0
 3068 1008.234375 3247.23339844 829 3468 829 c 0
 3688.765625 829 3868 1008.234375 3868 1229 c 0
 3868 1449.76660156 3688.765625 1629 3468 1629 c 0
867.791015625 1429 m 2
 867.791992188 1429 l 2
 867.827148438 1429 867.858398438 1429 867.893554688 1429 c 0
 867.9296875 1429 867.96484375 1429 868 1429 c 0
 978.3828125 1429 1068 1339.3828125 1068 1229 c 0
 1068 1118.6171875 978.3828125 1029 868 1029 c 0
 757.6171875 1029 668 1118.6171875 668 1229 c 0
 668 1339.3125 757.505859375 1428.88476562 867.791015625 1429 c 2
2167.79101562 1429 m 2
 2167.79199219 1429 l 2
 2167.82714844 1429 2167.85839844 1429 2167.89355469 1429 c 0
 2167.92871094 1429 2167.96484375 1429 2168 1429 c 0
 2278.3828125 1429 2368 1339.3828125 2368 1229 c 0
 2368 1118.6171875 2278.3828125 1029 2168 1029 c 0
 2057.6171875 1029 1968 1118.6171875 1968 1229 c 0
 1968 1339.31152344 2057.50585938 1428.88476562 2167.79101562 1429 c 2
3467.79199219 1429 m 2
 3467.79394531 1429 l 2
 3467.82910156 1429 3467.86035156 1429 3467.89550781 1429 c 0
 3467.93066406 1429 3467.96582031 1429 3468.00097656 1429 c 0
 3578.38476562 1429 3668.00195312 1339.3828125 3668.00195312 1229 c 0
 3668.00195312 1118.6171875 3578.38476562 1029 3468.00097656 1029 c 0
 3357.61816406 1029 3268.00195312 1118.6171875 3268.00195312 1229 c 0
 3268.00195312 1339.31152344 3357.5078125 1428.88476562 3467.79199219 1429 c 2
508 529 m 1
 1149.66601562 -21 l 1
 1448 -21 l 1
 1448 529 l 1
 2089.66601562 -21 l 1
 2246.33398438 -21 l 1
 2888 529 l 1
 2888 -21 l 1
 3186.33398438 -21 l 1
 3828 529 l 1
 3828 -21 l 1
 4168 -21 l 1
 4168 -121 l 1
 3828 -121 l 1
 3828 -671 l 1
 3186.33398438 -121 l 1
 2888 -121 l 1
 2888 -671 l 1
 2246.33398438 -121 l 1
 2089.66601562 -121 l 1
 1448 -671 l 1
 1448 -121 l 1
 1149.66601562 -121 l 1
 508 -671 l 1
 508 -121 l 1
 168 -121 l 1
 168 -21 l 1
 508 -21 l 1
 508 529 l 1
120 3277 m 1
 168 3277 l 1
 168 -819 l 1
 120 -819 l 1
 120 3277 l 1
4168 3277 m 1
 4216 3277 l 1
 4216 -819 l 1
 4168 -819 l 1
 4168 3277 l 1
EndSplineSet
EndChar

StartChar: uniE42D
Encoding: 58413 58413 44
Width: 4336
Flags: HW
LayerCount: 2
Fore
SplineSet
868 3129 m 0
 1182.11621094 3129 1440.19628906 2886.51855469 1465.91210938 2579 c 1
 1570.08789062 2579 l 1
 1595.80371094 2886.51855469 1853.88378906 3128.99902344 2168 3129 c 0
 2482.11621094 3129 2740.19628906 2886.51855469 2765.91210938 2579 c 1
 2870.08789062 2579 l 1
 2895.80371094 2886.51855469 3153.88378906 3128.99902344 3468 3129 c 0
 3782.11621094 3129 4040.19628906 2886.51855469 4065.91210938 2579 c 1
 4168 2579 l 1
 4168 2479 l 1
 4065.91210938 2479 l 1
 4040.19628906 2171.48144531 3782.11523438 1929.00097656 3468 1929 c 0
 3153.88378906 1929 2895.80371094 2171.48144531 2870.08789062 2479 c 1
 2765.91210938 2479 l 1
 2740.19628906 2171.48144531 2482.11523438 1929.00097656 2168 1929 c 0
 1853.88378906 1929 1595.80371094 2171.48144531 1570.08789062 2479 c 1
 1465.91210938 2479 l 1
 1440.19628906 2171.48144531 1182.11621094 1929.00097656 868 1929 c 0
 553.883789062 1929 295.803710938 2171.48144531 270.087890625 2479 c 1
 168 2479 l 1
 168 2579 l 1
 270.087890625 2579 l 1
 295.803710938 2886.51855469 553.883789062 3129 868 3129 c 0
868 2929 m 0
 647.234375 2929 468 2749.765625 468 2529 c 0
 468 2308.234375 647.234375 2129 868 2129 c 0
 1088.765625 2129 1268 2308.234375 1268 2529 c 0
 1268 2749.765625 1088.765625 2929 868 2929 c 0
2168 2929 m 0
 1947.23339844 2929 1768 2749.765625 1768 2529 c 0
 1768 2308.234375 1947.23339844 2129 2168 2129 c 0
 2388.765625 2129 2568 2308.234375 2568 2529 c 0
 2568 2749.765625 2388.765625 2929 2168 2929 c 0
3468 2929 m 0
 3247.23339844 2929 3068 2749.765625 3068 2529 c 0
 3068 2308.234375 3247.23339844 2129 3468 2129 c 0
 3688.765625 2129 3868 2308.234375 3868 2529 c 0
 3868 2749.765625 3688.765625 2929 3468 2929 c 0
867.791015625 2729 m 0
 867.826171875 2729 867.857421875 2729 867.893554688 2729 c 0
 867.928710938 2729 867.96484375 2729 868 2729 c 0
 978.3828125 2729 1068 2639.3828125 1068 2529 c 0
 1068 2418.6171875 978.3828125 2329 868 2329 c 0
 757.6171875 2329 668 2418.6171875 668 2529 c 0
 668 2639.3125 757.505859375 2728.88476562 867.791015625 2729 c 0
2167.79101562 2729 m 1
 2167.79101562 2729 l 1
 2167.82617188 2729 2167.85742188 2729 2167.89355469 2729 c 0
 2167.92871094 2729 2167.96484375 2729 2168 2729 c 0
 2278.3828125 2729 2368 2639.3828125 2368 2529 c 0
 2368 2418.6171875 2278.3828125 2329 2168 2329 c 0
 2057.6171875 2329 1968 2418.6171875 1968 2529 c 0
 1968 2639.3125 2057.50585938 2728.88476562 2167.79101562 2729 c 1
3467.79296875 2729 m 2
 3467.79394531 2729 l 2
 3467.82910156 2729 3467.86035156 2729 3467.89550781 2729 c 0
 3467.93066406 2729 3467.96679688 2729 3468.00195312 2729 c 0
 3578.38476562 2729 3668.00195312 2639.3828125 3668.00195312 2529 c 0
 3668.00195312 2418.6171875 3578.38476562 2329 3468.00195312 2329 c 0
 3357.61914062 2329 3268.00195312 2418.6171875 3268.00195312 2529 c 0
 3268.00195312 2639.31152344 3357.5078125 2728.88476562 3467.79296875 2729 c 2
508 1829 m 1
 1149.66601562 1279 l 1
 1448 1279 l 1
 1448 1829 l 1
 2089.66601562 1279 l 1
 2246.33398438 1279 l 1
 2888 1829 l 1
 2888 1279 l 1
 3186.33398438 1279 l 1
 3828 1829 l 1
 3828 1279 l 1
 4168 1279 l 1
 4168 1179 l 1
 3828 1179 l 1
 3828 629 l 1
 3186.33398438 1179 l 1
 2888 1179 l 1
 2888 629 l 1
 2246.33398438 1179 l 1
 2089.66601562 1179 l 1
 1448 629 l 1
 1448 1179 l 1
 1149.66601562 1179 l 1
 508 629 l 1
 508 1179 l 1
 168 1179 l 1
 168 1279 l 1
 508 1279 l 1
 508 1829 l 1
168 -21 m 1
 1570.08789062 -21 l 1
 1596.08691406 289.901367188 1856.01367188 529 2168 529 c 0
 2479.98632812 529 2739.91308594 289.901367188 2765.91210938 -21 c 1
 4168 -21 l 1
 4168 -121 l 1
 2765.91210938 -121 l 1
 2739.91308594 -431.901367188 2479.98632812 -671 2168 -671 c 0
 1856.01367188 -671 1596.0859375 -431.901367188 1570.08789062 -121 c 1
 168 -121 l 1
 168 -21 l 1
2168 329 m 0
 1947.0859375 329 1768 149.9140625 1768 -71 c 0
 1768 -291.9140625 1947.0859375 -471 2168 -471 c 0
 2388.9140625 -471 2568 -291.9140625 2568 -71 c 0
 2568 149.9140625 2388.9140625 329 2168 329 c 0
2167.79199219 129 m 2
 2168.00097656 129 l 2
 2278.45800781 129 2368.00097656 39.45703125 2368.00097656 -71 c 0
 2368.00097656 -181.45703125 2278.45800781 -271 2168.00097656 -271 c 0
 2057.54394531 -271 1968.00097656 -181.45703125 1968.00097656 -71 c 0
 1968.00097656 39.3759765625 2057.41699219 128.884765625 2167.79199219 129 c 2
120 3277 m 1
 168 3277 l 1
 168 -819 l 1
 120 -819 l 1
 120 3277 l 1
4168 3277 m 1
 4216 3277 l 1
 4216 -819 l 1
 4168 -819 l 1
 4168 3277 l 1
EndSplineSet
EndChar

StartChar: uniE42E
Encoding: 58414 58414 45
Width: 4336
Flags: HW
LayerCount: 2
Fore
SplineSet
868 3129 m 0
 1182.11621094 3129 1440.19628906 2886.51855469 1465.91210938 2579 c 1
 1570.08789062 2579 l 1
 1595.80371094 2886.51855469 1853.88378906 3128.99902344 2168 3129 c 0
 2482.11621094 3129 2740.19628906 2886.51855469 2765.91210938 2579 c 1
 2870.08789062 2579 l 1
 2895.80371094 2886.51855469 3153.88378906 3128.99902344 3468 3129 c 0
 3782.11621094 3129 4040.19628906 2886.51855469 4065.91210938 2579 c 1
 4168 2579 l 1
 4168 2479 l 1
 4065.91210938 2479 l 1
 4040.19628906 2171.48144531 3782.11523438 1929.00097656 3468 1929 c 0
 3153.88378906 1929 2895.80371094 2171.48144531 2870.08789062 2479 c 1
 2765.91210938 2479 l 1
 2740.19628906 2171.48144531 2482.11523438 1929.00097656 2168 1929 c 0
 1853.88378906 1929 1595.80371094 2171.48144531 1570.08789062 2479 c 1
 1465.91210938 2479 l 1
 1440.19628906 2171.48144531 1182.11621094 1929.00097656 868 1929 c 0
 553.883789062 1929 295.803710938 2171.48144531 270.087890625 2479 c 1
 168 2479 l 1
 168 2579 l 1
 270.087890625 2579 l 1
 295.803710938 2886.51855469 553.883789062 3129 868 3129 c 0
868 2929 m 0
 647.234375 2929 468 2749.765625 468 2529 c 0
 468 2308.234375 647.234375 2129 868 2129 c 0
 1088.765625 2129 1268 2308.234375 1268 2529 c 0
 1268 2749.765625 1088.765625 2929 868 2929 c 0
2168 2929 m 0
 1947.23339844 2929 1768 2749.765625 1768 2529 c 0
 1768 2308.234375 1947.23339844 2129 2168 2129 c 0
 2388.765625 2129 2568 2308.234375 2568 2529 c 0
 2568 2749.765625 2388.765625 2929 2168 2929 c 0
3468 2929 m 0
 3247.23339844 2929 3068 2749.765625 3068 2529 c 0
 3068 2308.234375 3247.23339844 2129 3468 2129 c 0
 3688.765625 2129 3868 2308.234375 3868 2529 c 0
 3868 2749.765625 3688.765625 2929 3468 2929 c 0
867.791015625 2729 m 0
 867.826171875 2729 867.857421875 2729 867.893554688 2729 c 0
 867.928710938 2729 867.96484375 2729 868 2729 c 0
 978.3828125 2729 1068 2639.3828125 1068 2529 c 0
 1068 2418.6171875 978.3828125 2329 868 2329 c 0
 757.6171875 2329 668 2418.6171875 668 2529 c 0
 668 2639.3125 757.505859375 2728.88476562 867.791015625 2729 c 0
2167.79101562 2729 m 1
 2167.79101562 2729 l 1
 2167.82617188 2729 2167.85742188 2729 2167.89355469 2729 c 0
 2167.92871094 2729 2167.96484375 2729 2168 2729 c 0
 2278.3828125 2729 2368 2639.3828125 2368 2529 c 0
 2368 2418.6171875 2278.3828125 2329 2168 2329 c 0
 2057.6171875 2329 1968 2418.6171875 1968 2529 c 0
 1968 2639.3125 2057.50585938 2728.88476562 2167.79101562 2729 c 1
3467.79296875 2729 m 2
 3467.79394531 2729 l 2
 3467.82910156 2729 3467.86035156 2729 3467.89550781 2729 c 0
 3467.93066406 2729 3467.96679688 2729 3468.00195312 2729 c 0
 3578.38476562 2729 3668.00195312 2639.3828125 3668.00195312 2529 c 0
 3668.00195312 2418.6171875 3578.38476562 2329 3468.00195312 2329 c 0
 3357.61914062 2329 3268.00195312 2418.6171875 3268.00195312 2529 c 0
 3268.00195312 2639.31152344 3357.5078125 2728.88476562 3467.79296875 2729 c 2
508 1829 m 1
 1149.66601562 1279 l 1
 1448 1279 l 1
 1448 1829 l 1
 2089.66601562 1279 l 1
 2246.33398438 1279 l 1
 2888 1829 l 1
 2888 1279 l 1
 3186.33398438 1279 l 1
 3828 1829 l 1
 3828 1279 l 1
 4168 1279 l 1
 4168 1179 l 1
 3828 1179 l 1
 3828 629 l 1
 3186.33398438 1179 l 1
 2888 1179 l 1
 2888 629 l 1
 2246.33398438 1179 l 1
 2089.66601562 1179 l 1
 1448 629 l 1
 1448 1179 l 1
 1149.66601562 1179 l 1
 508 629 l 1
 508 1179 l 1
 168 1179 l 1
 168 1279 l 1
 508 1279 l 1
 508 1829 l 1
168 -21 m 1
 1148 -21 l 1
 1148 529 l 1
 1789.66601562 -21 l 1
 2546.33398438 -21 l 1
 3188 529 l 1
 3188 -21 l 1
 4167.99902344 -21 l 1
 4167.99902344 -121 l 1
 3188 -121 l 1
 3188 -671 l 1
 2546.33398438 -121 l 1
 1789.66601562 -121 l 1
 1148 -671 l 1
 1148 -121 l 1
 168 -121 l 1
 168 -21 l 1
120 3277 m 1
 168 3277 l 1
 168 -819 l 1
 120 -819 l 1
 120 3277 l 1
4168 3277 m 1
 4216 3277 l 1
 4216 -819 l 1
 4168 -819 l 1
 4168 3277 l 1
EndSplineSet
EndChar

StartChar: uniE42F
Encoding: 58415 58415 46
Width: 4336
Flags: HW
LayerCount: 2
Fore
SplineSet
868 3129 m 0
 1182.11621094 3129 1440.19628906 2886.51855469 1465.91210938 2579 c 1
 1570.08789062 2579 l 1
 1595.80371094 2886.51855469 1853.88378906 3128.99902344 2168 3129 c 0
 2482.11621094 3129 2740.19628906 2886.51855469 2765.91210938 2579 c 1
 2870.08789062 2579 l 1
 2895.80371094 2886.51855469 3153.88378906 3128.99902344 3468 3129 c 0
 3782.11621094 3129 4040.19628906 2886.51855469 4065.91210938 2579 c 1
 4168 2579 l 1
 4168 2479 l 1
 4065.91210938 2479 l 1
 4040.19628906 2171.48144531 3782.11523438 1929.00097656 3468 1929 c 0
 3153.88378906 1929 2895.80371094 2171.48144531 2870.08789062 2479 c 1
 2765.91210938 2479 l 1
 2740.19628906 2171.48144531 2482.11523438 1929.00097656 2168 1929 c 0
 1853.88378906 1929 1595.80371094 2171.48144531 1570.08789062 2479 c 1
 1465.91210938 2479 l 1
 1440.19628906 2171.48144531 1182.11621094 1929.00097656 868 1929 c 0
 553.883789062 1929 295.803710938 2171.48144531 270.087890625 2479 c 1
 168 2479 l 1
 168 2579 l 1
 270.087890625 2579 l 1
 295.803710938 2886.51855469 553.883789062 3129 868 3129 c 0
868 2929 m 0
 647.234375 2929 468 2749.765625 468 2529 c 0
 468 2308.234375 647.234375 2129 868 2129 c 0
 1088.765625 2129 1268 2308.234375 1268 2529 c 0
 1268 2749.765625 1088.765625 2929 868 2929 c 0
2168 2929 m 0
 1947.23339844 2929 1768 2749.765625 1768 2529 c 0
 1768 2308.234375 1947.23339844 2129 2168 2129 c 0
 2388.765625 2129 2568 2308.234375 2568 2529 c 0
 2568 2749.765625 2388.765625 2929 2168 2929 c 0
3468 2929 m 0
 3247.23339844 2929 3068 2749.765625 3068 2529 c 0
 3068 2308.234375 3247.23339844 2129 3468 2129 c 0
 3688.765625 2129 3868 2308.234375 3868 2529 c 0
 3868 2749.765625 3688.765625 2929 3468 2929 c 0
867.791015625 2729 m 0
 867.826171875 2729 867.857421875 2729 867.893554688 2729 c 0
 867.928710938 2729 867.96484375 2729 868 2729 c 0
 978.3828125 2729 1068 2639.3828125 1068 2529 c 0
 1068 2418.6171875 978.3828125 2329 868 2329 c 0
 757.6171875 2329 668 2418.6171875 668 2529 c 0
 668 2639.3125 757.505859375 2728.88476562 867.791015625 2729 c 0
2167.79101562 2729 m 1
 2167.79101562 2729 l 1
 2167.82617188 2729 2167.85742188 2729 2167.89355469 2729 c 0
 2167.92871094 2729 2167.96484375 2729 2168 2729 c 0
 2278.3828125 2729 2368 2639.3828125 2368 2529 c 0
 2368 2418.6171875 2278.3828125 2329 2168 2329 c 0
 2057.6171875 2329 1968 2418.6171875 1968 2529 c 0
 1968 2639.3125 2057.50585938 2728.88476562 2167.79101562 2729 c 1
3467.79296875 2729 m 2
 3467.79394531 2729 l 2
 3467.82910156 2729 3467.86035156 2729 3467.89550781 2729 c 0
 3467.93066406 2729 3467.96679688 2729 3468.00195312 2729 c 0
 3578.38476562 2729 3668.00195312 2639.3828125 3668.00195312 2529 c 0
 3668.00195312 2418.6171875 3578.38476562 2329 3468.00195312 2329 c 0
 3357.61914062 2329 3268.00195312 2418.6171875 3268.00195312 2529 c 0
 3268.00195312 2639.31152344 3357.5078125 2728.88476562 3467.79296875 2729 c 2
508 1829 m 1
 1149.66601562 1279 l 1
 1448 1279 l 1
 1448 1829 l 1
 2089.66601562 1279 l 1
 2246.33398438 1279 l 1
 2888 1829 l 1
 2888 1279 l 1
 3186.33398438 1279 l 1
 3828 1829 l 1
 3828 1279 l 1
 4168 1279 l 1
 4168 1179 l 1
 3828 1179 l 1
 3828 629 l 1
 3186.33398438 1179 l 1
 2888 1179 l 1
 2888 629 l 1
 2246.33398438 1179 l 1
 2089.66601562 1179 l 1
 1448 629 l 1
 1448 1179 l 1
 1149.66601562 1179 l 1
 508 629 l 1
 508 1179 l 1
 168 1179 l 1
 168 1279 l 1
 508 1279 l 1
 508 1829 l 1
868 529 m 0
 1182.11621094 529 1440.19628906 286.518554688 1465.91210938 -21 c 1
 1570.08789062 -21 l 1
 1595.80371094 286.518554688 1853.88378906 528.999023438 2168 529 c 0
 2482.11621094 529 2740.1953125 286.518554688 2765.91210938 -21 c 1
 2870.08789062 -21 l 1
 2895.80371094 286.518554688 3153.88378906 529 3468 529 c 0
 3782.11621094 529 4040.19628906 286.518554688 4065.91210938 -21 c 1
 4168 -21 l 1
 4168 -121 l 1
 4065.91210938 -121 l 1
 4040.19628906 -428.518554688 3782.11523438 -670.999023438 3468 -671 c 0
 3153.88378906 -671 2895.80371094 -428.518554688 2870.08789062 -121 c 1
 2765.91210938 -121 l 1
 2740.1953125 -428.518554688 2482.11523438 -670.999023438 2168 -671 c 0
 1853.88378906 -670.999023438 1595.80371094 -428.518554688 1570.08789062 -121 c 1
 1465.91210938 -121 l 1
 1440.19628906 -428.518554688 1182.11523438 -670.999023438 868 -671 c 0
 553.883789062 -671 295.803710938 -428.518554688 270.087890625 -121 c 1
 168 -121 l 1
 168 -21 l 1
 270.087890625 -21 l 1
 295.803710938 286.518554688 553.883789062 529 868 529 c 0
868 329 m 0
 647.234375 329 468 149.766601562 468 -71 c 0
 468 -291.765625 647.233398438 -471 868 -471 c 0
 1088.765625 -471 1268 -291.765625 1268 -71 c 0
 1268 149.766601562 1088.765625 329 868 329 c 0
2168 329 m 0
 1947.23339844 329 1768 149.766601562 1768 -71 c 0
 1768 -291.765625 1947.23339844 -471 2168 -471 c 0
 2388.765625 -471 2568 -291.765625 2568 -71 c 0
 2568 149.766601562 2388.765625 329 2168 329 c 0
3468 329 m 0
 3247.23339844 329 3068 149.766601562 3068 -71 c 0
 3068 -291.765625 3247.23339844 -471 3468 -471 c 0
 3688.765625 -471 3868 -291.765625 3868 -71 c 0
 3868 149.766601562 3688.765625 329 3468 329 c 0
867.791015625 129 m 2
 867.791992188 129 l 2
 867.827148438 129 867.858398438 129 867.893554688 129 c 0
 867.928710938 129 867.96484375 129 868 129 c 0
 978.3828125 129 1068 39.3828125 1068 -71 c 0
 1068 -181.3828125 978.3828125 -271 868 -271 c 0
 757.6171875 -271 668 -181.3828125 668 -71 c 0
 668 39.3125 757.505859375 128.884765625 867.791015625 129 c 2
2167.79101562 129 m 2
 2167.79199219 129 l 2
 2167.82714844 129 2167.85839844 129 2167.89355469 129 c 0
 2167.92871094 129 2167.96386719 129 2168 129 c 0
 2278.3828125 129 2368 39.3828125 2368 -71 c 0
 2368 -181.3828125 2278.3828125 -271 2168 -271 c 0
 2057.61621094 -271 1968 -181.3828125 1968 -71 c 0
 1968 39.3125 2057.50585938 128.884765625 2167.79101562 129 c 2
3467.79296875 129 m 2
 3467.79394531 129 l 2
 3467.82910156 129 3467.86035156 129 3467.89550781 129 c 0
 3467.93066406 129 3467.96679688 129 3468.00195312 129 c 0
 3578.38476562 129 3668.00195312 39.3828125 3668.00195312 -71 c 0
 3668.00195312 -181.3828125 3578.38476562 -271 3468.00195312 -271 c 0
 3357.61914062 -271 3268.00195312 -181.3828125 3268.00195312 -71 c 0
 3268.00195312 39.3125 3357.5078125 128.884765625 3467.79296875 129 c 2
120 3277 m 1
 168 3277 l 1
 168 -819 l 1
 120 -819 l 1
 120 3277 l 1
4168 3277 m 1
 4216 3277 l 1
 4216 -819 l 1
 4168 -819 l 1
 4168 3277 l 1
EndSplineSet
EndChar

StartChar: uniE430
Encoding: 58416 58416 47
Width: 4336
Flags: HW
LayerCount: 2
Fore
SplineSet
868 3129 m 0
 1182.11621094 3129 1440.19628906 2886.51855469 1465.91210938 2579 c 1
 1570.08789062 2579 l 1
 1595.80371094 2886.51855469 1853.88378906 3128.99902344 2168 3129 c 0
 2482.11621094 3129 2740.19628906 2886.51855469 2765.91210938 2579 c 1
 2870.08789062 2579 l 1
 2895.80371094 2886.51855469 3153.88378906 3128.99902344 3468 3129 c 0
 3782.11621094 3129 4040.19628906 2886.51855469 4065.91210938 2579 c 1
 4168 2579 l 1
 4168 2479 l 1
 4065.91210938 2479 l 1
 4040.19628906 2171.48144531 3782.11523438 1929.00097656 3468 1929 c 0
 3153.88378906 1929 2895.80371094 2171.48144531 2870.08789062 2479 c 1
 2765.91210938 2479 l 1
 2740.19628906 2171.48144531 2482.11523438 1929.00097656 2168 1929 c 0
 1853.88378906 1929 1595.80371094 2171.48144531 1570.08789062 2479 c 1
 1465.91210938 2479 l 1
 1440.19628906 2171.48144531 1182.11621094 1929.00097656 868 1929 c 0
 553.883789062 1929 295.803710938 2171.48144531 270.087890625 2479 c 1
 168 2479 l 1
 168 2579 l 1
 270.087890625 2579 l 1
 295.803710938 2886.51855469 553.883789062 3129 868 3129 c 0
868 2929 m 0
 647.234375 2929 468 2749.765625 468 2529 c 0
 468 2308.234375 647.234375 2129 868 2129 c 0
 1088.765625 2129 1268 2308.234375 1268 2529 c 0
 1268 2749.765625 1088.765625 2929 868 2929 c 0
2168 2929 m 0
 1947.23339844 2929 1768 2749.765625 1768 2529 c 0
 1768 2308.234375 1947.23339844 2129 2168 2129 c 0
 2388.765625 2129 2568 2308.234375 2568 2529 c 0
 2568 2749.765625 2388.765625 2929 2168 2929 c 0
3468 2929 m 0
 3247.23339844 2929 3068 2749.765625 3068 2529 c 0
 3068 2308.234375 3247.23339844 2129 3468 2129 c 0
 3688.765625 2129 3868 2308.234375 3868 2529 c 0
 3868 2749.765625 3688.765625 2929 3468 2929 c 0
867.791015625 2729 m 0
 867.826171875 2729 867.857421875 2729 867.893554688 2729 c 0
 867.928710938 2729 867.96484375 2729 868 2729 c 0
 978.3828125 2729 1068 2639.3828125 1068 2529 c 0
 1068 2418.6171875 978.3828125 2329 868 2329 c 0
 757.6171875 2329 668 2418.6171875 668 2529 c 0
 668 2639.3125 757.505859375 2728.88476562 867.791015625 2729 c 0
2167.79101562 2729 m 1
 2167.79101562 2729 l 1
 2167.82617188 2729 2167.85742188 2729 2167.89355469 2729 c 0
 2167.92871094 2729 2167.96484375 2729 2168 2729 c 0
 2278.3828125 2729 2368 2639.3828125 2368 2529 c 0
 2368 2418.6171875 2278.3828125 2329 2168 2329 c 0
 2057.6171875 2329 1968 2418.6171875 1968 2529 c 0
 1968 2639.3125 2057.50585938 2728.88476562 2167.79101562 2729 c 1
3467.79296875 2729 m 2
 3467.79394531 2729 l 2
 3467.82910156 2729 3467.86035156 2729 3467.89550781 2729 c 0
 3467.93066406 2729 3467.96679688 2729 3468.00195312 2729 c 0
 3578.38476562 2729 3668.00195312 2639.3828125 3668.00195312 2529 c 0
 3668.00195312 2418.6171875 3578.38476562 2329 3468.00195312 2329 c 0
 3357.61914062 2329 3268.00195312 2418.6171875 3268.00195312 2529 c 0
 3268.00195312 2639.31152344 3357.5078125 2728.88476562 3467.79296875 2729 c 2
508 1829 m 1
 1149.66601562 1279 l 1
 1448 1279 l 1
 1448 1829 l 1
 2089.66601562 1279 l 1
 2246.33398438 1279 l 1
 2888 1829 l 1
 2888 1279 l 1
 3186.33398438 1279 l 1
 3828 1829 l 1
 3828 1279 l 1
 4168 1279 l 1
 4168 1179 l 1
 3828 1179 l 1
 3828 629 l 1
 3186.33398438 1179 l 1
 2888 1179 l 1
 2888 629 l 1
 2246.33398438 1179 l 1
 2089.66601562 1179 l 1
 1448 629 l 1
 1448 1179 l 1
 1149.66601562 1179 l 1
 508 629 l 1
 508 1179 l 1
 168 1179 l 1
 168 1279 l 1
 508 1279 l 1
 508 1829 l 1
508 529 m 1
 1149.66601562 -21 l 1
 1448 -21 l 1
 1448 529 l 1
 2089.66601562 -21 l 1
 2246.33398438 -21 l 1
 2888 529 l 1
 2888 -21 l 1
 3186.33398438 -21 l 1
 3827.99902344 529 l 1
 3827.99902344 -21 l 1
 4168 -21 l 1
 4168 -121 l 1
 3827.99902344 -121 l 1
 3827.99902344 -671 l 1
 3186.33398438 -121 l 1
 2888 -121 l 1
 2888 -671 l 1
 2246.33398438 -121 l 1
 2089.66601562 -121 l 1
 1448 -671 l 1
 1448 -121 l 1
 1149.66601562 -121 l 1
 508 -671 l 1
 508 -121 l 1
 168 -121 l 1
 168 -21 l 1
 508 -21 l 1
 508 529 l 1
120 3277 m 1
 168 3277 l 1
 168 -819 l 1
 120 -819 l 1
 120 3277 l 1
4168 3277 m 1
 4216 3277 l 1
 4216 -819 l 1
 4168 -819 l 1
 4168 3277 l 1
EndSplineSet
EndChar

StartChar: uniE431
Encoding: 58417 58417 48
Width: 4336
Flags: HW
LayerCount: 2
Fore
SplineSet
168 -21 m 1
 1570.08789062 -21 l 1
 1596.08691406 289.901367188 1856.01367188 529 2168 529 c 0
 2479.98632812 529 2739.91308594 289.901367188 2765.91210938 -21 c 1
 4168 -21 l 1
 4168 -121 l 1
 2765.91210938 -121 l 1
 2739.91308594 -431.901367188 2479.98632812 -671 2168 -671 c 0
 1856.01367188 -671 1596.08691406 -431.901367188 1570.08789062 -121 c 1
 168 -121 l 1
 168 -21 l 1
2168 329 m 0
 1947.0859375 329 1768 149.9140625 1768 -71 c 0
 1768 -291.9140625 1947.0859375 -471 2168 -471 c 0
 2388.9140625 -471 2568 -291.9140625 2568 -71 c 0
 2568 149.9140625 2388.9140625 329 2168 329 c 0
2167.79101562 129 m 2
 2168 129 l 2
 2278.45703125 129 2368 39.45703125 2368 -71 c 0
 2368 -181.45703125 2278.45703125 -271 2168 -271 c 0
 2057.54296875 -271 1968 -181.45703125 1968 -71 c 0
 1968 39.3759765625 2057.41601562 128.884765625 2167.79101562 129 c 2
508 3129 m 1
 1149.66601562 2579 l 1
 1448 2579 l 1
 1448 3129 l 1
 2089.66601562 2579 l 1
 2246.33398438 2579 l 1
 2888 3129 l 1
 2888 2579 l 1
 3186.33398438 2579 l 1
 3827.99902344 3129 l 1
 3827.99902344 2579 l 1
 4168 2579 l 1
 4168 2479 l 1
 3827.99902344 2479 l 1
 3827.99902344 1929 l 1
 3186.33398438 2479 l 1
 2888 2479 l 1
 2888 1929 l 1
 2246.33398438 2479 l 1
 2089.66601562 2479 l 1
 1448 1929 l 1
 1448 2479 l 1
 1149.66601562 2479 l 1
 508 1929 l 1
 508 2479 l 1
 168 2479 l 1
 168 2579 l 1
 508 2579 l 1
 508 3129 l 1
168 1279 m 1
 1570.08789062 1279 l 1
 1596.08691406 1589.90136719 1856.01367188 1829 2168 1829 c 0
 2479.98632812 1829 2739.91308594 1589.90136719 2765.91210938 1279 c 1
 4168 1279 l 1
 4168 1179 l 1
 2765.91210938 1179 l 1
 2739.91308594 868.098632812 2479.98632812 629 2168 629 c 0
 1856.01367188 629 1596.08691406 868.098632812 1570.08789062 1179 c 1
 168 1179 l 1
 168 1279 l 1
2168 1629 m 0
 1947.0859375 1629 1768 1449.9140625 1768 1229 c 0
 1768 1008.0859375 1947.0859375 829 2168 829 c 0
 2388.9140625 829 2568 1008.0859375 2568 1229 c 0
 2568 1449.9140625 2388.9140625 1629 2168 1629 c 0
2167.79199219 1429 m 2
 2168.00097656 1429 l 2
 2278.45800781 1429 2368.00097656 1339.45703125 2368.00097656 1229 c 0
 2368.00097656 1118.54296875 2278.45800781 1029 2168.00097656 1029 c 0
 2057.54394531 1029 1968.00097656 1118.54296875 1968.00097656 1229 c 0
 1968.00097656 1339.37597656 2057.41699219 1428.88476562 2167.79199219 1429 c 2
120 3277 m 1
 168 3277 l 1
 168 -819 l 1
 120 -819 l 1
 120 3277 l 1
4168 3277 m 1
 4216 3277 l 1
 4216 -819 l 1
 4168 -819 l 1
 4168 3277 l 1
EndSplineSet
EndChar

StartChar: uniE432
Encoding: 58418 58418 49
Width: 4336
Flags: HW
LayerCount: 2
Fore
SplineSet
508 3129 m 1
 1149.66601562 2579 l 1
 1448 2579 l 1
 1448 3129 l 1
 2089.66601562 2579 l 1
 2246.33398438 2579 l 1
 2888 3129 l 1
 2888 2579 l 1
 3186.33398438 2579 l 1
 3827.99902344 3129 l 1
 3827.99902344 2579 l 1
 4168 2579 l 1
 4168 2479 l 1
 3827.99902344 2479 l 1
 3827.99902344 1929 l 1
 3186.33398438 2479 l 1
 2888 2479 l 1
 2888 1929 l 1
 2246.33398438 2479 l 1
 2089.66601562 2479 l 1
 1448 1929 l 1
 1448 2479 l 1
 1149.66601562 2479 l 1
 508 1929 l 1
 508 2479 l 1
 168 2479 l 1
 168 2579 l 1
 508 2579 l 1
 508 3129 l 1
168 1279 m 1
 1570.08789062 1279 l 1
 1596.08691406 1589.90136719 1856.01367188 1829 2168 1829 c 0
 2479.98632812 1829 2739.91308594 1589.90136719 2765.91210938 1279 c 1
 4168 1279 l 1
 4168 1179 l 1
 2765.91210938 1179 l 1
 2739.91308594 868.098632812 2479.98632812 629 2168 629 c 0
 1856.01367188 629 1596.08691406 868.098632812 1570.08789062 1179 c 1
 168 1179 l 1
 168 1279 l 1
2168 1629 m 0
 1947.0859375 1629 1768 1449.9140625 1768 1229 c 0
 1768 1008.0859375 1947.0859375 829 2168 829 c 0
 2388.9140625 829 2568 1008.0859375 2568 1229 c 0
 2568 1449.9140625 2388.9140625 1629 2168 1629 c 0
2167.79199219 1429 m 2
 2168.00097656 1429 l 2
 2278.45800781 1429 2368.00097656 1339.45703125 2368.00097656 1229 c 0
 2368.00097656 1118.54296875 2278.45800781 1029 2168.00097656 1029 c 0
 2057.54394531 1029 1968.00097656 1118.54296875 1968.00097656 1229 c 0
 1968.00097656 1339.37597656 2057.41699219 1428.88476562 2167.79199219 1429 c 2
168 -21 m 1
 1148 -21 l 1
 1148 529 l 1
 1789.66601562 -21 l 1
 2546.33398438 -21 l 1
 3188 529 l 1
 3188 -21 l 1
 4168 -21 l 1
 4168 -121 l 1
 3188 -121 l 1
 3188 -671 l 1
 2546.33398438 -121 l 1
 1789.66601562 -121 l 1
 1148 -671 l 1
 1148 -121 l 1
 168 -121 l 1
 168 -21 l 1
120 3277 m 1
 168 3277 l 1
 168 -819 l 1
 120 -819 l 1
 120 3277 l 1
4168 3277 m 1
 4216 3277 l 1
 4216 -819 l 1
 4168 -819 l 1
 4168 3277 l 1
EndSplineSet
EndChar

StartChar: uniE433
Encoding: 58419 58419 50
Width: 4336
Flags: HW
LayerCount: 2
Fore
SplineSet
508 3129 m 1
 1149.66601562 2579 l 1
 1448 2579 l 1
 1448 3129 l 1
 2089.66601562 2579 l 1
 2246.33398438 2579 l 1
 2888 3129 l 1
 2888 2579 l 1
 3186.33398438 2579 l 1
 3827.99902344 3129 l 1
 3827.99902344 2579 l 1
 4168 2579 l 1
 4168 2479 l 1
 3827.99902344 2479 l 1
 3827.99902344 1929 l 1
 3186.33398438 2479 l 1
 2888 2479 l 1
 2888 1929 l 1
 2246.33398438 2479 l 1
 2089.66601562 2479 l 1
 1448 1929 l 1
 1448 2479 l 1
 1149.66601562 2479 l 1
 508 1929 l 1
 508 2479 l 1
 168 2479 l 1
 168 2579 l 1
 508 2579 l 1
 508 3129 l 1
168 1279 m 1
 1570.08789062 1279 l 1
 1596.08691406 1589.90136719 1856.01367188 1829 2168 1829 c 0
 2479.98632812 1829 2739.91308594 1589.90136719 2765.91210938 1279 c 1
 4168 1279 l 1
 4168 1179 l 1
 2765.91210938 1179 l 1
 2739.91308594 868.098632812 2479.98632812 629 2168 629 c 0
 1856.01367188 629 1596.08691406 868.098632812 1570.08789062 1179 c 1
 168 1179 l 1
 168 1279 l 1
2168 1629 m 0
 1947.0859375 1629 1768 1449.9140625 1768 1229 c 0
 1768 1008.0859375 1947.0859375 829 2168 829 c 0
 2388.9140625 829 2568 1008.0859375 2568 1229 c 0
 2568 1449.9140625 2388.9140625 1629 2168 1629 c 0
2167.79199219 1429 m 2
 2168.00097656 1429 l 2
 2278.45800781 1429 2368.00097656 1339.45703125 2368.00097656 1229 c 0
 2368.00097656 1118.54296875 2278.45800781 1029 2168.00097656 1029 c 0
 2057.54394531 1029 1968.00097656 1118.54296875 1968.00097656 1229 c 0
 1968.00097656 1339.37597656 2057.41699219 1428.88476562 2167.79199219 1429 c 2
868 529 m 0
 1182.11621094 529 1440.19628906 286.518554688 1465.91210938 -21 c 1
 1570.08789062 -21 l 1
 1595.80371094 286.518554688 1853.88378906 528.999023438 2168 529 c 0
 2482.11621094 529 2740.19628906 286.518554688 2765.91210938 -21 c 1
 2870.08789062 -21 l 1
 2895.80371094 286.518554688 3153.88378906 529 3468 529 c 0
 3782.11621094 529 4040.19628906 286.518554688 4065.91210938 -21 c 1
 4168 -21 l 1
 4168 -121 l 1
 4065.91210938 -121 l 1
 4040.19628906 -428.518554688 3782.11621094 -670.999023438 3468 -671 c 0
 3153.88378906 -671 2895.80371094 -428.518554688 2870.08789062 -121 c 1
 2765.91210938 -121 l 1
 2740.19628906 -428.518554688 2482.11523438 -670.999023438 2168 -671 c 0
 1853.88378906 -670.999023438 1595.80371094 -428.518554688 1570.08789062 -121 c 1
 1465.91210938 -121 l 1
 1440.19628906 -428.518554688 1182.11621094 -670.999023438 868 -671 c 0
 553.883789062 -671 295.803710938 -428.518554688 270.087890625 -121 c 1
 168 -121 l 1
 168 -21 l 1
 270.087890625 -21 l 1
 295.803710938 286.518554688 553.883789062 529 868 529 c 0
868 329 m 0
 647.234375 329 468 149.766601562 468 -71 c 0
 468 -291.765625 647.234375 -471 868 -471 c 0
 1088.765625 -471 1268 -291.765625 1268 -71 c 0
 1268 149.766601562 1088.765625 329 868 329 c 0
2168 329 m 0
 1947.23339844 329 1768 149.766601562 1768 -71 c 0
 1768 -291.765625 1947.23339844 -471 2168 -471 c 0
 2388.765625 -471 2568 -291.765625 2568 -71 c 0
 2568 149.766601562 2388.765625 329 2168 329 c 0
3468 329 m 0
 3247.234375 329 3068 149.766601562 3068 -71 c 0
 3068 -291.765625 3247.234375 -471 3468 -471 c 0
 3688.765625 -471 3868 -291.765625 3868 -71 c 0
 3868 149.766601562 3688.765625 329 3468 329 c 0
867.791015625 129 m 0
 867.826171875 129 867.857421875 129 867.893554688 129 c 0
 867.928710938 129 867.96484375 129 868 129 c 0
 978.3828125 129 1068 39.3828125 1068 -71 c 0
 1068 -181.3828125 978.3828125 -271 868 -271 c 0
 757.6171875 -271 668 -181.3828125 668 -71 c 0
 668 39.3125 757.505859375 128.884765625 867.791015625 129 c 0
2167.79101562 129 m 2
 2167.79199219 129 l 2
 2167.82714844 129 2167.85839844 129 2167.89355469 129 c 0
 2167.92871094 129 2167.96484375 129 2168 129 c 0
 2278.3828125 129 2368 39.3828125 2368 -71 c 0
 2368 -181.3828125 2278.3828125 -271 2168 -271 c 0
 2057.6171875 -271 1968 -181.3828125 1968 -71 c 0
 1968 39.3125 2057.50585938 128.884765625 2167.79101562 129 c 2
3467.79296875 129 m 2
 3467.79394531 129 l 2
 3467.82910156 129 3467.86035156 129 3467.89550781 129 c 0
 3467.93164062 129 3467.96679688 129 3468.00195312 129 c 0
 3578.38476562 129 3668.00195312 39.3828125 3668.00195312 -71 c 0
 3668.00195312 -181.3828125 3578.38476562 -271 3468.00195312 -271 c 0
 3357.61914062 -271 3268.00195312 -181.3828125 3268.00195312 -71 c 0
 3268.00195312 39.3125 3357.5078125 128.884765625 3467.79296875 129 c 2
120 3277 m 1
 168 3277 l 1
 168 -819 l 1
 120 -819 l 1
 120 3277 l 1
4168 3277 m 1
 4216 3277 l 1
 4216 -819 l 1
 4168 -819 l 1
 4168 3277 l 1
EndSplineSet
EndChar

StartChar: uniE434
Encoding: 58420 58420 51
Width: 4336
Flags: HW
LayerCount: 2
Fore
SplineSet
508 3129 m 1
 1149.66601562 2579 l 1
 1448 2579 l 1
 1448 3129 l 1
 2089.66601562 2579 l 1
 2246.33398438 2579 l 1
 2888 3129 l 1
 2888 2579 l 1
 3186.33398438 2579 l 1
 3827.99902344 3129 l 1
 3827.99902344 2579 l 1
 4168 2579 l 1
 4168 2479 l 1
 3827.99902344 2479 l 1
 3827.99902344 1929 l 1
 3186.33398438 2479 l 1
 2888 2479 l 1
 2888 1929 l 1
 2246.33398438 2479 l 1
 2089.66601562 2479 l 1
 1448 1929 l 1
 1448 2479 l 1
 1149.66601562 2479 l 1
 508 1929 l 1
 508 2479 l 1
 168 2479 l 1
 168 2579 l 1
 508 2579 l 1
 508 3129 l 1
168 1279 m 1
 1570.08789062 1279 l 1
 1596.08691406 1589.90136719 1856.01367188 1829 2168 1829 c 0
 2479.98632812 1829 2739.91308594 1589.90136719 2765.91210938 1279 c 1
 4168 1279 l 1
 4168 1179 l 1
 2765.91210938 1179 l 1
 2739.91308594 868.098632812 2479.98632812 629 2168 629 c 0
 1856.01367188 629 1596.08691406 868.098632812 1570.08789062 1179 c 1
 168 1179 l 1
 168 1279 l 1
2168 1629 m 0
 1947.0859375 1629 1768 1449.9140625 1768 1229 c 0
 1768 1008.0859375 1947.0859375 829 2168 829 c 0
 2388.9140625 829 2568 1008.0859375 2568 1229 c 0
 2568 1449.9140625 2388.9140625 1629 2168 1629 c 0
2167.79199219 1429 m 2
 2168.00097656 1429 l 2
 2278.45800781 1429 2368.00097656 1339.45703125 2368.00097656 1229 c 0
 2368.00097656 1118.54296875 2278.45800781 1029 2168.00097656 1029 c 0
 2057.54394531 1029 1968.00097656 1118.54296875 1968.00097656 1229 c 0
 1968.00097656 1339.37597656 2057.41699219 1428.88476562 2167.79199219 1429 c 2
508 529 m 1
 1149.66601562 -21 l 1
 1448 -21 l 1
 1448 529 l 1
 2089.66601562 -21 l 1
 2246.33398438 -21 l 1
 2888 529 l 1
 2888 -21 l 1
 3186.33398438 -21 l 1
 3827.99902344 529 l 1
 3827.99902344 -21 l 1
 4168 -21 l 1
 4168 -121 l 1
 3827.99902344 -121 l 1
 3827.99902344 -671 l 1
 3186.33398438 -121 l 1
 2888 -121 l 1
 2888 -671 l 1
 2246.33398438 -121 l 1
 2089.66601562 -121 l 1
 1448 -671 l 1
 1448 -121 l 1
 1149.66601562 -121 l 1
 508 -671 l 1
 508 -121 l 1
 168 -121 l 1
 168 -21 l 1
 508 -21 l 1
 508 529 l 1
120 3277 m 1
 168 3277 l 1
 168 -819 l 1
 120 -819 l 1
 120 3277 l 1
4168 3277 m 1
 4216 3277 l 1
 4216 -819 l 1
 4168 -819 l 1
 4168 3277 l 1
EndSplineSet
EndChar

